<mxfile host="Electron" agent="Mozilla/5.0 (Macintosh; Intel Mac OS X 10_15_7) AppleWebKit/537.36 (KHTML, like Gecko) draw.io/26.1.1 Chrome/132.0.6834.210 Electron/34.3.3 Safari/537.36" version="26.1.1" pages="3">
  <diagram name="it_landscape" id="SLCXAYNGWxkvh4yMWGIX">
    <mxGraphModel dx="1908" dy="1454" grid="1" gridSize="10" guides="1" tooltips="1" connect="1" arrows="1" fold="1" page="1" pageScale="1" pageWidth="850" pageHeight="1100" math="0" shadow="0">
      <root>
        <mxCell id="0" />
        <mxCell id="1" parent="0" />
        <mxCell id="Btk7NwE72k1RVQOvHoB8-1" value="&lt;h1 style=&quot;margin-top: 0px;&quot;&gt;&lt;a href=&quot;https://docs.google.com/spreadsheets/d/1DQb8t1Lq_itWgupDvZYTqEMH5ahx6pnp0_OyoLrWKqQ/edit?usp=sharing&quot;&gt;Карта текущего IT ландшафта&lt;/a&gt;&lt;/h1&gt;" style="text;html=1;whiteSpace=wrap;overflow=hidden;rounded=0;" parent="1" vertex="1">
          <mxGeometry x="1507" y="90" width="370" height="50" as="geometry" />
        </mxCell>
        <mxCell id="Btk7NwE72k1RVQOvHoB8-2" value="&lt;p style=&quot;margin: 0px; font-variant-numeric: normal; font-variant-east-asian: normal; font-variant-alternates: normal; font-size-adjust: none; font-kerning: auto; font-optical-sizing: auto; font-feature-settings: normal; font-variation-settings: normal; font-variant-position: normal; font-variant-emoji: normal; font-stretch: normal; font-size: 10.7px; line-height: normal;&quot; class=&quot;p1&quot;&gt;&lt;/p&gt;&lt;ul&gt;&lt;li&gt;[1] операционное оформление счетов/вкладов, работа в отделении (взаимодействие через клиент АБС). Почта используется в случае, когда клиент банк пришел без предварительного звонка в кол-центр&lt;/li&gt;&lt;li&gt;[2] ввод заявок и документов для дальнейшей обработки бэк-офисом&lt;/li&gt;&lt;li&gt;[3] ввод первичных данных по кредитам, передача на бэк-офис&lt;/li&gt;&lt;li&gt;[4] формируют/распечатывают проекты договоров в отделении, окончательная версия в бэк-офисе&lt;/li&gt;&lt;li&gt;[5] проверка открытых в отделении вкладов (учёт, расчёты). Почта используется в случае, когда клиент банк пришел без предварительного звонка в кол-центр&lt;/li&gt;&lt;li&gt;[6] при обращениях от кол-центра (удалённые клиенты), проверка и расчёты вкладов&lt;/li&gt;&lt;li&gt;[7] возможна генерация уведомлений клиентам о статусе вкладов (иногда через интернет-банк)&lt;/li&gt;&lt;li&gt;[8] основная система учёта депозитов, расчёт процентов, оформление доп. соглашений&lt;/li&gt;&lt;li&gt;[9] генерация депозитных договоров, хранение и учёт&lt;/li&gt;&lt;li&gt;[10] если кол-центр собрал предварительные заявки, бэк-офис проверяет и выдаёт решения&lt;/li&gt;&lt;li&gt;[11] уведомления по кредитным заявкам (одобрение/отказ и т.п.)&lt;/li&gt;&lt;li&gt;[12] основная система учёта кредитов, расчёт процентов, сопровождение сделок&lt;/li&gt;&lt;li&gt;[13] генерация кредитных договоров, учёт, хранение&lt;/li&gt;&lt;li&gt;[14] базовый инструмент для телефонных продаж (входящие/исходящие звонки)&lt;/li&gt;&lt;li&gt;[15] (заявки на депозиты) + передача данных в АБС&lt;/li&gt;&lt;li&gt;[16] (заявки на кредиты) + передача данных в АБС&lt;/li&gt;&lt;li&gt;[17] внешний инструмент, обзвоны по депозитам/кредитам&lt;/li&gt;&lt;li&gt;[18] сбор заявок, передача в банк (бэк-офис)&lt;/li&gt;&lt;li&gt;[19] сбор заявок, передача в банк (бэк-офис)&lt;/li&gt;&lt;/ul&gt;&lt;p&gt;&lt;/p&gt;" style="text;whiteSpace=wrap;html=1;fillColor=default;" parent="1" vertex="1">
          <mxGeometry x="1900" y="580" width="600" height="430" as="geometry" />
        </mxCell>
        <mxCell id="Btk7NwE72k1RVQOvHoB8-3" value="&lt;h1 style=&quot;margin-top: 0px;&quot;&gt;Схема интеграции приложений с указанием участников процессов&lt;/h1&gt;&lt;div&gt;&lt;br&gt;&lt;/div&gt;&lt;h2&gt;&lt;span style=&quot;font-weight: normal;&quot;&gt;Для процесса открытия депозита с двум сценариями&lt;/span&gt;&lt;/h2&gt;" style="text;html=1;whiteSpace=wrap;overflow=hidden;rounded=0;" parent="1" vertex="1">
          <mxGeometry x="1520" y="1120" width="570" height="170" as="geometry" />
        </mxCell>
        <object placeholders="1" c4Name="Клиент банка" c4Type="Person" c4Description="" label="&lt;font style=&quot;font-size: 16px&quot;&gt;&lt;b&gt;%c4Name%&lt;/b&gt;&lt;/font&gt;&lt;div&gt;[%c4Type%]&lt;/div&gt;&lt;br&gt;&lt;div&gt;&lt;font style=&quot;font-size: 11px&quot;&gt;&lt;font color=&quot;#cccccc&quot;&gt;%c4Description%&lt;/font&gt;&lt;/div&gt;" id="Btk7NwE72k1RVQOvHoB8-4">
          <mxCell style="html=1;fontSize=11;dashed=0;whiteSpace=wrap;fillColor=#6C6477;strokeColor=#4D4D4D;fontColor=#ffffff;shape=mxgraph.c4.person2;align=center;metaEdit=1;points=[[0.5,0,0],[1,0.5,0],[1,0.75,0],[0.75,1,0],[0.5,1,0],[0.25,1,0],[0,0.75,0],[0,0.5,0]];resizable=0;" parent="1" vertex="1">
            <mxGeometry x="770" y="1380" width="200" height="180" as="geometry" />
          </mxCell>
        </object>
        <object placeholders="1" c4Name="Менеджер фронт-офиса" c4Type="Person" c4Description="" label="&lt;font style=&quot;font-size: 16px&quot;&gt;&lt;b&gt;%c4Name%&lt;/b&gt;&lt;/font&gt;&lt;div&gt;[%c4Type%]&lt;/div&gt;&lt;br&gt;&lt;div&gt;&lt;font style=&quot;font-size: 11px&quot;&gt;&lt;font color=&quot;#cccccc&quot;&gt;%c4Description%&lt;/font&gt;&lt;/div&gt;" id="Btk7NwE72k1RVQOvHoB8-5">
          <mxCell style="html=1;fontSize=11;dashed=0;whiteSpace=wrap;fillColor=#083F75;strokeColor=#06315C;fontColor=#ffffff;shape=mxgraph.c4.person2;align=center;metaEdit=1;points=[[0.5,0,0],[1,0.5,0],[1,0.75,0],[0.75,1,0],[0.5,1,0],[0.25,1,0],[0,0.75,0],[0,0.5,0]];resizable=0;" parent="1" vertex="1">
            <mxGeometry x="310" y="1690" width="200" height="180" as="geometry" />
          </mxCell>
        </object>
        <object placeholders="1" c4Name="Колл-центр" c4Type="Software System" c4Description="" label="&lt;font style=&quot;font-size: 16px&quot;&gt;&lt;b&gt;%c4Name%&lt;/b&gt;&lt;/font&gt;&lt;div&gt;[%c4Type%]&lt;/div&gt;&lt;br&gt;&lt;div&gt;&lt;font style=&quot;font-size: 11px&quot;&gt;&lt;font color=&quot;#cccccc&quot;&gt;%c4Description%&lt;/font&gt;&lt;/div&gt;" id="Btk7NwE72k1RVQOvHoB8-6">
          <mxCell style="rounded=1;whiteSpace=wrap;html=1;labelBackgroundColor=none;fillColor=#1061B0;fontColor=#ffffff;align=center;arcSize=10;strokeColor=#0D5091;metaEdit=1;resizable=0;points=[[0.25,0,0],[0.5,0,0],[0.75,0,0],[1,0.25,0],[1,0.5,0],[1,0.75,0],[0.75,1,0],[0.5,1,0],[0.25,1,0],[0,0.75,0],[0,0.5,0],[0,0.25,0]];" parent="1" vertex="1">
            <mxGeometry x="1285" y="1720" width="240" height="120" as="geometry" />
          </mxCell>
        </object>
        <mxCell id="Btk7NwE72k1RVQOvHoB8-7" style="edgeStyle=orthogonalEdgeStyle;rounded=0;orthogonalLoop=1;jettySize=auto;html=1;entryX=0.5;entryY=0;entryDx=0;entryDy=0;entryPerimeter=0;" parent="1" source="Btk7NwE72k1RVQOvHoB8-4" target="Btk7NwE72k1RVQOvHoB8-6" edge="1">
          <mxGeometry relative="1" as="geometry" />
        </mxCell>
        <mxCell id="Btk7NwE72k1RVQOvHoB8-8" value="1. Уточнение деталей открытия депозита" style="edgeLabel;html=1;align=center;verticalAlign=middle;resizable=0;points=[];" parent="Btk7NwE72k1RVQOvHoB8-7" vertex="1" connectable="0">
          <mxGeometry x="0.4721" y="2" relative="1" as="geometry">
            <mxPoint x="-2" y="50" as="offset" />
          </mxGeometry>
        </mxCell>
        <object placeholders="1" c4Name="Менеджеры бэк-офиса&#xa;(депозиты)" c4Type="Person" c4Description="Обрабатывают заявки из кол-центра в АБС заранее. Или напрямую от менеджера фронт-офиса" label="&lt;font style=&quot;font-size: 16px&quot;&gt;&lt;b&gt;%c4Name%&lt;/b&gt;&lt;/font&gt;&lt;div&gt;[%c4Type%]&lt;/div&gt;&lt;br&gt;&lt;div&gt;&lt;font style=&quot;font-size: 11px&quot;&gt;&lt;font color=&quot;#cccccc&quot;&gt;%c4Description%&lt;/font&gt;&lt;/div&gt;" id="Btk7NwE72k1RVQOvHoB8-9">
          <mxCell style="html=1;fontSize=11;dashed=0;whiteSpace=wrap;fillColor=#083F75;strokeColor=#06315C;fontColor=#ffffff;shape=mxgraph.c4.person2;align=center;metaEdit=1;points=[[0.5,0,0],[1,0.5,0],[1,0.75,0],[0.75,1,0],[0.5,1,0],[0.25,1,0],[0,0.75,0],[0,0.5,0]];resizable=0;" parent="1" vertex="1">
            <mxGeometry x="290" y="1970" width="200" height="180" as="geometry" />
          </mxCell>
        </object>
        <object placeholders="1" c4Name="АБС" c4Type="Software System" c4Description="" label="&lt;font style=&quot;font-size: 16px&quot;&gt;&lt;b&gt;%c4Name%&lt;/b&gt;&lt;/font&gt;&lt;div&gt;[%c4Type%]&lt;/div&gt;&lt;br&gt;&lt;div&gt;&lt;font style=&quot;font-size: 11px&quot;&gt;&lt;font color=&quot;#cccccc&quot;&gt;%c4Description%&lt;/font&gt;&lt;/div&gt;" id="Btk7NwE72k1RVQOvHoB8-10">
          <mxCell style="rounded=1;whiteSpace=wrap;html=1;labelBackgroundColor=none;fillColor=#1061B0;fontColor=#ffffff;align=center;arcSize=10;strokeColor=#0D5091;metaEdit=1;resizable=0;points=[[0.25,0,0],[0.5,0,0],[0.75,0,0],[1,0.25,0],[1,0.5,0],[1,0.75,0],[0.75,1,0],[0.5,1,0],[0.25,1,0],[0,0.75,0],[0,0.5,0],[0,0.25,0]];" parent="1" vertex="1">
            <mxGeometry x="750" y="1720" width="240" height="120" as="geometry" />
          </mxCell>
        </object>
        <mxCell id="Btk7NwE72k1RVQOvHoB8-11" style="edgeStyle=orthogonalEdgeStyle;rounded=0;orthogonalLoop=1;jettySize=auto;html=1;exitX=0.5;exitY=0;exitDx=0;exitDy=0;exitPerimeter=0;entryX=0.25;entryY=1;entryDx=0;entryDy=0;entryPerimeter=0;" parent="1" source="Btk7NwE72k1RVQOvHoB8-9" target="Btk7NwE72k1RVQOvHoB8-10" edge="1">
          <mxGeometry relative="1" as="geometry" />
        </mxCell>
        <mxCell id="Btk7NwE72k1RVQOvHoB8-12" value="4. Обработка заявки на открытие депозита" style="edgeLabel;html=1;align=center;verticalAlign=middle;resizable=0;points=[];" parent="Btk7NwE72k1RVQOvHoB8-11" vertex="1" connectable="0">
          <mxGeometry x="0.0095" y="6" relative="1" as="geometry">
            <mxPoint x="57" y="1" as="offset" />
          </mxGeometry>
        </mxCell>
        <mxCell id="Btk7NwE72k1RVQOvHoB8-13" style="edgeStyle=orthogonalEdgeStyle;rounded=0;orthogonalLoop=1;jettySize=auto;html=1;entryX=0.5;entryY=1;entryDx=0;entryDy=0;entryPerimeter=0;exitX=0.5;exitY=0;exitDx=0;exitDy=0;exitPerimeter=0;" parent="1" source="Btk7NwE72k1RVQOvHoB8-10" target="Btk7NwE72k1RVQOvHoB8-4" edge="1">
          <mxGeometry relative="1" as="geometry">
            <Array as="points">
              <mxPoint x="870" y="1590" />
              <mxPoint x="870" y="1590" />
            </Array>
            <mxPoint x="1300" y="2020" as="targetPoint" />
          </mxGeometry>
        </mxCell>
        <mxCell id="Btk7NwE72k1RVQOvHoB8-14" value="8. Отправка СМС-оповещения&lt;div&gt;через СМС-шлюз после обработки заявки&lt;/div&gt;&lt;div&gt;менеджером бэк-офиса (депозиты)&lt;/div&gt;" style="edgeLabel;html=1;align=center;verticalAlign=middle;resizable=0;points=[];" parent="Btk7NwE72k1RVQOvHoB8-13" vertex="1" connectable="0">
          <mxGeometry x="0.0774" relative="1" as="geometry">
            <mxPoint as="offset" />
          </mxGeometry>
        </mxCell>
        <mxCell id="Btk7NwE72k1RVQOvHoB8-15" style="edgeStyle=orthogonalEdgeStyle;rounded=0;orthogonalLoop=1;jettySize=auto;html=1;entryX=0.5;entryY=0;entryDx=0;entryDy=0;entryPerimeter=0;" parent="1" source="Btk7NwE72k1RVQOvHoB8-4" target="Btk7NwE72k1RVQOvHoB8-5" edge="1">
          <mxGeometry relative="1" as="geometry" />
        </mxCell>
        <mxCell id="Btk7NwE72k1RVQOvHoB8-16" value="9. Подача заявки на открытие&lt;div&gt;депозита через отделение банка&lt;/div&gt;" style="edgeLabel;html=1;align=center;verticalAlign=middle;resizable=0;points=[];" parent="Btk7NwE72k1RVQOvHoB8-15" vertex="1" connectable="0">
          <mxGeometry x="0.2009" y="2" relative="1" as="geometry">
            <mxPoint x="-22" y="28" as="offset" />
          </mxGeometry>
        </mxCell>
        <object placeholders="1" c4Name="Сотрудник кол-центра" c4Type="Person" c4Description="" label="&lt;font style=&quot;font-size: 16px&quot;&gt;&lt;b&gt;%c4Name%&lt;/b&gt;&lt;/font&gt;&lt;div&gt;[%c4Type%]&lt;/div&gt;&lt;br&gt;&lt;div&gt;&lt;font style=&quot;font-size: 11px&quot;&gt;&lt;font color=&quot;#cccccc&quot;&gt;%c4Description%&lt;/font&gt;&lt;/div&gt;" id="Btk7NwE72k1RVQOvHoB8-17">
          <mxCell style="html=1;fontSize=11;dashed=0;whiteSpace=wrap;fillColor=#083F75;strokeColor=#06315C;fontColor=#ffffff;shape=mxgraph.c4.person2;align=center;metaEdit=1;points=[[0.5,0,0],[1,0.5,0],[1,0.75,0],[0.75,1,0],[0.5,1,0],[0.25,1,0],[0,0.75,0],[0,0.5,0]];resizable=0;" parent="1" vertex="1">
            <mxGeometry x="1420" y="1970" width="200" height="180" as="geometry" />
          </mxCell>
        </object>
        <mxCell id="Btk7NwE72k1RVQOvHoB8-18" style="edgeStyle=orthogonalEdgeStyle;rounded=0;orthogonalLoop=1;jettySize=auto;html=1;exitX=0;exitY=0.5;exitDx=0;exitDy=0;exitPerimeter=0;entryX=1;entryY=0.5;entryDx=0;entryDy=0;entryPerimeter=0;" parent="1" source="Btk7NwE72k1RVQOvHoB8-6" target="Btk7NwE72k1RVQOvHoB8-10" edge="1">
          <mxGeometry relative="1" as="geometry">
            <mxPoint x="1235" y="1700" as="targetPoint" />
            <Array as="points" />
          </mxGeometry>
        </mxCell>
        <mxCell id="Btk7NwE72k1RVQOvHoB8-19" value="3. Регистрация обращения&lt;div&gt;на открытие депозита&lt;/div&gt;" style="edgeLabel;html=1;align=center;verticalAlign=middle;resizable=0;points=[];" parent="Btk7NwE72k1RVQOvHoB8-18" vertex="1" connectable="0">
          <mxGeometry x="-0.0393" y="1" relative="1" as="geometry">
            <mxPoint x="7" y="-21" as="offset" />
          </mxGeometry>
        </mxCell>
        <mxCell id="Btk7NwE72k1RVQOvHoB8-20" value="&lt;span style=&quot;color: rgba(0, 0, 0, 0.85); font-family: &amp;quot;YS Text&amp;quot;, sans-serif; font-size: 18px; font-style: normal; font-variant-ligatures: normal; font-variant-caps: normal; font-weight: 400; letter-spacing: normal; orphans: 2; text-align: left; text-indent: 0px; text-transform: none; widows: 2; word-spacing: 0px; -webkit-text-stroke-width: 0px; white-space: pre-line; background-color: rgb(255, 255, 255); text-decoration-thickness: initial; text-decoration-style: initial; text-decoration-color: initial; display: inline !important; float: none;&quot;&gt;Сценарий 1: Если до своего визита клиент позвонил в кол-центр, чтобы уточнить детали открытия депозита&lt;/span&gt;" style="text;whiteSpace=wrap;html=1;fillColor=default;" parent="1" vertex="1">
          <mxGeometry x="600" y="1250" width="557.5" height="60" as="geometry" />
        </mxCell>
        <mxCell id="Btk7NwE72k1RVQOvHoB8-21" value="&lt;span style=&quot;color: rgba(0, 0, 0, 0.85); font-family: &amp;quot;YS Text&amp;quot;, sans-serif; font-size: 18px; font-style: normal; font-variant-ligatures: normal; font-variant-caps: normal; font-weight: 400; letter-spacing: normal; orphans: 2; text-align: left; text-indent: 0px; text-transform: none; widows: 2; word-spacing: 0px; -webkit-text-stroke-width: 0px; white-space: pre-line; background-color: rgb(255, 255, 255); text-decoration-thickness: initial; text-decoration-style: initial; text-decoration-color: initial; display: inline !important; float: none;&quot;&gt;Сценарий 2: Если клиент приходит в отделение без предварительного звонка, то его заявку нельзя обработать заранее&lt;/span&gt;" style="text;whiteSpace=wrap;html=1;fillColor=default;" parent="1" vertex="1">
          <mxGeometry x="2330" y="1240" width="595" height="70" as="geometry" />
        </mxCell>
        <object placeholders="1" c4Name="Менеджеры бэк-офиса&#xa;(кредиты)" c4Type="Person" c4Description="Анализирует текущий уровень кредитного риска для банка в своём разделе АБС относительно этого клиента и передаёт данные в письме" label="&lt;font style=&quot;font-size: 16px&quot;&gt;&lt;b&gt;%c4Name%&lt;/b&gt;&lt;/font&gt;&lt;div&gt;[%c4Type%]&lt;/div&gt;&lt;br&gt;&lt;div&gt;&lt;font style=&quot;font-size: 11px&quot;&gt;&lt;font color=&quot;#cccccc&quot;&gt;%c4Description%&lt;/font&gt;&lt;/div&gt;" id="Btk7NwE72k1RVQOvHoB8-22">
          <mxCell style="html=1;fontSize=11;dashed=0;whiteSpace=wrap;fillColor=#083F75;strokeColor=#06315C;fontColor=#ffffff;shape=mxgraph.c4.person2;align=center;metaEdit=1;points=[[0.5,0,0],[1,0.5,0],[1,0.75,0],[0.75,1,0],[0.5,1,0],[0.25,1,0],[0,0.75,0],[0,0.5,0]];resizable=0;" parent="1" vertex="1">
            <mxGeometry x="1157.5" y="1970" width="200" height="180" as="geometry" />
          </mxCell>
        </object>
        <mxCell id="Btk7NwE72k1RVQOvHoB8-23" style="edgeStyle=orthogonalEdgeStyle;rounded=0;orthogonalLoop=1;jettySize=auto;html=1;exitX=1;exitY=0.5;exitDx=0;exitDy=0;exitPerimeter=0;entryX=0;entryY=0.5;entryDx=0;entryDy=0;entryPerimeter=0;" parent="1" source="Btk7NwE72k1RVQOvHoB8-5" target="Btk7NwE72k1RVQOvHoB8-10" edge="1">
          <mxGeometry relative="1" as="geometry" />
        </mxCell>
        <mxCell id="Btk7NwE72k1RVQOvHoB8-24" value="10. Выдача депозита и&lt;div&gt;загрузка документов&lt;/div&gt;" style="edgeLabel;html=1;align=center;verticalAlign=middle;resizable=0;points=[];" parent="Btk7NwE72k1RVQOvHoB8-23" vertex="1" connectable="0">
          <mxGeometry x="0.3561" y="2" relative="1" as="geometry">
            <mxPoint x="-43" y="-8" as="offset" />
          </mxGeometry>
        </mxCell>
        <mxCell id="Btk7NwE72k1RVQOvHoB8-25" style="edgeStyle=orthogonalEdgeStyle;rounded=0;orthogonalLoop=1;jettySize=auto;html=1;entryX=0.5;entryY=1;entryDx=0;entryDy=0;entryPerimeter=0;" parent="1" source="Btk7NwE72k1RVQOvHoB8-17" target="Btk7NwE72k1RVQOvHoB8-6" edge="1">
          <mxGeometry relative="1" as="geometry" />
        </mxCell>
        <mxCell id="Btk7NwE72k1RVQOvHoB8-26" value="2. Обработка обращения на открытие депозита" style="edgeLabel;html=1;align=center;verticalAlign=middle;resizable=0;points=[];" parent="Btk7NwE72k1RVQOvHoB8-25" vertex="1" connectable="0">
          <mxGeometry x="-0.1857" y="-4" relative="1" as="geometry">
            <mxPoint x="-4" y="7" as="offset" />
          </mxGeometry>
        </mxCell>
        <mxCell id="Btk7NwE72k1RVQOvHoB8-27" style="edgeStyle=orthogonalEdgeStyle;rounded=0;orthogonalLoop=1;jettySize=auto;html=1;exitX=0.5;exitY=0;exitDx=0;exitDy=0;exitPerimeter=0;entryX=0.75;entryY=1;entryDx=0;entryDy=0;entryPerimeter=0;" parent="1" source="Btk7NwE72k1RVQOvHoB8-22" target="Btk7NwE72k1RVQOvHoB8-10" edge="1">
          <mxGeometry relative="1" as="geometry" />
        </mxCell>
        <mxCell id="Btk7NwE72k1RVQOvHoB8-28" value="5. Анализ специальных ставок" style="edgeLabel;html=1;align=center;verticalAlign=middle;resizable=0;points=[];" parent="Btk7NwE72k1RVQOvHoB8-27" vertex="1" connectable="0">
          <mxGeometry x="0.1887" y="1" relative="1" as="geometry">
            <mxPoint x="73" y="-6" as="offset" />
          </mxGeometry>
        </mxCell>
        <object placeholders="1" c4Name="Клиент банка" c4Type="Person" c4Description="" label="&lt;font style=&quot;font-size: 16px&quot;&gt;&lt;b&gt;%c4Name%&lt;/b&gt;&lt;/font&gt;&lt;div&gt;[%c4Type%]&lt;/div&gt;&lt;br&gt;&lt;div&gt;&lt;font style=&quot;font-size: 11px&quot;&gt;&lt;font color=&quot;#cccccc&quot;&gt;%c4Description%&lt;/font&gt;&lt;/div&gt;" id="Btk7NwE72k1RVQOvHoB8-29">
          <mxCell style="html=1;fontSize=11;dashed=0;whiteSpace=wrap;fillColor=#6C6477;strokeColor=#4D4D4D;fontColor=#ffffff;shape=mxgraph.c4.person2;align=center;metaEdit=1;points=[[0.5,0,0],[1,0.5,0],[1,0.75,0],[0.75,1,0],[0.5,1,0],[0.25,1,0],[0,0.75,0],[0,0.5,0]];resizable=0;" parent="1" vertex="1">
            <mxGeometry x="2540" y="1340" width="200" height="180" as="geometry" />
          </mxCell>
        </object>
        <object placeholders="1" c4Name="Менеджер фронт-офиса" c4Type="Person" c4Description="" label="&lt;font style=&quot;font-size: 16px&quot;&gt;&lt;b&gt;%c4Name%&lt;/b&gt;&lt;/font&gt;&lt;div&gt;[%c4Type%]&lt;/div&gt;&lt;br&gt;&lt;div&gt;&lt;font style=&quot;font-size: 11px&quot;&gt;&lt;font color=&quot;#cccccc&quot;&gt;%c4Description%&lt;/font&gt;&lt;/div&gt;" id="Btk7NwE72k1RVQOvHoB8-30">
          <mxCell style="html=1;fontSize=11;dashed=0;whiteSpace=wrap;fillColor=#083F75;strokeColor=#06315C;fontColor=#ffffff;shape=mxgraph.c4.person2;align=center;metaEdit=1;points=[[0.5,0,0],[1,0.5,0],[1,0.75,0],[0.75,1,0],[0.5,1,0],[0.25,1,0],[0,0.75,0],[0,0.5,0]];resizable=0;" parent="1" vertex="1">
            <mxGeometry x="2080" y="1570" width="200" height="180" as="geometry" />
          </mxCell>
        </object>
        <object placeholders="1" c4Name="Менеджеры бэк-офиса&#xa;(депозиты)" c4Type="Person" c4Description="Обрабатывают заявки из кол-центра в АБС заранее. Или напрямую от менеджера фронт-офиса" label="&lt;font style=&quot;font-size: 16px&quot;&gt;&lt;b&gt;%c4Name%&lt;/b&gt;&lt;/font&gt;&lt;div&gt;[%c4Type%]&lt;/div&gt;&lt;br&gt;&lt;div&gt;&lt;font style=&quot;font-size: 11px&quot;&gt;&lt;font color=&quot;#cccccc&quot;&gt;%c4Description%&lt;/font&gt;&lt;/div&gt;" id="Btk7NwE72k1RVQOvHoB8-31">
          <mxCell style="html=1;fontSize=11;dashed=0;whiteSpace=wrap;fillColor=#083F75;strokeColor=#06315C;fontColor=#ffffff;shape=mxgraph.c4.person2;align=center;metaEdit=1;points=[[0.5,0,0],[1,0.5,0],[1,0.75,0],[0.75,1,0],[0.5,1,0],[0.25,1,0],[0,0.75,0],[0,0.5,0]];resizable=0;" parent="1" vertex="1">
            <mxGeometry x="2230" y="1990" width="200" height="180" as="geometry" />
          </mxCell>
        </object>
        <object placeholders="1" c4Name="АБС" c4Type="Software System" c4Description="" label="&lt;font style=&quot;font-size: 16px&quot;&gt;&lt;b&gt;%c4Name%&lt;/b&gt;&lt;/font&gt;&lt;div&gt;[%c4Type%]&lt;/div&gt;&lt;br&gt;&lt;div&gt;&lt;font style=&quot;font-size: 11px&quot;&gt;&lt;font color=&quot;#cccccc&quot;&gt;%c4Description%&lt;/font&gt;&lt;/div&gt;" id="Btk7NwE72k1RVQOvHoB8-32">
          <mxCell style="rounded=1;whiteSpace=wrap;html=1;labelBackgroundColor=none;fillColor=#1061B0;fontColor=#ffffff;align=center;arcSize=10;strokeColor=#0D5091;metaEdit=1;resizable=0;points=[[0.25,0,0],[0.5,0,0],[0.75,0,0],[1,0.25,0],[1,0.5,0],[1,0.75,0],[0.75,1,0],[0.5,1,0],[0.25,1,0],[0,0.75,0],[0,0.5,0],[0,0.25,0]];" parent="1" vertex="1">
            <mxGeometry x="2520" y="1600" width="240" height="120" as="geometry" />
          </mxCell>
        </object>
        <mxCell id="Btk7NwE72k1RVQOvHoB8-33" style="edgeStyle=orthogonalEdgeStyle;rounded=0;orthogonalLoop=1;jettySize=auto;html=1;exitX=0.5;exitY=0;exitDx=0;exitDy=0;exitPerimeter=0;entryX=0.25;entryY=1;entryDx=0;entryDy=0;entryPerimeter=0;" parent="1" source="Btk7NwE72k1RVQOvHoB8-31" target="Btk7NwE72k1RVQOvHoB8-32" edge="1">
          <mxGeometry relative="1" as="geometry">
            <Array as="points">
              <mxPoint x="2360" y="1910" />
              <mxPoint x="2580" y="1910" />
            </Array>
          </mxGeometry>
        </mxCell>
        <mxCell id="Btk7NwE72k1RVQOvHoB8-59" value="4. Добавление заявки&lt;div&gt;на депозит в систему&lt;/div&gt;" style="edgeLabel;html=1;align=center;verticalAlign=middle;resizable=0;points=[];" parent="Btk7NwE72k1RVQOvHoB8-33" vertex="1" connectable="0">
          <mxGeometry x="0.0096" y="2" relative="1" as="geometry">
            <mxPoint x="-32" as="offset" />
          </mxGeometry>
        </mxCell>
        <mxCell id="Btk7NwE72k1RVQOvHoB8-35" style="edgeStyle=orthogonalEdgeStyle;rounded=0;orthogonalLoop=1;jettySize=auto;html=1;entryX=0.5;entryY=0;entryDx=0;entryDy=0;entryPerimeter=0;" parent="1" source="Btk7NwE72k1RVQOvHoB8-29" target="Btk7NwE72k1RVQOvHoB8-30" edge="1">
          <mxGeometry relative="1" as="geometry" />
        </mxCell>
        <mxCell id="Btk7NwE72k1RVQOvHoB8-36" value="1. Подача заявки на открытие&lt;div&gt;депозита через отделение банка&lt;/div&gt;" style="edgeLabel;html=1;align=center;verticalAlign=middle;resizable=0;points=[];" parent="Btk7NwE72k1RVQOvHoB8-35" vertex="1" connectable="0">
          <mxGeometry x="0.2009" y="2" relative="1" as="geometry">
            <mxPoint x="-82" y="48" as="offset" />
          </mxGeometry>
        </mxCell>
        <object placeholders="1" c4Name="Менеджеры бэк-офиса&#xa;(кредиты)" c4Type="Person" c4Description="Анализирует текущий уровень кредитного риска для банка в своём разделе АБС относительно этого клиента и передаёт данные в письме" label="&lt;font style=&quot;font-size: 16px&quot;&gt;&lt;b&gt;%c4Name%&lt;/b&gt;&lt;/font&gt;&lt;div&gt;[%c4Type%]&lt;/div&gt;&lt;br&gt;&lt;div&gt;&lt;font style=&quot;font-size: 11px&quot;&gt;&lt;font color=&quot;#cccccc&quot;&gt;%c4Description%&lt;/font&gt;&lt;/div&gt;" id="Btk7NwE72k1RVQOvHoB8-37">
          <mxCell style="html=1;fontSize=11;dashed=0;whiteSpace=wrap;fillColor=#083F75;strokeColor=#06315C;fontColor=#ffffff;shape=mxgraph.c4.person2;align=center;metaEdit=1;points=[[0.5,0,0],[1,0.5,0],[1,0.75,0],[0.75,1,0],[0.5,1,0],[0.25,1,0],[0,0.75,0],[0,0.5,0]];resizable=0;" parent="1" vertex="1">
            <mxGeometry x="3000" y="1990" width="200" height="180" as="geometry" />
          </mxCell>
        </object>
        <mxCell id="Btk7NwE72k1RVQOvHoB8-38" style="edgeStyle=orthogonalEdgeStyle;rounded=0;orthogonalLoop=1;jettySize=auto;html=1;exitX=1;exitY=0.5;exitDx=0;exitDy=0;exitPerimeter=0;entryX=0;entryY=0.5;entryDx=0;entryDy=0;entryPerimeter=0;" parent="1" source="Btk7NwE72k1RVQOvHoB8-30" target="Btk7NwE72k1RVQOvHoB8-32" edge="1">
          <mxGeometry relative="1" as="geometry" />
        </mxCell>
        <mxCell id="Btk7NwE72k1RVQOvHoB8-39" value="9. Выдача депозита и&lt;div&gt;загрузка документов&lt;/div&gt;" style="edgeLabel;html=1;align=center;verticalAlign=middle;resizable=0;points=[];" parent="Btk7NwE72k1RVQOvHoB8-38" vertex="1" connectable="0">
          <mxGeometry x="0.3561" y="2" relative="1" as="geometry">
            <mxPoint x="-33" y="2" as="offset" />
          </mxGeometry>
        </mxCell>
        <mxCell id="Btk7NwE72k1RVQOvHoB8-40" style="edgeStyle=orthogonalEdgeStyle;rounded=0;orthogonalLoop=1;jettySize=auto;html=1;exitX=0.5;exitY=0;exitDx=0;exitDy=0;exitPerimeter=0;entryX=0.75;entryY=1;entryDx=0;entryDy=0;entryPerimeter=0;" parent="1" source="Btk7NwE72k1RVQOvHoB8-37" target="Btk7NwE72k1RVQOvHoB8-32" edge="1">
          <mxGeometry relative="1" as="geometry">
            <Array as="points">
              <mxPoint x="3100" y="1910" />
              <mxPoint x="2700" y="1910" />
            </Array>
          </mxGeometry>
        </mxCell>
        <mxCell id="Btk7NwE72k1RVQOvHoB8-41" value="5. Согласование специальных ставок" style="edgeLabel;html=1;align=center;verticalAlign=middle;resizable=0;points=[];" parent="Btk7NwE72k1RVQOvHoB8-40" vertex="1" connectable="0">
          <mxGeometry x="0.1887" y="1" relative="1" as="geometry">
            <mxPoint x="100" y="4" as="offset" />
          </mxGeometry>
        </mxCell>
        <object placeholders="1" c4Name="Почта" c4Type="Software System" c4Description="" label="&lt;font style=&quot;font-size: 16px&quot;&gt;&lt;b&gt;%c4Name%&lt;/b&gt;&lt;/font&gt;&lt;div&gt;[%c4Type%]&lt;/div&gt;&lt;br&gt;&lt;div&gt;&lt;font style=&quot;font-size: 11px&quot;&gt;&lt;font color=&quot;#cccccc&quot;&gt;%c4Description%&lt;/font&gt;&lt;/div&gt;" id="Btk7NwE72k1RVQOvHoB8-42">
          <mxCell style="rounded=1;whiteSpace=wrap;html=1;labelBackgroundColor=none;fillColor=#1061B0;fontColor=#ffffff;align=center;arcSize=10;strokeColor=#0D5091;metaEdit=1;resizable=0;points=[[0.25,0,0],[0.5,0,0],[0.75,0,0],[1,0.25,0],[1,0.5,0],[1,0.75,0],[0.75,1,0],[0.5,1,0],[0.25,1,0],[0,0.75,0],[0,0.5,0],[0,0.25,0]];" parent="1" vertex="1">
            <mxGeometry x="2060" y="1840" width="240" height="120" as="geometry" />
          </mxCell>
        </object>
        <mxCell id="Btk7NwE72k1RVQOvHoB8-43" style="edgeStyle=orthogonalEdgeStyle;rounded=0;orthogonalLoop=1;jettySize=auto;html=1;exitX=0.5;exitY=1;exitDx=0;exitDy=0;exitPerimeter=0;entryX=0.5;entryY=0;entryDx=0;entryDy=0;entryPerimeter=0;" parent="1" source="Btk7NwE72k1RVQOvHoB8-30" target="Btk7NwE72k1RVQOvHoB8-42" edge="1">
          <mxGeometry relative="1" as="geometry" />
        </mxCell>
        <mxCell id="Btk7NwE72k1RVQOvHoB8-44" value="2. Письмо сотруднику бэк-офиса на открытие депозита" style="edgeLabel;html=1;align=center;verticalAlign=middle;resizable=0;points=[];" parent="Btk7NwE72k1RVQOvHoB8-43" vertex="1" connectable="0">
          <mxGeometry x="-0.0923" relative="1" as="geometry">
            <mxPoint as="offset" />
          </mxGeometry>
        </mxCell>
        <mxCell id="Btk7NwE72k1RVQOvHoB8-45" style="edgeStyle=orthogonalEdgeStyle;rounded=0;orthogonalLoop=1;jettySize=auto;html=1;exitX=0;exitY=0.75;exitDx=0;exitDy=0;exitPerimeter=0;entryX=0.5;entryY=1;entryDx=0;entryDy=0;entryPerimeter=0;" parent="1" source="Btk7NwE72k1RVQOvHoB8-31" target="Btk7NwE72k1RVQOvHoB8-42" edge="1">
          <mxGeometry relative="1" as="geometry" />
        </mxCell>
        <mxCell id="Btk7NwE72k1RVQOvHoB8-47" value="3. Обработка заявки на&lt;div&gt;открытие депозита&lt;/div&gt;&lt;div&gt;&lt;br&gt;&lt;/div&gt;&lt;div&gt;8. Отправка ответного письма с&lt;/div&gt;&lt;div&gt;информацией о согласованном депозите&lt;/div&gt;" style="edgeLabel;html=1;align=center;verticalAlign=middle;resizable=0;points=[];" parent="Btk7NwE72k1RVQOvHoB8-45" vertex="1" connectable="0">
          <mxGeometry x="0.1719" y="1" relative="1" as="geometry">
            <mxPoint x="-69" y="-19" as="offset" />
          </mxGeometry>
        </mxCell>
        <mxCell id="Btk7NwE72k1RVQOvHoB8-46" value="" style="shape=image;verticalLabelPosition=bottom;labelBackgroundColor=default;verticalAlign=top;aspect=fixed;imageAspect=0;image=data:image/png,iVBORw0KGgoAAAANSUhEUgAACGIAAAHsCAYAAACTq5lXAAAMTmlDQ1BJQ0MgUHJvZmlsZQAASImVVwdYU8kWnltSSQgQiICU0JsgIiWAlBBaAOlFEJWQBAglxoSgYkcXFVy7iGBFV0EU2wrIYkNddWVR7K5lsaCysi4W7MqbEECXfeV7831z57//nPnnnHNn7r0DAKNDIJPloloA5Enz5bEhAewJySlsUhfAgCagATNgKBAqZNzo6AgAy2D79/LmOkBU7RVHldY/+/9r0RaJFUIAkGiI00UKYR7EPwKANwtl8nwAiDLIW0zPl6nwWoh15dBBiKtVOFONm1U4XY0v9dvEx/IgfgQAmSYQyDMB0OyBPLtAmAl1GDBa4CwVSaQQ+0Psm5c3VQTxfIhtoQ2ck6HS56R/o5P5N830IU2BIHMIq2PpL+RAiUKWK5j5f6bjf5e8XOXgHDaw0rLkobGqmGHeHuVMDVdhGsTvpOmRURDrAIDiElG/vQqzspShCWp71Fao4MGcARbE4xS5cfwBPlYkCAyH2AjiDGluZMSATVGGJFhlA/OHlkvy+fEQ60NcLVYExQ3YnJBPjR2c93qGnMcd4J8K5P0+qPS/KHMSuGp9TCdLzB/Qx5wKs+KTIKZCHFggSYyEWBPiSEVOXPiATWphFi9y0EaujFXFYgmxXCwNCVDrY2UZ8uDYAfvdeYrB2LETWRJ+5AC+nJ8VH6rOFfZIKOj3H8aC9Yil3IRBHbFiQsRgLCJxYJA6dpwslibEqXlcX5YfEKsei9vLcqMH7PEAcW6IijeHOF5REDc4tiAfLk61Pl4sy4+OV/uJV2QLwqLV/uD7QQTggUDABkpY08FUkA0kbd0N3fBO3RMMBEAOMoEYOA4wgyOS+nuk8BoHCsGfEImBYmhcQH+vGBRA/vMwVsVJhjj11RFkDPSpVHLAY4jzQDjIhffKfiXpkAeJ4BFkJP/wSACrEMaQC6uq/9/zg+xXhguZiAFGOTgjmzFoSQwiBhJDicFEO9wQ98W98Qh49YfVBefgnoNxfLUnPCa0Ex4QrhE6CLemSIrkw7wcDzqgfvBAftK/zQ9uDTXd8ADcB6pDZZyFGwJH3BXOw8X94MxukOUN+K3KCnuY9t8i+OYJDdhRnCkoZQTFn2I7fKSmvabbkIoq19/mR+1r+lC+eUM9w+fnfZN9EWzDh1tiS7BD2FnsJHYea8YaABs7jjVirdhRFR5acY/6V9zgbLH9/uRAneFr5uuTVWVS4Vzr3OX8Sd2XL56Rr9qMvKmymXJJZlY+mwu/GGI2Xyp0GsV2cXZxA0D1/VG/3l7F9H9XEFbrV27h7wD4HO/r6/vpKxd2HIADHvCVcOQrZ8uBnxYNAM4dESrlBWoOV10I8M3BgLvPAJgAC2AL43EB7sAb+IMgEAaiQDxIBpOh91lwncvBdDAbLADFoBSsBOtABdgCtoNqsBccBA2gGZwEP4ML4BK4Bm7D1dMJnoEe8AZ8RBCEhNARJmKAmCJWiAPignAQXyQIiUBikWQkDclEpIgSmY0sREqR1UgFsg2pQQ4gR5CTyHmkHbmF3Ee6kJfIBxRDaaguaoxao6NRDspFw9F4dBKaiU5DC9FF6HK0HK1C96D16En0AnoN7UCfob0YwDQwFmaGOWIcjIdFYSlYBibH5mIlWBlWhdVhTfA5X8E6sG7sPU7EmTgbd4QrOBRPwIX4NHwuvgyvwKvxevw0fgW/j/fgXwh0ghHBgeBF4BMmEDIJ0wnFhDLCTsJhwhm4lzoJb4hEIotoQ/SAezGZmE2cRVxG3ETcRzxBbCc+JPaSSCQDkgPJhxRFEpDyScWkDaQ9pOOky6RO0juyBtmU7EIOJqeQpeQichl5N/kY+TL5CfkjRYtiRfGiRFFElJmUFZQdlCbKRUon5SNVm2pD9aHGU7OpC6jl1DrqGeod6isNDQ1zDU+NGA2JxnyNco39Guc07mu8p+nQ7Gk8WipNSVtO20U7QbtFe0Wn063p/vQUej59Ob2Gfop+j/5Ok6nppMnXFGnO06zUrNe8rPmcQWFYMbiMyYxCRhnjEOMio1uLomWtxdMSaM3VqtQ6onVDq1ebqT1GO0o7T3uZ9m7t89pPdUg61jpBOiKdRTrbdU7pPGRiTAsmjylkLmTuYJ5hduoSdW10+brZuqW6e3XbdHv0dPRc9RL1ZuhV6h3V62BhLGsWn5XLWsE6yLrO+jDCeAR3hHjE0hF1Iy6PeKs/Ut9fX6xfor9P/5r+BwO2QZBBjsEqgwaDu4a4ob1hjOF0w82GZwy7R+qO9B4pHFky8uDI34xQI3ujWKNZRtuNWo16jU2MQ4xlxhuMTxl3m7BM/E2yTdaaHDPpMmWa+ppKTNeaHjf9g63H5rJz2eXs0+weMyOzUDOl2TazNrOP5jbmCeZF5vvM71pQLTgWGRZrLVoseixNLcdbzrastfzNimLFscqyWm911uqttY11kvVi6wbrpzb6NnybQptamzu2dFs/22m2VbZX7Yh2HLscu012l+xRezf7LPtK+4sOqIO7g8Rhk0P7KMIoz1HSUVWjbjjSHLmOBY61jvedWE4RTkVODU7PR1uOThm9avTZ0V+c3ZxznXc43x6jMyZsTNGYpjEvXexdhC6VLlfH0scGj503tnHsC1cHV7HrZtebbky38W6L3VrcPrt7uMvd69y7PCw90jw2etzg6HKiOcs45zwJngGe8zybPd97uXvlex30+svb0TvHe7f303E248Tjdox76GPuI/DZ5tPhy/ZN893q2+Fn5ifwq/J74G/hL/Lf6f+Ea8fN5u7hPg9wDpAHHA54y/PizeGdCMQCQwJLAtuCdIISgiqC7gWbB2cG1wb3hLiFzAo5EUoIDQ9dFXqDb8wX8mv4PWEeYXPCTofTwuPCK8IfRNhHyCOaxqPjw8avGX8n0ipSGtkQBaL4UWui7kbbRE+L/imGGBMdUxnzOHZM7OzYs3HMuClxu+PexAfEr4i/nWCboExoSWQkpibWJL5NCkxandQxYfSEORMuJBsmS5IbU0gpiSk7U3onBk1cN7Ez1S21OPX6JJtJMyadn2w4OXfy0SmMKYIph9IIaUlpu9M+CaIEVYLedH76xvQeIU+4XvhM5C9aK+oS+4hXi59k+GSsznia6ZO5JrMryy+rLKtbwpNUSF5kh2ZvyX6bE5WzK6cvNyl3Xx45Ly3viFRHmiM9PdVk6oyp7TIHWbGsY5rXtHXTeuTh8p0KRDFJ0ZivC3/0W5W2yu+U9wt8CyoL3k1PnH5ohvYM6YzWmfYzl858Uhhc+MMsfJZwVstss9kLZt+fw52zbS4yN31uyzyLeYvmdc4PmV+9gLogZ8GvRc5Fq4teL0xa2LTIeNH8RQ+/C/mutlizWF58Y7H34i1L8CWSJW1Lxy7dsPRLiajkl1Ln0rLST8uEy375fsz35d/3Lc9Y3rbCfcXmlcSV0pXXV/mtql6tvbpw9cM149fUr2WvLVn7et2UdefLXMu2rKeuV67vKI8ob9xguWHlhk8VWRXXKgMq92002rh049tNok2XN/tvrttivKV0y4etkq03t4Vsq6+yrirbTtxesP3xjsQdZ3/g/FCz03Bn6c7Pu6S7Oqpjq0/XeNTU7DbavaIWrVXWdu1J3XNpb+DexjrHum37WPtK94P9yv1/HEg7cP1g+MGWQ5xDdT9a/bjxMPNwST1SP7O+pyGroaMxubH9SNiRlibvpsM/Of20q9msufKo3tEVx6jHFh3rO154vPeE7ET3ycyTD1umtNw+NeHU1dMxp9vOhJ8593Pwz6fOcs8eP+dzrvm81/kjv3B+abjgfqG+1a318K9uvx5uc2+rv+hxsfGS56Wm9nHtxy77XT55JfDKz1f5Vy9ci7zWfj3h+s0bqTc6bopuPr2Ve+vFbwW/fbw9/w7hTsldrbtl94zuVf1u9/u+DveOo/cD77c+iHtw+6Hw4bNHikefOhc9pj8ue2L6pOapy9PmruCuS39M/KPzmezZx+7iP7X/3Pjc9vmPf/n/1dozoafzhfxF38tlrwxe7Xrt+rqlN7r33pu8Nx/flrwzeFf9nvP+7IekD08+Tv9E+lT+2e5z05fwL3f68vr6ZAK5oP9XAAOqo00GAC93AUBPBoAJz43UierzYX9B1GfafgT+E1afIfuLOwB18J8+phv+3dwAYP8OAKyhPiMVgGg6APGeAB07dqgOnuX6z52qQoRng62hn9Pz0sG/Keoz6Td+D2+BStUVDG//BRKhgwRH0vh1AAAAimVYSWZNTQAqAAAACAAEARoABQAAAAEAAAA+ARsABQAAAAEAAABGASgAAwAAAAEAAgAAh2kABAAAAAEAAABOAAAAAAAAAJAAAAABAAAAkAAAAAEAA5KGAAcAAAASAAAAeKACAAQAAAABAAAIYqADAAQAAAABAAAB7AAAAABBU0NJSQAAAFNjcmVlbnNob3QflH/sAAAACXBIWXMAABYlAAAWJQFJUiTwAAAB12lUWHRYTUw6Y29tLmFkb2JlLnhtcAAAAAAAPHg6eG1wbWV0YSB4bWxuczp4PSJhZG9iZTpuczptZXRhLyIgeDp4bXB0az0iWE1QIENvcmUgNi4wLjAiPgogICA8cmRmOlJERiB4bWxuczpyZGY9Imh0dHA6Ly93d3cudzMub3JnLzE5OTkvMDIvMjItcmRmLXN5bnRheC1ucyMiPgogICAgICA8cmRmOkRlc2NyaXB0aW9uIHJkZjphYm91dD0iIgogICAgICAgICAgICB4bWxuczpleGlmPSJodHRwOi8vbnMuYWRvYmUuY29tL2V4aWYvMS4wLyI+CiAgICAgICAgIDxleGlmOlBpeGVsWURpbWVuc2lvbj40OTI8L2V4aWY6UGl4ZWxZRGltZW5zaW9uPgogICAgICAgICA8ZXhpZjpQaXhlbFhEaW1lbnNpb24+MjE0NjwvZXhpZjpQaXhlbFhEaW1lbnNpb24+CiAgICAgICAgIDxleGlmOlVzZXJDb21tZW50PlNjcmVlbnNob3Q8L2V4aWY6VXNlckNvbW1lbnQ+CiAgICAgIDwvcmRmOkRlc2NyaXB0aW9uPgogICA8L3JkZjpSREY+CjwveDp4bXBtZXRhPgo5odazAAAAHGlET1QAAAACAAAAAAAAAPYAAAAoAAAA9gAAAPYAALeOwR2MMwAAQABJREFUeAHsnQecFEUTxYucc84IigFRMSsYERUDKogIqKBIBgHJWUSiIDlIVEmigmTBgGLCgCiCgEhGgig5g8BXr7H3mxt2Z3bvDtjbe+1Pbnd2Qs9/Zmqqq19XpzijRVhIgARIgARIgARIgARIgARIgARIgARIgARIgARIgARIgARIgARIgARIgARIgARIgAQSTCAFhRgJZsgdkAAJkAAJkAAJkAAJkAAJkAAJkAAJkAAJkAAJkAAJkAAJkAAJkAAJkAAJkAAJkIAhQCEGbwQSIAESIAESIAESIAESIAESIAESIAESIAESIAESIAESIAESIAESIAESIAESIAESSCQCFGIkEkjuhgRIgARIgARIgARIgARIgARIgARIgARIgARIgARIgARIgARIgARIgARIgARIgAQoxOA9QAIkQAIkQAIkQAIkQAIkQAIkQAIkQAIkQAIkQAIkQAIkQAIkQAIkQAIkQAIkQAKJRIBCjEQCyd2QAAmQAAmQAAmQAAmQAAmQAAmQAAmQAAmQAAmQAAmQAAmQAAmQAAmQAAmQAAmQAIUYvAdIgARIgARIgARIgARIgARIgARIgARIgARIgARIgARIgARIgARIgARIgARIgARIIJEIUIiRSCC5GxIgARIgARIgARIgARIgARIgARIgARIgARIgARIgARIgARIgARIgARIgARIgARKgEIP3AAmQAAmQAAmQAAmQAAmQAAmQAAmQAAmQAAmQAAmQAAmQAAmQAAmQAAmQAAmQAAkkEgEKMRIJJHdDAiRAAiRAAiRAAiRAAiRAAiRAAiRAAiRAAiRAAiRAAiRAAiRAAiRAAiRAAiRAAokixDhz5owcP36cNEmABEggUQls3v6nfPHDN1K4QMFE3S93RgIkQAIkQAIkQAIkQAIkQAIkQAIkQAIkQAIkQAIkQAIkQAIkQAIkQAKRENi9d48UKVBI7rmlvO9miSLEOHnypGzcuFFSp07te0CuQAIkQALhEhgyeax8+eMSSZUqZbibcD0SIIEYJ5AyZUo5ffp0jJ8lT48ESIAEoo9ACvXHzpyi/Y2+K8MakUDSIpAiRQpTYQzoYSEBEiABErhwBGB/z8AGsz194aDzSCRAAiSgBGh/eRuQQOwROPVffGzZ7M99Ty7RhBibN2+WSy+91PeAXIEESIAEwiUw4cOpMnziODl96lS4m3A9EiCBGCeQLV9uObR7n5z6998YP1OeHgmQAAlED4FUKoLLki+X7Nvxd/RUijUhARJIkgQyZMmEaLQcPXAoSdaflSYBEiCBpEogXcYMkjpdGjm890BSPQXWmwRIgASSJIE06dJKevWBD/6zN0nWn5UmARI4l0DqtGnkqpKXy1t9hp77o2sJhRguIPxKAiQQPQQgxBgxabxkyZMjeirFmpAACZAACZAACZAACZAACZAACZAACZAACZAACZAACZAACZAACZAACSQ7AhhYcHnRkhRiJLsrzxMmgRgjQCFGjF1Qng4JkAAJkAAJkAAJkAAJkAAJkAAJkAAJkAAJkAAJkAAJkAAJkAAJJFECFGIk0QvHapMACcQlQCFGXB78RgIkQAIkQAIkQAIkQAIkQAIkQAIkQAIkQAIkQAIkQAIkQAIkQAIkcHEIUIhxcbjzqCRAAolMgEKMRAbK3ZEACZAACZAACZAACZAACZAACZAACZAACZAACZAACZAACZAACZAACcSLAIUY8cLGjUiABKKNAIUY0XZFWB8SIAESIAESIAESIAESIAESIAESIAESIAESIAESIAESIAESIAESSJ4EKMRIntedZ00CMUeAQoyYu6Q8IRIgARIgARIgARIgARIgARIgARIgARIgARIgARIgARIgARIgARJIkgQoxEiSl42VJgEScBOgEMNNhN9JgARIgARIgARIgARIgARIgARIgARIgARIgARIgARIgARIgARIgAQuBgEKMS4GdR6TBEgg0QlQiJHoSLlDEiABEiABEiABEiCB80wgY/oMkilDRvln3x45c+bMeT4ad08CJHCxCaRNk0YuL1pCVm1cJ6dOn7rY1eHxSYAESCDZEKD9TTaXmidKAiRAAiRAAlFFgEKMqLocrAwJkEB8CUSzECN/7rxS9Z5KIU9t4/atMv+bRSF/5w8kcKEJ5M+VR5pUqyOzFi+UHf/skgZVn5GxM6fKlp3bLnRVYvZ45a+7Sa697KqQ5/f18qWyfO1vIX/nDyRAAiRAApETSJEihYxo10tKFC4qsxd/LEeOHZON27fID7/9op+PBnZYq9ITkjt7Thk8dVxgWagPZS8vLZXvvF/GznpXtu3aEWq1kMtrPfiE1H28hrTo31V+Xbcm5Hr8gQRIIDoJXFn8Uil/3c1SJH9B4zf/qPZk6epfg1a2ZOFiUkXbhZXK3SvdRw+Qxcu+D7oeF5IACZAACfgToP31Z8Q1SIAESCAxCdR97GlJmyatjJs1VU6cPBnY9UPq2xYvWERmLJovO3f/HVjODyRAAmcJUIjBO4EESCAmCESzEOPOsrfIKw1amVGO7pGOKVOmlNUb/5AmfTvFxHXgScQGAdyXU3oOl0w6SheOdfYsWaV+z7ay/s/NsXGCUXAWXeo2l3tuKneOXQB7lFEfTJT3Pp0TBTVlFUiABEggdggg+8TcQW+bE4JPBmEGyq49/0iv8UMCQojRnfpqIKmoPNqithw/ecKsE+ofK6R4bdxgWfTjN3LfzXdIlXsryfBpE+Q39fH8it2+zaAe8tOaFX6r83cSIIEoIvD4XQ9I0+rPC/w3p015d+EsGf3h5EBNb7m6rDR68jkpmr+QWbZr725p1Lu97D2wP7AOP5AACZAACYRPgPY3fFZckwRIgAQSi8CAll2l7OVXyxuT3pS5X39mdpshXXr5oN9oSZ82ndR5paVs/Wt7Yh2O+yGBmCFAIUbMXEqeCAkkbwLxEWKkTJFSHrvrfrn1mhvksiLFJb06Du7y957d8vuW9TLjs/myZvN6989hfbdCjDEajJuqQTlnWTTqvaBCDATzsmbMLPsOHXCuHvicPl06Qf2dozcDP4bxIXPGTHLy33/l+InjYax98VaBM3dG/zt2PHg9s2fOKvsPHzzvqbyzZsoih48eSfT0walTpZKM6TPKAT2H+BR0KJ06ffq8XMeCefJpZ1J5yaaMv9XsDMmlc6h0iVLyxD0PSqmiJSV3jpznXJajOmL6j60b5Ztflmqj49N433tWiFGrczMdPflX4Dh333CbdK3XMqgQw+s+9LMZgQOE+IA0rem00XTw8KEQa1y8xV7Pud95ez0jeP4wHcABPWe3SC7Ss02oTY70eAm1HV7H82PqtS1/I4GEEIC/dN8td6j9LSFZM2c5Z1f7Dx2UteqLffzdYvlG30vxKVaIsUwFD61V+JAnRy7B6J1nH6oqew/ul9rdWhjfKmfW7DrSJ02c0TypUqaSzBkzCurhLGlSp9HO1YKyYdsWY0uqV3xUM0k9K+2H9JQfVi13rqrbn+t/hSvESKidSeizndh2x8s+x4EWA18Sm51FktBravcTa3/xbsdzVebSK8zIvFT6vneWM+o7b9EA8aoNf8jkBTNkz/59zp/D/pw3Z26Z+Opg06bqqUKs71b+LBidDQE+Muo0VaH9KhVjXaP16N+iq5z496SKtb6WH1b+orbhlzijCHFQ2JizfklcGxN2haJgRYjb0HbYr23YhPpWoU4nsW2Hl58Zqg52ud8ziLqixLfNbo+TlP76vau82jPhnKff9c+m/kMo394vtpDQuoVT/1hfB77TU/c9KtdfWUZKFiomafR7nKIi2O1//2Via1MXztRMYjvj/BzuF9rf4KSC+ZnB14zfUr/nL5K9+tmKhNjmSOqRlNb1e+f4MfU7Vz9/1cuG+vkwtK9+9BP+O+4PCNRuLXO9XBqijwODD9Zu3iDTP5unfR0b4nXQm6+6Vvq81MlkTH6++8vG33ukfAV5+ZkGslTbvm21DRxu8bunk5JNC3bOiWkzsf/4PEd+jIPV273M77hetudCtA3c9Y3W7xRiROuVYb1IgAQiIhCpECNrpszyWuN2xjn59Puv5A91QI4eP3bOMfPmyC03XHmNXFPqShmvKafdQopzNgiyIFwhxrWXXSn9mnc2ogPbKbp7/14ZOHm0fPvrT2bPl2iarzbPNZLLi5U03zfv+NP8vmL97+Y7An2DWr9qPjtHcD7Ztr4REtx1/a1mNBYargiOrd60Tl4bO0h2awByUo8hJvjXuE9H41D1atJOihUoLOgoRlBwbJfXNTNCNmnSp5NcUrCwtNZ6dBjaS35Zu8osx+9Y7+Hmz8lpDXA6CzqWb1PBiyl6XAhMvl/xs4yaMTGoyAJBzNbPNjTBU9QTIhiMVEWjHeXB2+6W+lVqmeMeUzHJgm8/lxHvvy3v9RklGTTglU7TpNkCDr9vWi9zvvw4ojpj+4duv0eer/y05MqewwRLv1+5TAZMGq2dRJdIj8ZtzSHssSzvsR9OMfeT13WAk9JUp/6475Y7TUcP5oUf/t6EQHpipC0e0/l1s3/s1x6jh16rz5d+a7i0ddwHqzaslZ4ThspOnUbk0Tvuk8ZP1ZGW/bsFxEPo9L9dp8J46KVn5d4bb/fkkEU7iSZ0e8McZ6iO5kV5pX4ruaVMWen71nD54qclZlks/lP74SflWf0fHXT4H9fFXTKky6DPXwnTWYjgepeRr5tny72e3/dwhRjv9h4peTSYj7qgwxD3w9wvP5GR0yea5wz3UrPqL8g9el2hPkcH4bSPZ8u0T2YHAuAQfKHYexSfh2i6/Y/0uYHgpo0+a9foNClwkGFzhk0bb+7Fm7SB9WqjNrJ+6yZp9noX06nwjnY4fKKdoG9MHiO3aQOva/2XZbsG0F4e2D2i+wb2AgKrpv06ozpSKE9+Gdu1v7z/yRwZP3uaWRbqOYdYxs9WIiViqGcEHaytn21gbDs6UBEcn7pgpnbGfGiO6/xnaJsekj9XXqnWvoFZ/ELl6lJNO1m/X7FMXhn9htpCb5vs9yw7j4XAMZ49PGND3h1vfqqkNuilGnUDz56X7YB9ntJzmLGHdnvYsGa6fR+1D81rvBjSPk6Y/a4vU2dd+ZkEEpMAggMd6jTVLEG3y+KlS+Q3facFEyiic+/qkpfLnerLQIzx+jsj5bT6CJEUBEOQEcMKMey2zfU5eUwDV8P0vTfj84/kdfXHihcoYp592MZ6j9eUx1WkBzsLe4xOVrxza3ZuKk/fX1lqP/qUee9iKq9rS5W2u5XPNUNGD+2gDeV/IW2rnxDDy87guX9P3xOpU6cO2HjrM7w6ZqCxJ37vCT8fzcvuwE8c3q6nfPDpXHlr7vvGPxnZobfM/HyBvDljkiCIPl7tGjqfh733luHiZZ/dNhcCwffVt/vip2/Ne6eCZpLy8j+RyQtZB+C7p1Em8AlRFnzzuQx+N+40M26bCW6DWnc359Bf763PcO30HVju2pvMPqw/hvdslTYvaiAss+97z4udn782XUeVhfJp2w/r5fnuh0/QtnZjU2/8c1Sn4EFbZ4xOM7dOxaSxXOCjdW/YRtQJMr7sJp0C8tTpU3FOGWJ2TCNyh4q/cB9ARPGjSzQVZ4MQXyDgel79ArQRJ300I7AW7tNO6nvP01GCA3S0YO+mHczIwSkq+kidKrX8rdkwICbbc+CsAARB5la16pvBAbgPESTHlICf/vCV2Weo+/DJdvXlg76jtY1yQmp0amL8QgTeh7Z9TZb/vlIu0U5QtM3Cadu1rPmioH1YvUMjc0yIsVupf/jtLz8aG+Z3T6EDpnG154ywDc8t2mcLl3yhNvUtw9/vfvdrn6Bt6WU7AvAdH7z8X6wWys/MrIMhEmpXr9eRos2VaeG8BYx/jWmr8M7C9FNedqzbqNfP3r9aP2vLrf+ONiautVc7D4JuPPudh/c9R0QPe/R+nzc1rrBU0MZ7t9cIc51efLW1aZt30/Y6Bqjgfn5fbbqzwDaX1vevrYutm73Hn77/MdM237Bts/rGRc2meJej7Yr7HSVUuxrve8uk47De8vPvZ6dmfFmfiYq33hmILfhd/2r3PSI1HnjMPNPw7dFmHjx1rPx76pQRSHnFFrzq5nfvm5PjP4YA2pU9NcYGu/qZ2i9k0zypArS4JYVpfyI2BB9ioLYpP/n+y7irhPEtluyvX2wNPqTfO93Lz7yQ9tfPt8qj8VXE8bxsRSjbjGcZZeDL3QK+trVJP2vspqPaPduexvMfLJb10tMvhPSt0Lb3akuv2bRB3uo+0LS1g01d2KdZBxNTQcyth/ohN5a+1th9ZMu7V/0CxHH/2LJRXtK4irPg+rRUe4dizwc2dt/BA1K1bT0j5vSLfXi1FSyT+MYYUC+v+KyfD+NlX/PlzGOY4hgop/QaI+aLKZLxfmEJnwCuM/o4IICDTcW9duxE8D6OGzXOB7EyphZ5V2OH8SmIVyPWhfc2hMgj2/eWy4uXlE76HObW+HlC72kvmxbOezmU74w2HPoYvHyKC2kzLXs/n9XrOcIA44ba/nWWr3/+QQZMfjPB7UWv4/r5fn5tgxmvj1V/IatMnPeBTJhzNmaNc0Df2MBW3c3pVGxcwwyEiZU+CgoxnHcpP5MACSRZApEKMTprcOwK7exvN7RnWCr8R8rDOa4nbQe/dk5Qww9a2EIMDdyjUYGCwBXUyBU0vTWc8RodGpu/E1UsgU5EdEAgEPNQuQqmcfts1+amYwBpbxHsQ/ly2fdyVYnLTGfBoy3rGOXkO68O0uwJJ+RD7WQokq+g6cz4+pcfpOuo/lLzwcflRe1oWLFutbQY8IoM0yAenBMIK1poB15lfbmjEYHU2why1HuilrQe+Kos00AfeKJxgXJf46fPEWIgKF+iUFEN1M8zwoObSl9nUvO60/ZiewgBMC0GOkvmacaB9GnTm07vP//aIc91ay43XFFGXm/RxaTyXfjdF3LL1debztDhGuAHE3Sa1tBzQfldBRzLVq8wAaAM6dNHVGfLEhkC5n+zyIhfrtN54LG/bjqnM0a8wrGwx0JHLsr36oTiWKGuAzJrvKz30iN3VDSs12kn9wMqLEmXNq0RvSD4WkYDXYM14IWCjukKOkIY1x1ilK+X/yhvvTLIdM6jXlk0WHjn9bfIShXjoFFnr40zxXn/5l3MqJQKjaqbDiOva4fG0OTXhqpw5RMZOGWM3KFzXndv2NrUxaZdN19i7B+ICtBw6fv2CPN8+Z0eUkv3UxU4MoUgsBppCVeIYR3y3/T6Qjh1vwYkoUbGMSGkgNjgQe1sh9joZ30WK2jgHIINCLjmfPWpqZbdB2xCHs3yceUllwXSCKIDDd8hSEOgtGqFhzXbTgp59OXnjW2BHYCtROfkV2orpmmHH4RPQ1SsAWcY90s3tR/rNNAWyX3z1isDdeqbjAGBw+U6An5kxz5ibYLXc45jednKYyePez4j7TRAjWcOc7ivUW6P3X2/YYoUilt2botzKd/s2Ffy584rjymP8ipm6t5Ag9UaFGmo6cQPHTksfjbZ61n+9Iev4xyrQO58huFcvW5v6PVDeVhHFrTSkQX22fOyHbBHuAbO7W1gp4d2yCJIEso+boSoz+P9Eyo7U5wT4BcSiCeBmg88LrUeqmLEneik8itl9V3cq0kH7SyaKu/raJ5ISighxlVqB4epPbTPD6Ymyaf+BJ59TDXS8YVm+uzv18DWVxoQvdIEmjB114PNasURUsBe1Ff/KIt20i9XoepYzYa2R22Gl//lJcTAyDMvOwMxGZ57FPgLKA9rQBfnae2G33vCz0fzsju51DcZ3r6XTPnoQxmr1+MS9fXGdelvRlkNV4FsIe2ERMaA2Ys/lkHaIYaOQC8fxmlzcS7wCWe9McH4tK+o72V9nFD+J+wlBGzo/IHYJod2BiHLiu0sxD5tcdvcTnqN4XfDL+725gATpIMQFT4WfL/1f24yQjxsf3+TGvo+ze373vNih45H+GOh/DWMLAtls0up2MDr3W8DY19oR8Rf6lcWK1BIR8fdYDJwQWAdqwVCKQSGkQ4Z979fFgI8PxAg3HbNjfLCqy9HPE1Ih+ebSkUVVdft0Vo2akYcW6ydgQ1A5p1PRky1PwX+wpdo+cYrAlG9vc+Wr/3N+CUP6bXPrAKKBr3aqXBmU+D3YPfhq9rZg5GPbQbr1EZ6n9Z5pJo8p/8PVUEn2iPhtu3w7OXLlVseb1XX2K+31U9Dh5ptJ/rdUxgB3/DJZ43QB9vce1N509aDyAWiJvvshrrfIWjzap9gkIKX7QiAdXzw8n+9/EwMgEiIXYV/Pl2Dy7DfGAiADjVc040qCqr7aqsAi2B27LFWL0g19cVDtTFLlyzlaTeqV6xsOjkRs1i6+lcHjbOjKGcOGCewC6+qQOLFx2pIzUpPmPbEV8u+k14aQ0B7+8XXWmubOm7nOe6Py3Qggn3PwKespNmk7P1hYwU4INaBwBsdMj/89rO0H9pb2+tnYxTB2tWt9d4Ndn9AEAlRHWILftf/HhWgdFEhCdoyn6nwDynTMXBl0vzpRlTiFVvwq5vfvR8HcjL+AlHtYO04QQaiTiP6qT31zjQEQdzzlZ+Samo7YOtgCyMpsWR/7f0fzCbg/od9hXgh1Dsd/oyXn2n3fyHsr59v1fzpuiauiGsdzFZ42ebpi+abW+SNlt0EcTm8H3doZlGIKn9Se9dG7Z49fqhYFgS7oXyr7zU24NWWRiwGtmS+CgT6q8jSXVCva0tdJYi5XaH2B+0KTD/WqE8Hga+NeF7z/l1N3M65rb0+xnf9z25j4AcKrn8ZbXd4tdMRLw6nrWDbONhvJDEGZIT1sqFePkyubDlMXDSU7c+fK4/ZN879B42jolP2LrXn8KMa9Wof74wNOMfkVrrWa6Hv6RLSbkgvFbP4ZxqqfGdFM1Cn9aBXAwLISJjZ9jHaW6N0kNjoTv3M8/hMl5cCMef43tMQonvZtHDey/a+DOY7YwCDl09pn8kLYTMtcy+f1c9PeaZSFXnhsaflFxWyQniPgrbQVTqALSHtRb/j+vl+fm0DDM4rocIhDHKo3qFhwPeEkK2cxl5RIMSAUBy2OZRdRz9VUikUYiSVK8V6kgAJeBKIRIhxaZFL1EnoKy0HdJPlf6z23K/zxw51mhhhQgN1CCMp8RFi3NvwKXMI+2LDaCqoNjGSY+YXCwKjpW3w/h0dhYiRiFCNdtMR6nZE5yv6GSNHIcRIoyOwammwZdmalbJkxU9mdM77fXW/p8+YzlA0njHaBZ2y/SeOMs65UYlqAHGIdsYiYIi0Yxi1Yh0TNBaRbtKKDlDpUEIMjAhCPVBu1KAKVN2LdeR3d+0gdBY4hC1q1pPJOrJsnI7IQcEInfJlb5Zq7Rpqx3NDE0xupul+Mfc6nHt0Dq/RhpEdXW+5OB2nSOvcVzvZkRHA3ifgg05rBHVe0CAaRtihwOHMpw0IdNbY4nUdMCpv3qB3NN35LpMCHcr+x+9+QF7SRimyenygnUo4Lo4/esZkVSjPMp0KUNBDiIGgRXsN/GKk0sgP3jGHHPjyK6bR91T7hhoQvsMzQOcMdAa7dk4hBkazosMcI39RbKeO+RJj/0BUsEI7AG0HeDinZ69TsA58v+0jFWLAAcW9gw7IAdrIR8o/BFFnDRgvu/b+Y+4lBE0hsMK5wPHG84qR3J+OeFcg5HhJG/42UGnnc4SgCCKgd+ZNN1VupvOcP3FPJSPqgbgHgpMxnfuZtNvtNMUgRllCiIGUv0/ptp+pmKCn3pfOoEc49w066tBh+UiL2sa2uYUYyMiDTqNgzzlG9NpgRDBbeVI5eD0jD9x6l+TImk2fn4mGaacXXjICllaa1cOOwrPXz3YKNtPMHSO0sxEjrF9+o7sZsY/pDPxssr1Hgj3LO3S0R0btaEGBQO5vHWXvDv44gyQYwehlOzC61r29U4jx+X/ZbILZR4zg92LKESn2juDfxCaAkdOz3xhvpmP6UP2bcAvsTx3NQoF3L6ZaC7fYDlJ3RgzYhOn9xgQ6jZxCDOsPtFAbCqEIOm8XDptsDgkb5H6m3FOTICuEl//l3P6YZmdz2oXC+Qp42pmF3315znPvtBs/aFDZ7z2B4HAoH63vOyM87Q7eLZEIMe7XTmsv+4yRtFb8BsBeQoxgPswY9ckgBoGIGJnusK8prw3zFWKgA6jJU3XMCE34knZKPGSMQmcjMp8gAwpGO95cuuw5Qoxg7z0/m433iZcQA34/ivP+gPgTHaB+19QGKG1nLDqCJ2kAC8KUiioisfs2B4ihf57UDmw8a7W7tQyaVSfYqaKDd6yKN77TTFcj/vOrg60XbJntKIYdOqjiTGeZP2Si6ViEqAeZB1B6jR+qmTd+0XbU48aHQic22ngYEQYh6Is92hi/xE5Th5Hic776xGQuC3Ufop0HQbwVG6FdAvE7MnkhsBlu284pxLDiLdTZdrT73VPIAHH7tTeakZXoDIdgDRlmkPoaoizbDnO2zUIJxYM92/epsMPLdriz2Pn5v15+Zk+9Tm5/KhK7iixxGK2PTkKI5iFAe6/3KM3gdNoIXSwLv3Z0sDam3TYURyvEQFAaHZPo/FqlbeQ9mvEOQm6nEAPvMrzrkJUAGUfALFgnIe4D6w/b9i4yrcwZ+Fbg/rC+NIS/8DfxXE18dYgRh1fW56PLiy0829UQxLvtoX2+EFvwu/7olIf4ot5rmslPO/QggsFc9YgPIN7gFVvAtl5t/lt10Ac6wZObPcV1j6Qg5tWp7ksmThLudCO45xDHgNAV2QgiKfb+iAX7a5/rUDbBCjFC3YPZ9Nn28jPt/kPZDb/4kN/z57S/NiaATv9gvpWfreioz2OoGICN9SGTG96TyPqLaQU/GzktqBAjmG9mO+zcvhXuPWfdbUzI2Za2QgzYS7y7ke1lvYowEReEX+UUYmB/Lz6uYjedJg3rI5bojN/hd1uCXR97f7uFGMFiH35xYr+2gp+/isFuoWxoXc2ohNhTKB8GMVwv+4p2j1vcAlE13rnd1SYsVpEgiz8BZIMb2aGPNNeBeTZbtv9WIhChF85b0IiFwlnfuQ4Eo5NeG2IGZiFuiKyVozS+9t6nc4L6fJHc099oNjYvm+bnk+KZ8GrD3XtjOU+fMqEx9UhsJpj6+aw2FhGqb6K8Zm+EEKOlxikh6kZJjPZin2YdPZ9f2FEMBAzl+yHG69U2QAzCZnuHTUVbBnYY2drBBMUtxPCy62aDKP+HQowov0CsHgmQQHgEIhFioKP/uYerCdK5ugsCEegUd5bPdPTjSk2tidFGSG/1SPPagZRxzvVCfY5UiIGUcUgnjWLnXkOKULxI0fFgOwLwuw0w220wHxzS2PeZMEw+1nRkTiEGMjEgawUCNEjHi1FjKBBYID0XCjpd0fEerLyigcQvf/7e/GQbC51H9JWmOi0COjAQ4MFLM5QQw75gnfvuqulXv1Yny1ka6bzqUIDbDlj8hmAOUvliZJtVijobfBAKIOhn0+kGa1hFWmcETRFksuIR1MM6fN11VObiZWdZBAuSeV0HpOxEMAvFngM6otDZABEGxBh36ejLbjoKc5BmpJitmSkwutMKMZDu1WbhsNsjsAZGYHaNqvARyELDECPjUHDvojgzYoS6dk4hBgKGSNWOxiVEObEqxMB1nq0jbhGcQIYXZ8F995xOV5IlU6bAYowWw4gMOIfoDME1W6BZbCIpkQoxbKMbx0DgE6MrIMwZoc4rMtzY1Jv4HQ4tUlM/0LSWZNWMKTP6j9UOhp9Muk63EAPPfIMqzxi1NNIZ2vKyjtLEtEModsSc/c35FyP3EOS1gQuolMO5b2wWHWTugP0qr5lXcI+/p6PooKj3es57qX2DaMDaPdTHaSsRfPV6RiDgQnpNdB7aAttSVYM5xzWVtrO8032woCPUFojUEFRHaai2ys8mez3LmEPT2mGkrG6roxe8Av8Q13jZjg8/X2C2R93QoYRin33bOMKyYPbRCjFCMXWmXMc+WEggsQggaDNERaBV2tQzgXjnfvFue+7hqmZ0pV2+XEd6fKFBOWT+gQgz0tFSoYQYVqT7pe4bnQFOIQbsAOwj7J0t1kaFI8TANl7+l/OZxLRnTrsAgZWXnRnz4RRPu4Gpo/zeE1Zkas/N/oWPhmwKXnYHU69EIsTAFC9e9vklzcCGUdfWhsE3Qjp8ZHRyZsQI5cN01c4+dExDaLN01a+SM1t2Qee87aS254a/9r3lXFajYxM9578Di7C/u3WaD2QJgBA5lBAj2HvPz2ZjtLCXv2bFEs77A0IMjLL0u6a20yZwIv99sPe3e3msfEdnLwqmQ3CXcioSQCpmW9AxMlkzuWB6EPhBsEWYhi2S8po+r7drNo2aOi0IphmyBcHpj4dPMVlUJqrQFZnlcD3hh6Pgd3QSw1dH+wqjZp0dNPAvkRHjkLbdsJ3XfYh9TX99jBGkNenbUYOXQwMdUjhWuG07POfIiNHtzTeMj4XsDUh17hZiYJ/OYu8pjC7E840MMmiXoV4oSC+OFO62HRbf9kldnSrSy3bAt3MWCOC8/F9rw21bCtva9iQyQ3r5Y+HYVdxfGEiAkb22WH/dsghlx7AtSrA2pt02FEcrxLDHxF+I/tFmwGAMpxADvzn94Vlf6LVyTeGEdVBwfzhFcm4hBgTWEMHV7tbCiMGxTWv1c5EJBJk7B2g2S692dUGdotBLiOF3/ZENQxtm8vR/U+vg+Hjf/3vqX8G2XrEFvzZ/gdz5jRAD+3QWe+87lyXnzw1UrHK1CrAgXncXTJ97z3/ZU+1vMxZ9ZO6VJ+5+UJ7WbKs2jmN/9/sbS/bXPtehbEI473QvP9PuP5TdsEKMUMf3e/6c9tfPt/KzFciihhLMNtt7BHEAtF0rNXtGTuh7NJQQI5hvFo4QA8e3fqizLW2FGPjdWTAND+IT/dXOXaf1su96iN3GdxtgpmCFb1lHRaJ26hHn9vb6OIUywTqtQ7XT/eLEfm0FP3/1jL6TQtnQ4ho/9/JhpmoGES/b//vmDUaI4eRhP1vf237n39AE0IcB0Q8G5rkL4riYusJZPlUhP57bcurDdmvwsunjwLMUaal670NGyI7tEEfD8SFMTug9jdiTl02zcXl3fZ3vZS/f+flHq3v6lAmNqUdiM3EOfj6rn59SJF+hc4QYidFe9Dsu+tW8fD/YPa+2gRVi4N7ZrgMekDWuqQ6MqKL3lS1uIYaXXbfbRPNfCjGi+eqwbiRAAmETiESI8byOoITKGikQg5VnNT3289pgR0E60UEaPEIQzAbpa3RsbALTwbYNtixSIYYdYY59IWjYo1FbQcYLpOfC3KeYfgKKUxR0mk/tNTyQWQKp/h5TJ6xF/246anN1HCFGUR0pDycZwotZixdo2rBd0uF5pNr+vxDjdp2rE9MzBCuYPw4BSxTrWGGeaXAZO3OKGYVi04faAJLdj33B2u/271wd5fWGjvZyFsztjfNs0qejmYrB+Rs+I70vgnvuEdpQYdv5bN1Ba2wXaZ3f1Q4eZBHBvIy22FGudt51LA8WJPO6DmisIKsAivscflERANL32qwg9jhOIQYELZg+AiMM7H2AfSHQBMHOI5qSHIEslNX/BSWR5QTFKcQIde2sEAOjiTCibq02jtDxjKl5YlWIgSwSb3cfJKEyW0DJ269FZzMNDBqqyIiwW4VHKBgBgGk9Ji84+2yYhWH8kxAhBtK0Hzh0wEwpNK7rgMBoQ3tYzM94adGzQgxMjYH59Wzw1y3EwEhhZHTBvbhG75fHNBiGTjCnEMOma7f7d/6Fs4xgvQ26hHvfYKRkbx1ZDNGEs2DapT5vDfd8ztfqfJcIwISylWjsez0jaByicwHsbEG2EWQQgcjGWWywyC5zpvS0tsrLJns9y8iIkUJHx6D8vXePGSnjFfj/Szt5vGzHqo3rAkIM97MfrhAjFFNkXGIhgfNBABmkMO1HJZ1P2e074HjwoTpr5yqma/tZO5E6juhjMshAJLdg6CS1g6/rfPc/hV21UEIM+6wijfn42dPiCDEQFM6sorYnWtcNHMd24oUjxEBHl5f/5fRZMDLMaReq3FvJ0/cb7SPEwHQJfu+JUEIM+GgLlyz2tDuYxzkSIUaTarU97XP/Fl3NO8jasKw6xQumN3ELMUL5MHmy5zJ+ceBC/fchXCFGe8389INmnLIFoxuv0Xlq729a09yfwYQYod57fjYbaVa9/LVQQgz7/rKZBmxdne/+UJ02EAu8qNNo+E3ZYfeZ1P4OUn9nrU5LGCyzBTpEujdoZQSKsDV931ZfQ/03FIh1qmg2MGQ+iaRYP6DLyH4C0ZQt9hrhvp2v0yz20Sx3mA6t3dD/C0CRRhxiWcytPVTbZ1aIavfh/Ot1H6KT3U65BtEt2rj9dfq6+Zq9DCXcth062iHU/0f9EaQKx7Qp8Dn8hBj2nnpG288IjCNLDjq6IF7DFCluIQbqZJ/vSNonEOr7+XbYty12fulQ/q9XexKDBLz8sXDsKu4xO7jA1mmV+tlNVTQfbps0WBvTbot9BuNohRjIfPeTvjOvU4H+y8/UN1OxvvR613OEGPj9Dc1IgPKRtvdeV8FxsOInxMBADoh+nEKMl2vVN+1SZJLEqEqvdnUBzV7kJcTwu/5jVAiiARt5WuM07mKf01CxBb82P6YxQEYMd7H3fqzaU/f5+n1HJoO0adIZ0aR7XYjLWun9AGEOyhidtm3qwlnm81k/r7lO9fZMUD/QrBTkH3tdY8H+2uc6lG/j904vps+el59p9w+MweyGFWKEOr7f8+fMCGVjAs5L5vSt/GwFMnF6xfpwLyGrLwoyYuB7MCFGKN8sXCGGmxPa0laIgSmXBk0ZK3lVFN5KM6chloSYSDMdoGanJkH9kA0JsSLE1yAsQawpmL2w18dPiBGqne4XJ/ZrK/j5q6U0/hgqPlta44xePoyffUXWImTECFaQjfVHh08ebB0uO0ugrmZDuPHKa0NmtqitA8tqaz8ICkSXmGYY7QzbWQ8BhVP8dHav/v/iHp8/eKJZEdOy2SmbE3pPY7pvL5sWSojhfC97+c4QYHv5lAmNqUdiMwHPz2f1e46Q2dKdEcO2RRLSXhyv9svLd0N2Ui/f7/5b7/RsG6CfCHWHXX5UB0xDnN5Wp5Hes3+fGRiB/iWnEMPPrvvfsRd/DQoxLv41YA1IgAQSgUAkQgw09jpqKnpkOoAqPFhBOlGMisF81jYQijT0Dao+I4+/XFfO6H/hlkiFGKgTRrKjNNaANYKDSNOExEwYQY25FEfqiHEUzCHbSNfBaCtMYYFRUBnTpzcju+HkOzNiPKRZFbDuYD2nWTpXt9NpQkcCAmbju75hslsg7eHzlaubLAhI8YkgPhpEjXV+Q6RZtY4V6rBh22Zp0LO9GSXoJcRwpr3GqKmZ/cfJKQ0eOkeYYn82m8Rbc6YFpkswjqWOYkO9XtVRZVDAI5CFgBYKRlls084A2znu7NTA6EGUSOts0+XaoA0aeUNav2pGZjrngnYHydCx7HUd0Jn0oZ77Np23Dx2//2pKdaQqRKAUnUkI3NmAqj1HpxADnczNdcSo8z7AyOD8GtBHGjp7ns6GnD0XpxADTIJdOyvEwO/onG7Uu4NJF4YUgbEqxAD/uQPflgGT3zSd+zh3d4EYA9lmuo7qH7jPcK1nD5wgXXQe3O+0sRBJiVSIYTPN2MYu0g1DqDNTM3Js17lRn9eGPYLxCJ4juI/OMQRD7b1kr51TiIF5UDGiHHMJIo0yiu1ctGntrP3apRln0BhGMAFTk6z/c5Oq35839gB2IU+Os/P2YR/h3jcI1GCqldzZc5gABdJuw45hGg870sU+A9ivfc4La7ADv4eylXjGvJ6R9rWbyEkVLsGuoiDjCRoRyM4xR9OoOosNPL+gz+qojn3MVEhDdLTgTG3APqLBRC+bPEFtmOVvz8P5LH+q07o4iw1cOcUezlTYuOZetsM+u87tnelUw5maJBRTt2jMWW9+JoGEECiUN79JX47O4Q0qGghWYIfwLHTVxrnNWmMDR093aGymZwq2XbBlwYQYyHozvF0vMwL9JR3JiRFCzowYNh0obN2aTesF0zx8pCIQFC8hBjpY8W6wvloo/yuYz2Lr7mdnkI3Jq8MQnb9+7wkbBLEZwJw+2nPdmnvaHbwbIxFiYESWl322Ntemvw81NQn4BPNh4CPZDCYYlQs/E9kjvIQYsJk/q6+IEdWHVKjXWLMKQJSHjvsPNNh/VEfp2FHWwYQYqEuw956fzYa4193x6PTXbPvDfX+Aid81tQFKm8Ycdeyo4uv7dPo6Owc9lsVawfRqGJkFwWywgmvarX5LI2C3Igys16FOUzN6vosKuyIpVjC/SjMnwo/CFHFoLyD1OkbyIWMaxMxzB72tHeE7pLb6avDzIS56RwXAEDt3UDuBzA0ILtbv2da0OxGQxZSF8CO+X/mL530I3++GK8rI6zoSFwXvcWT4wr0cSdsOzx6EuCgT532gqaXnxpl6wu+eQgAYc1FjGgoc27bn3EKM+LZP4M942Q5Tccc/1v8K5v/OVfGxl5+ZVm18Quxq99EDTTYndCSgYwL3BKa/wb0J2+YM8AezY7hHUNxtTCzza+dZIYZ99nFsjGjMqu386u0bxRFiICMjBMcQQSD1PL63GdwjkFERx7PFbZtha51Tk0DkdIe+q222S/jisMXIooF74pV6L8v1V5YJDLRAvZzt6luvLnuOPXSOCPe7/vZ6WlE9jo8pL/BcIbMj2nChYgvdfOp2i05H5ZyaBEySgz211z7cv3inVdZ3fK3OzYJugmsOMQZiIFaEgRVf0AFQmIc+1CCpoDvThbFkf+1zjXMNZhOsEMM+11jPeQ+WLFzMM85n938h7K+zPRvMt/KzFT18Yn24VzAtshUJ4r4KJsQAo2C+WThCjFBtaSvEmK/vkP7/xRGswLjT8D4qVng0jhDDTvl6TP1IZLtz7hf1syXY9XHavzI6gMUr9pFCd+QVk/BrK/j5q5XvqBjShvYaN1je1mmoQvkwj9/1oKftP6oxa/fUJPbZRqbVgZohmMWfAKbqaacxLrTlMEAvWIEYI7tOUWhFGFgH7cy6ms3MOdgg2LahltnnD7/bdjI+J/SezqhxVq++Cz+fFHFxrzYc4gpePmWw+jvbaFa8hnMNZrP9fBZs5yx+Pqs9dqi+CWQ2cQsxEqO9iCwrXr5bHRVce/l+fdRWe7UNbAyisQ7ChUgP9xMKYia363QrmNbIKcTAb152Hb9He6EQI9qvEOtHAiQQFoFIhBjZNFUpRjfO1LnIMeoxnALHeUyX1+W3db9LHx1BFUmxHZlO5b/dHp2eUFs3UVGBTQ2P3zB6By8hTAuBFGE1tKMBf9HBj6AanHg49E/o6C0EaxBUHdK2h92tCaDhy7PqbKEgmwVG7yDbBTpUkbLr5tLXGfUifkcHPUQbeInaEekYIYk0Zphn22aCwMj3hr3aqzjkIRMsQZAYgW4IIpyNBRtAwr5RbEYMBEBSpkipgb4ScpsKD/7Qke3uRjdSkU/pOUyDQWlNpzjmfocIBumxa+lItXs0RTSmNUCK6Jmaij9H1uymgwadya01eITiDlpjmXWmwq2zbQBgCohvlv9ohDlITfjrH6ulxYBu2KUpziAZRjci2GULApkozuuArCK2AQpuS35datTLUM+jI/gKHTn7oIpmIKR5QqeMgVDD2XmLVNtvY3SuBsAwcmm3qkUrlbvHCGiqtW1gPnsF9q3TGIqD7cxFvad9PFswB5uzM9g2XvF7LBWkrkOAFPcjAunhFExN8cBtd8mzXZpr+ujD4WwSWCdSIcYynWZmxfo12li6T3KpcAFqcwR3bbaKFZoBZ+O2rXJT6WtNdgqIBfDcIGMNCgQOJ/W8kCIZqmWIljoO66vZMrqZwMD8bz7TFO45TIptrI/RRbg/Ic6CzUFwYZ0GMyHcgBADI+YwUvIqHQUxRbOBzPt6USAbQ3zuG3TmjVShw7s6Omq0jpJCB0ao53yipipEMAIlmK3Ecq9npF2dJibghzmjMQoDdhTPbrBRF87AM851YKtXjHCq3eCeskZH3YayyRDBYEoFr2c5lBADdhGjWlEeUFuA0TboFETK8dY66gZ2OpjtWKr3iLvjIFIhBo4ZjOk+zcDCQgLngwB8HXQEQTzWWe1OuKWvjq7FtGj1ewbP4hVqP1aIgd+RResytZEIEGB6L/iFQ94dbzZ1CjHuu/kOk7Vj9769OoL+SxNkxUhuBAIQHHD7HPadDREEfKqjmuXCy/+q+cDjGgSrYabHsuJRW3/U18vOQEjofu7d72yv9wREZX4+mpfPAnEuhBg7VBCI7FAI8GFEC3zbpTqKDZ1/8GVRYGNh37zsM0QvzvT3oYQYoXyYFtrZ9ogGjCfre2KcZgmzU/j5CTEwF7idhgv2tqem8W+u+4JPZv1inEMoIUao954XO6SS9vLXcI4o7vsLy/yuqQ1Qrly3RpauXm585Qduu9uIiJ7t+pJ53rCfWCsQJPRr3lnvtdf0vM8Ksf3OEb7fKJ1Xe9CU0epXfeG3+jm/ozP5ahWEo52FbHXwpZBFZZe2WyBkgk9p57P/WTPfIbMP/HZ0VlkBqE2xj1G2m7b/aeZbzqX7wfzo1e+v7HkfQogBOzp/yERzfdFm6TLyrKDE3n/2HvZq2w1Tnw5CDGR+e7FHG2MTnR3tfvdUbQ3GVrzlTjMtEJ4hdMiiwC70mjA00A7z6wgM9Wwje4iX7XD6KbDfXv5vO50KrnjBwiH9zAFqDxJiV+Hfzeg3Rk7pFI8QzkMA9OR9D8vRY8fMAAS/tphtRzvbmPbGs+3ZUBytEAP2Fz4u3m/X63OB6ZpeHTMojhDDdhIirvCJvqsG6b2MqT6RwcI9atvpD6MubiFGCx0kYK857C2m4ix7+dWCe7r90N6BTvNQ7Wp7Xhj9jAx9KLb9jDbNF0uXeF5/TDuE7Fo7NePnYo1zXFG8pImtINPMlAUzPWMLGAyBDKSh6uZ378N/YRHBFL9jVHAEu4Y2ajgFdm68DviZobGvt+ORfS9W7K9fbM0KMUK905Fx1cvPtDYnlN2wvyeG/XUKMdy+FYSu8LW8bIVXDODLn7+TFjXPZqtdrlOo/vrHKr3NUqitqGpuN2T0/GvP7rBiEsF8K3fdsVNnW9oKMWxbHe/7B269S6dlPWPilBBh2owYEFQi29DfmgmjgYosIfiGXQwmdrP2z3l9nLFVK8RAfYK1073ixIhJ2LaCrTf2E0mMAVMye8VnMX03pmlz+zDoNMYUgV72FYOIbEYMxIrTaVadctfdZOJVweLnqDvLuQTQ/kIfB7IfhJvJFIPKxmofB6Yjtpkszt1z6CXl9Tohs2UFbSfDx2it0zzbktB7+qoSl3naNOvrBLOJbbUNUFftjFcbLnOGTJ4+Bfx0rzZaYtrMcHzWArnzeD5Hz1Sqco4QA9cioe1FZNXwen79fL8OminLq21ghRgQEPVq0t5kLcS010/pNHMYgBtMiBGqzW3vvWj/SyFGtF8h1o8ESCAsApEIMbDD+9VhbvtcI6PGn/TRdJPmOtSB0GnZRtfFaJEXurcyAoBQ6wZbboUYQ3SKk5k6T66zYIQUgnZuIQaC+8hAgZfQ6xNHquL7R7MZAmQYzY2gIQqCDRjVjVEsg3WOda+CtN9Ndb4tBGIxSmTfwf0mYI5t+uichu31JYlpSjCSBCIHZ7AOzvsIDbSX0s7SYdMmGJEEHBNnp4WzsWADSLY+C4ZONgE9fEfAEPXFiHp0eEA97S6YtgApqdBYQYPwD50CBSOaENhDwehSBGcQBELwEQF/TGeA4CEK5hpt9vQLcTo1rDMYbp2xH8y1h2lq0BGAc4JavO/bI8x80vgdBUEypM5GKlRMA+F3HZDeGk5vS21Elr/uZr3OKbUz57R2bi9SdfIEeeeVQZJWRSjD9bMdwW47dTBvJ7JmICsC0iBCKAM++7WTFKPuEPiz5+lsyEFBe6U6sxDV2N9DcbBCDNxbz2sgDqOPIX7BvNvojF+yYtnZE4+xf9GhB9HB5h1bjchg266dIc8Q2WSg/n1SRz28pvOQY77OSAuEGJh3/sl29U3gz24PgRTS99rgPDIgQAgBW5BF7zM8P/M0zfVQvT9wT6KTDql/YWcwihkdfh9o5yIaYBgd4lV6a2AcQqeWuj3ucdgd7B+jvYe/95ZglDg60D7XVHE99PmDSGqGzkOO0Y04Pu6/0TqCEvahuU6ZhLSU8b1vrBAD0+tgTkiUUM85gh5WiBHKVno9IxiJCtV5aQ1Ow35g9CjmKYboyF0wmg6236Y6flDtJ2wTbGW1dg2kROGiQW0yOlMx7Yvfs+w8ng3+OJc5PyOY8aeOIgtlO5CSHx0Hzmw5FVTQ0knvNTsyH/sLZh+dQsBQTJ114WcSSEwCyG4xtN1rpqNlmNoevNNClRwaaML7vbyOkmikGSqC+RChtsVypxAD9/qRo0eNHzZHp+FwjpBHUAQ2D88+7ERDTWEK0RbsLHwk/AZBG+yA+5lCRjX4TPgLMUbH4X01cPxiUP8LAdIbNe2m22dxnkMo3w92xtoN53Pvfmd7vSfgQ/j5aHj3hLI7SIeNjpdwysIlXxgfyss+u21uKCFGMB/mqQ4NZVqvkUa4iyxRmIcbgcnp/UabrAQ2C5Ktq5sdrnPPxm3N1A5L1NfCqEv4n+gMR6pbFNuhfn+TGoFMUF7vPS92eMcFC/JZf83W031/YbnfNbUdh3YfEG/v1s4ABK+QDSCWC9psCA4P1TbGoh+/1Q6Ss9kF3OeM6w2fC6NI0RaDwDKSjId2f7gWL6lNulOD0RDuQ0ANwQUEqzbNM+6D1nqc23XKSbTv4Fu/9wl8tfeMHw8/DyMZIabF7+gQHq0+yU4VcwzQTBde9yH8NhS0KVEXK9S17/Vw23YQeUJAgo6s5So6hy+IrG/I6oBscH73FDpTEDS1AghMGYk2NKYqaaY+om1/xLd9Ap/Xy3bY64G/Nrubc5nzM/xf2PtQfiaYuv2pSO0qMtA10QwtOXXAAAoEDvDtkSXJsghmx2wGPGzjbGPiO4rdNhRH93WCoGKFCrKQRh9thJkDxul0OZ/JxPkzTMfa/kMHNYNeczOnexttWyI7nXM60rNHFZNdwukP4/6AUOe7lcvM/WGD8Tge7kOU31WwjHsH547i1a6252VWdP2D5whp072uP55ndERAuITjw/5j8ADOG36+X2zBq25upsnJnrouhe9XCLLAC9PWIu6FrFShCtphsNdYp2Hv9qZNGmrdUMtjxf5iAJJXbM0KMSwH9z2I94aXn4l3ope/YZ8/L5vk9fzZeuGvl28F0RdsOYQYXrYilG1Gpx46V0OVb3WA0/D33jb228s3w/bBfCt33bGesy29RrNYwaeEvUFBO2LLzu0yTu93xOggqrz2sqtMVgLEUiHa7qY28KtffpCbVSyGacrQbkHGYWex/J123RlbdQoxQrXTw2krOI/p/OwXY4Bf42VDQ/kwC1Xgh+JlX+GnI75kC+z14aNHdFDKMpOdOtwBUnb75Py30u13q0/bUKbqIKlJOvgPMfdQBcI59IdgMBL6OA4eORRq1ZDLB7fuLrg30UaC2N7G4rFBQu9pP5tWTuMAzinDnDZxq8Zxw/GdvWxasPpHElM/Hz6r13NkhRiNdNDs71s2BK4Z3pGhYsWIAYTj33gd18/382sbOIUY16t4t3/LrjJF792xOpAYgzOQEfkh7cPAFHHwy/3seuDEo/gDhRhRfHFYNRIggfAJRCrEwJ4ranrephogyZAug2zRAByCE+4CxwTTPiCAgQ747doJdr6KDZhN0Cwd72qgFB3DCFzgBekuCOjBOYGYAgUvKIxieUc7X90KWKTuQzAZAgA40Rj1iawgCGoE27f7WBfzO5x6ODHOeSdtfdAAQlYIiBjco3bsOon1F/fAAe0ItynRQ8MlZoUAAEAASURBVO03kuuAfaBDJ3P6jCabgg2khtp3sOUQoqRUDsH4BFufy7wJYG5sCJ3QaEYGln/+Cxw6t4Izi8DyIW0gDtGUaVYs41wnMT9DiLFHO/te1AY7OvUOaMAUwUV3wb2UK2sOk6LfPtcfaKAAAg5MgeMsyOKBgL8NRONZwj0OexJtjd1gz3kkttLrGYEg6mxn6h4jQHEyivSz2yZHur3X+pgqC1NFYe5ZZCVCSajtcB8vEqbubfmdBBKDAAKXbWs3Mg3tPzWFP2ydu8B3wVQmSGvdT32yldrBdyEK7AiCELPNtG7pTWcr0mdiNJ6d1sldDwjUkM0GvoP1URLqfyXUzgR7T7jr7fU9vnYHdhadf3aKAnsML/ts14mVv/Fl53f+Cb2mfvtPir8j+wDEsk9phyyC0BBZuDsD8XximjMIfTB6f+QH7wSe0/ieM/YJQeTuA3tNeyvYfmAD0DEPH9P6as710LmNLDK249r5m99njIQsmCe/CVj6tVf89pWQ39F2Q9MVgrXzVfxsR7j+L+oXzM+MpN5+z6AVYuw5sC+S3Sa5dW0wHuJCZCdJpRkwnVlKnCcUbrsa22C0bupUqc1AEbsPr+tv2zTgjbiHu3jFFrBuJHVz75vfxcQlqqrIECnS0VUN++tuW+IaFdDBNhDWYnoJTD0A8VlCCu3vWXoJ9TPDuQZez18424drK4LZZpvFB1l7MOWQLelUBPmRZoWCEKOzThkbayWSdnokbYX4xBi8bKifD0P7ev7vzPtvvVMHXz5vpiHfvGObHPPo40Cm537voI8jflmdMDgKgwrj068Q7j2dFGya31X1s5mR+Kw4VnyeIz9f1e8cQh03XHt+IdoG4ZxDNKxDIUY0XAXWgQRIIMEE4iPEwEGRyeBqzWKA0TvolHOXv/f+o6M5NpiMC0g5dz6L0xmZOH96RIdC+s0R7XuHJcSIaMdcOSICvA4R4YrKlRHIgTq6lI7QhvDBXTCPJUYmYt5BzIF9vosVYtTt0TriQ03tNVwbX8fPEWLYlJ9WiBHxji/yBgmxlRe56vE6PFIf1tfR+M90aRbvhrLfgZMbUz8e/P3iEEAg9WodIVmqWAkjknLXApky1uooj5Xr13qO8nFvl9DvVTQTBoS721QggrS+111e+uwcu5ouHVN7sHgTwBQcswaMN1PBjJo+0Xtl/koCiUQAo6euLllKihcoIqk0E6CzIEvGVh3Fimm+kLkhKZcbrixjMgHgPR5q/vmkfH7xqXus+r/xYXGhtnEG452jYhN6fIyWxLSm7qlME7pfbn9+CWDKEcTYShQuJmlVHOcsyDy0Qzv+Vm9aL+u0TZ2UC+1v5FcvIbYC08I+VfFRM32SU4iBztp5g98xGZxiXYgRaZzY6wpdiBiD1/H52/khAAE8MjVfWqS4CjLO7ePA1HloT8MHDiYKPj+1irtXxp7+zyMp+6wJsef/J5C8PlGIkbyuN8+WBGKWQHyFGNEEpJCOYkIKuumL5un/H0VcNYhJMKLdpsG1O8D0All0DrQ1mh70Yjlati7J4S+vQ3K4yhfuHPs262im/mgz+LWID4ppZjJmyGDmLXdujBEmmApgmwbBzueIRecxE/NzQm1lYtblQuwLwSVMCwUbHmx0X2LUIbkxTQxm3EfyIQCbiRSlmNoNAj103H76/Zfx8tWSD7W4Z4qprJAZBME/FhIggcQjgKnWMOUmMvR0Gz3AZEJLvL0nzT3Fqv8bzVfjRZ2PvaKOxG2pU9vEd3RtsPPDyE+I+TZu2xLsZy4jgYtKgPY3cvwJsRUYOFdcp1TYoPbAnSEUMU8UO5Vx5DWL3i3OVzv9QsQYopcqa3YxCZyve/pinlN8j52UfdaE2PP48krq21GIkdSvIOtPAiRgCMSCEIOXkgRIgARIgARIgARIgARIgARIgATCJZBaM37EZ4rDcPfP9UiABEiABIIToP0NzoVLSYAESIAESIAE4hKgECMuD34jARJIogQoxEiiF47VJgESIAESIAESIAESIAESIAESIAESIAESIAESIAESIAESIAESIIEYI0AhRoxdUJ4OCSRXAhRiJNcrz/MmARIgARIgARIgARIgARIgARIgARIgARIgARIgARIgARIgARIggegiQCFGdF0P1oYESCCeBCjEiCc4bkYCJEACJEACJEACJEACJEACJEACJEACJEACJEACJEACJEACJEACJJCoBCjESFSc3BkJkMDFIkAhxsUiz+OSAAmQAAmQAAmQAAmQAAmQAAmQAAmQAAmQAAmQAAmQAAmQAAmQAAk4CVCI4aTBzyRAAkmWAIUYSfbSseIkQAIkQAIkQAIkQAIkQAIkQAIkQAIkQAIkQAIkQAIkQAIkQAIkEFMEKMSIqcvJkyGB5EuAQozke+155iRAAiRAAiRAAiRAAiRAAiRAAiRAAiRAAiRAAiRAAiRAAiRAAiQQTQQoxIimq8G6kAAJxJsAhRjxRscNSYAESIAESIAESIAESIAESIAESIAESIAESIAESIAESIAESIAESIAEEpHABRdi7D94QN6bN1OyZc+eiKfBXZEACSR3Akt+/lEWL/labr3xpuSOgudPAiTwH4G/9u+RXJmzSepUqciEBEiABEjgAhE4ffq07DqwV/Jnz3WBjsjDkAAJxCqBQ0ePyBn9L0uGTLF6ijwvEiABEohKAkeOH5MT/56U7JmyRGX9WCkSIAESiFUCx0+ekIPHjkruLNli9RR5XiSQ7AgsW/6L5M+TV2aOmuR77inOaPFdy2eFzdv/lOqt6kmq1Kl91uTPJEACJBA+gXzZcsqmLVvkrptuC38jrkkCJBDTBK4oWUo2bt0sx08cj+nz5MmRAAmQQDQRSK3tvMsvuVR++2NNNFWLdSEBEkiCBPLlzispUqSQnX//lQRrzyqTAAmQQNIlkDN7DsmUMaNs3b4t6Z4Ea04CJEACSZBAlkyZJU+u3LJhy6YkWHtWmQRIIBiBxT8ukczqV3357rxgP8dZlmhCjKdb1ZcM2TLH2Tm/kAAJkEBCCJTMV1gO7z8oUwaNSchuuC0JkAAJkAAJkAAJkAAJkAAJkAAJkAAJkAAJkAAJkAAJkAAJkAAJkAAJJIjA4Amj5LTmuWj5QiPf/VCI4YuIK5AACVwsAhRiXCzyPC4JkAAJkAAJkAAJkAAJkAAJkAAJkAAJkAAJkAAJkAAJkAAJkAAJkICTAIUYThr8TAIkkGQJUIiRZC8dK04CJEACJEACJEACJEACJEACJEACJEACJEACJEACJEACJEACJEACMUWAQoyYupw8GRJIvgQoxEi+155nTgIkQAIkQAIkQAIkQAIkQAIkQAIkQAIkQAIkQAIkQAIkQAIkQALRRIBCjGi6GqwLCZBAvAlQiBFvdNyQBEiABEiABEiABEiABEiABEiABEiABEiABEiABEiABEiABEiABEggEQlQiJGIMLkrEiCBi0eAQoyLx55HJgESIAESIAESIAESIAESIAESIAESIAESIAESIAESIAESIAESIAES+D8BCjH+z4KfSIAEkjABCjGS8MVj1UmABEiABEiABEiABEiABEiABEiABEiABEiABEiABEiABEiABEgghghQiBFDF5OnQgLJmQCFGMn56vPcSYAESIAESIAESIAESIAESIAESIAESIAESIAESIAESIAESIAESCB6CFCIET3XgjUhARJIAAEKMRIAj5uSAAmQAAmQAAmQAAmQAAmQAAmQAAmQAAmQAAmQAAmQAAmQAAmQAAkkGgEKMRINJXdEAiRwMQlQiHEx6fPYJEACJEACJEACJEACJEACJEACJEACJEACJEACJEACJEACJEACJEAClgCFGJYE/5IACSRpAhRiJOnLx8qTAAmQAAmQAAmQAAmQAAmQAAmQAAmQAAmQAAmQAAmQAAmQAAmQQMwQoBAjZi4lT4QEkjcBCjGS9/Xn2ZMACZAACZAACZAACZAACZAACZAACZAACZAACZAACZAACZAACZBAtBCgECNargTrQQIkkCACFGIkCB83JgESIAESIAESIAESIAESIAESIAESIAESIAESIAESIAESIAESIAESSCQCFGIkEkjuhgRI4OISoBDj4vLn0UmABEiABEiABEiABEiABEiABEiABEiABEiABEiABEiABEiABEiABM4SoBCDdwIJkEBMEKAQIyYuI0+CBEiABEiABEiABEiABEiABEiABEiABEiABEiABEiABEiABEiABJI8AQoxkvwl5AmQAAmAAIUYvA9IgARIgARIgARIgARIgARIgARIgARIgARIgARIgARIgARIgARIgASigQCFGNFwFVgHEiCBBBOgECPBCLkDEiABEiABEiABEiABEiABEiABEiABEiABEiABEiABEiABEiABEiCBRCBAIUYiQOQuSIAELj4BCjEu/jVgDUiABEiABEiABEiABEiABEiABEiABEiABEiABEiABEiABEiABEiABEQoxOBdQAIkEBMEKMSIicvIkyABEiABEiABEiABEiABEiABEiABEiABEiABEiABEiABEiABEiCBJE+AQowkfwl5AiRAAiBAIQbvAxIgARIgARIgARIgARIgARIgARIgARIgARIgARIgARIgARIgARIggWggQCFGNFwF1oEESCDBBCjESDBC7oAESIAESIAESIAESIAESIAESIAESIAESIAESIAESIAESIAESIAESCARCFCIkQgQuQsSIIGLT4BCjIt/DVgDEiABEiABEiABEiABEiABEiABEiABEiABEiABEiABEiABEiABEiABEQoxeBeQAAnEBAEKMWLiMvIkSIAESIAESIAESIAESIAESIAESIAESIAESIAESIAESIAESIAESCDJE6AQI8lfQp4ACZAACFCIwfuABEiABEiABEiABEiABEiABEiABEiABEiABEiABEiABEiABEiABEggGghQiBENV4F1IAESSDABCjESjJA7IAESIAESIAESIAESIAESIAESIAESIAESIAESIAESIAESIAESIAESSAQCFGIkAkTuggRI4OIToBDj4l8D1oAESIAESIAESIAESIAESIAESIAESIAESIAESIAESIAESIAESIAESECEQgzeBSRAAjFBgEKMmLiMPAkSIAESIAESIAESIAESIAESIAESIAESIAESIAESIAESIAESIAESSPIEKMRI8peQJ0ACJAACFGLwPiABEiABEiABEiABEiABEiABEiABEiABEiABEiABEiABEiABEiABEogGAhRiRMNVYB1IgAQSTIBCjAQjPK87OHXqlBw9etQcI0WKFJIpUybf4504cULwP0qaNGkkXbp0vttwBRIgARIgARIgARIgARIgARKIBgJHjv0rp06dNlVJlza1pE2T0rdax0+e0jbQKbNemtQpJX261L7bcAUSIAESIIG4BE6dOiNHjp00CxGDypwxTdwVgnyj/Q0ChYtIgARIIEIC9H8jBMbVkwUBCjGSxWXmSZJA7BOgECO6r/Enn3wiffv2NZVMnz69zJ0717fCEyZMkMmTJ5v1LrnkEhkzZozvNlyBBEiABEiABEiABEiABEiABKKBQIVGH8rWvw6ZqrSvfYO88NhVvtUaPPUXGf7+CrPeFcVyyOyBj/huwxVIgARIgATiEpj1xQZpM+QbszBjhtTyy+QacVcI8o32NwgULiIBEiCBCAnQ/40QGFdPFgQoxEgWl5knSQKxTyAhQgw00HbuPiINql59Dqg/dx2SNyYvk2L5s8oVxXOe83vpEjmlcL7McZYf1xFMv67fLas37JHMGdJI2cvzSPGCWUVF+GGXP/74Q7Zt2+a5frZs2aRs2bKe60TLjx9//LH069dPHnjgAbnuuuukYsWKcaqGjBlLly6V0qVLS+bMZ3n+/vvvsm7dOhkxYoQUKFBAxo4dG2cbfiEBEiABEiABEiABEiABEiABN4G/9x6VodOWG+FD8QJZ3T/L+FmrZOWGf6TCjUUltWadcJZ0aVLJ3TcWci4yn+PTxru30Qw5rFkxWtUsKzdelVdKFMpm9nXi5Gk9/m75de0/kjNrerm2VG4pViCL+W2ltiNXaTuy54QfpUjeLDJ30KPn1IULSIAESCBaCfjZ3wsVY5v5+QZpO/QbebJCSbn16vxS+a4SBtmx4//KL3/8I6vW75ECuTMZ+1swz9mMrbS/0XpXsV4kQALhEoiGPo5Q/q/zHN6cvlJ2HzgmrZ+53mSMo/110uHnWCRAIUYsXlWeEwkkQwLxFWLsO3hcbq79niE2+41HVGyRIw49OAYDJv8cZ5nzS4+Gt0r1+y8LLFq1cY+06P+VbNpxILAMH24rk19GdbxHMoSZWhbZI+bNmxdnH+4vZcqUkeHDh7sXR+V3K8Ro165dHBHGpk2bZMGCBfLpp5/Kvn37jNiiePHicc6hatWqkiNHDgox4lDhFxIgARIgARIgARIgARIggWAE+r79k4xTscV9NxWRER3uPmeVUlUmnrPMLsibI4N8Pe5J+9X8jW8bD4HolKrG/3TEE4H9oRPymS4LZfvfRwLL8KHdc9dL3cdLB5bd9vx7kitbBgoxAkT4gQRIICkQ8LO/FyrGZoUY/ZuXC4gwNu84KHW6fyLbdh0OoIQYr2/T2+XROy8JLKP9DaDgBxIggSREIFr6OIL5v06M367YIXW6fWoWfTWmquTLlTHwM+1vAAU/xBgBCjFi7ILydEgguRKIrxBj4rw10mPcjwbbcw9fIZ3r3hQHobOROEeFGu5SSLNhIOsFyp79x6RCkw8FI5zaPXeDVLi5sBw++q9M/uh3mbpwrdxVtpCM6XKvexdBv1shRvfu3aVIkSJx1vn333+lfv36ktSFGEOHDpVZs2aZc0udOrXgvJD1gkKMOJebX0iABEiABEiABEiABEiABMIk8O+p03Jnvenyz75jkipVCvl67JMqaEgfZ2srxHizwz1iR0LbFdKrcN5mp8CyhLTxggWiH2g2WzaraL9no9vk/luLyJadB6Xp64tNx+A8zX5xWdHspioMRNsrwr8kQAJJhUA49vdCxdiCCTEebTlXNuzYL70b3S733VJENm4/IE37fiHbNUPuT+9Ul8wZz8b2aH+Tyh3HepIACTgJREsfRzD/19YTWYkebjEnMHUfhRiWDP/GOgEKMWL9CvP8SCCZEIivEOPxVvNk194jki9nRtn29yEN1FUzKbEsNmcjce2MZ+3ioH97jP1BJs7/XdxZMs6cEanVeaEsXbPLBAIxysqvWCHGuHHj5LLL/p9xA9udPHlSKlSoEFSIsXPnTlm7dq1kzJhRLr/8csmS5WyKW2x35MgR2bBhg+TNm9f8j2UomALlwIEDZv0///xTDh8+Ozpg8+bNcvToUbniiivMeil0NJf9fEZPClOH4Hg5c+aUSy+91BzTrBjkn2AZMSZMmKDB0VTmXGbOnCkffvghhRhB2HERCZAACZAACZAACZAACZBAeAQ+/X6rNNaOtTuvKyhf/rJd2te+wUxR4tzaCjEWj65iUtM7f3N/Tkgbzx2I3vrXQanQaKZUvbeE9G5aLnCo6Z+tlw7Dv5Vu9W6WWpUuN8vZERjAww8kQAJJhEA49vdCxdjcQoy/VGxxh4r0HipXVAa1uitAdPSMldJ/0s8yptO9ctcNZ6elov0N4OEHEiCBJEQgWvo43P6vE2Gft36S8bNXSaG8mYwImUIMJx1+jmUCFGLE8tXluZFAMiIQHyHGap1G5DEVYtR+5Aoplj+rvKpCisGt7pRK5YoFyEXSSKyo2TD2HDguS8Y/FUfMgZ3NXrxBpn2yTl6qca3cUjpfYP+hPkQqxDh+/LgMGjQoznQmadKkkWbNmsnjjz9uDrNixQpp0qSJ1KlTR1544YXAobt27SpffPGFzJ07Vzp06CBYL1jB/j777DPZvn27dO7cWdatWxdYLVu2bNKzZ0+55pprAsucH4IJMZy/Y4oVCjGcRPiZBEiABEiABEiABEiABEggUgKNe38hny/7UxaPriqPt5orObOkl7mDH42zm0iEGAlp47kD0egIXPjdFrnhijxSumSuQJ3mfbVJWg78Ko6gnx2BATz8QAIkkEQIhGN/L1SMzS3EOK2DiU6cOCWYiiR1qpQBosOm/SpDpi2XEe3uNlky8APtbwAPP5AACSQRAtHUx+H2fy3CFev+kSfbL5BqFUrKKc1gN33RBqEQw9Lh31gnQCFGrF9hnh8JJBMC8RFiYEoSpO368PWHpECeTFKu7gdS/pqCcaYPcTYSeze5zdBMkzqVlCqWXS4tki3QgEMKxqurT5GrS+SSD/pVSjD1SIUYEDJMmzZN7rnnHqlZs6YcPHjQCDO2bNki/fr1k1tvvdUILPyEGP/8808gIwbWRcG+USDEQEaMpk2bysqVK6V58+Zyyy23yOrVq6VPnz6SP39+mTgx+HzLFGIYhPyHBEiABEiABEiABEiABEjgPBHYrVNFln/xA7nrukIyqtM90mvCUnlrzmr5oG8lueay3IGjWiFGs6euCUxNkidHRhVH5IwzjUlC23ihAtGBivz3oVbnj2XZ77tk0cgnAhk62BHopsTvJEAC0UwgXPt7oWJsbiGGk92pU2fk4JET8t2KndJx5BLJnjmtzB1YWTKmT21Wo/110uJnEiCBpEAgmvo4gvm/8KmrtJ4vuw8clY+GPCa9J/xIIUZSuLFYx0QjQCFGoqHkjkiABC4mgUiFGCdOntYg3fuSO1sGmT+ksql6o16fy6Jl2+TLN6tIvlwZzTJnI9F9fpkyppahbe6S8tcWlL/3HjVCjntvKGyCfu51I/0eiRADU4lUrlxZChQoYIQQmEIEBVOO1KpVS6666ioZMWKErFq1Sho2bCg1atSQRo0aBarkzIiRNWvWwPJ69erJ1q1bZcGCBYFl+DBp0iTBejimLZ06dZKvvvpK5syZI8iO4S4UYriJ8DsJkAAJkAAJkAAJkAAJkEBiEhg/a5X0efunQJbD3zbskSdaz5MaD5SS7g1uCRzKCjECCxwfKt5SRN5oeYekS5sqwW28YIFox6HMR9vefKHyVdK+zg2Bn9kRGEDBDyRAAkmAQLj219q8YKeUmDE2LyGG+x3w8bDHpHjB/8fCaH+DXR0uIwESiFYC0dbHEcz/HfH+rzJo6nIZ0vpOefD2YtJh2DcUYkTrDcV6nRcCFGKcF6zcKQmQwIUmEKkQ46NvNkvzAV9Kq1plpUHVq011gy1zNhI/f/MJs97ho//KstW7pM87PwmcnXkDH5VsWdLKrXXel7vKFoqTUSO+HCIRYvz2229GWPHss88KxBPOUr9+fdm0aZMsXLhQMH3Jgw8+KFdffbUMHTpUrGAjUiEG9o9pSSC8+Ouvv+TYsWOyaNEic9j33nvPZMZw1gGfKcRwE+F3EiABEiABEiABEiABEiCBxCTwcPM5smPPYVkyrpoRUmDfdtm3Y5+U9OnOjna2nXCTez4gBXNnFM1YL5t3HJTJ83+XT3/cKo/ffYn0e6m8Tjt5LEFtvGCBaOf5frxkizTtv1iu02wdE3vcL+nSpAr8zI7AAAp+IAESSAIErK31s78XKsbmJcR4WzMlbdxxQLbvOixf6GCsq3WqqHd7PRiYYpj2NwnccKwiCZBAgECw/oxgyy6U/XX7v+v/3C+VdbpAZKwb0eFuU28KMQKXjx+SCQEKMZLJheZpkkCsE4hUiHFdralyRAUVpUvkDKSjPX78lHz5y3aD6vfpz6pQQcTppKyd8WwcjFMXrJVuo7+XLnVvkmceukLKPjNViuTNInMGPhJnPXw5ffqMHDn+rwmupdE5Kf1KJEKMb775Rjp06CCNGzeWp59+Os6u27ZtK999953JapExY0Zp166dLFmyRG688UaTKePAgQMyc+ZMs83cuXNNpgu7g1AZMd59912TYQNZMcqUKWO2+eijj8xmFGJYevxLAiRAAiRAAiRAAiRAAiRwoQj8+ofOO93ubJsEWS1s+eT7reZjm2evl3pPlDafrRBj8egqgalA8APS1d/dcLocV7H99xOeMusmpI3nDkSbHf73z48q7K/T/RMpqJkY3+1VKc6UKFiFHYFOWvxMAiQQzQQisb8XKsbmJcRwsnx94jIZ8+Fv0qPhrVL9/svMT7S/TkL8TAIkEO0Eoq2Pw+n/nla1c81OOgXfml3Sq/Ftkj/P2Qzk7YZ8o5nnjpllJYtmk7Kl8hjMtL/RfrexfvElQCFGfMlxOxIggagiEIkQ46/dR+SOetNN/S8vliPOefy+ea/5Pum1++Xmq/J5CjEW/7RN6vVcJHUevVI6Pn+jSXu7RrdfPLqq5M2RIc5++2vjbrQ27ka2v1sq3Pz/wGCclRxfIhFi/PHHH1K3bl2pVq2aNGvWzLEXEWTJ2Lt3r0BkgYKsGMOGDZNly5bJ9u3bJUuWLLJv3z7zWzhCDGxfqVIlKVKkiIwaNUoyZDh7nlbgQSGGQcl/SIAESIAESIAESIAESIAELiCBbm9+L1MXrjVHdLbxtv1zSA4dPimF82WSRSOrmN9DCTHwYzUVcyxXUcdPE6tLlkxpE9TGcwaizYH/+2ftln1Ss/NCSa/Tn2AUduG8mZ0/m88MRJ+DhAtIgASilEAk9tdLiJGYMTa3EAPTCS/68U8pc1kuueqSnAGS3//2lzzb5WOp+9hV0q722emhaH8DePiBBEggyglEYx+H0//dtP2A3N90lidFZCWa8fpDZh3aX09U/DEJE6AQIwlfPFadBEjg/wQiEWLYhl/vJrdJ1QqX/n8n+umHVX/JM50/lir3lJA+zcqFFGIgfW3LN76U+TrFCRSdT953qQn8oQH6VMVLVU1/m8mogZ0jpW2VNvNk78Hj8sNb1U2a3NOnT+uIq1OSOnXqwBQhzopEIsQ4ceKEVKlSRVKlSiVTpkyRTJkymV0tX77cCDPKlSsnvXv3du4+zudIpib5888/pWbNmnLnnXfKa6+9ZvYDcUbFihXN52nTpkmBAgXi7B9fODXJOUi4gARIgARIgARIgARIgARIIBEIHD9xSm6r+75ky5hWFo2qEmiH2V0/1/UT+e63nbJoxBMqyMgsoYQYqzbukWrtP5JcWdPLl2Oqms0h7gi3jWePZ/86A9F22Y5/Dkv1Dgvk6Il/ZXKPB6RU0ez2pzh/GYiOg4NfSIAEopRApPbXxuNwOs6sswmNsbnxuIUYG7btlwebzZb7bioSSI2Pbd6Zt0ZeG/ejdG9wi9R4oJTZDe2vmya/kwAJRCsBa1MvZh+Hm43T/8WU7hvV/rpL+2Hfym8b9sjoTvfKJQWzSrECWcwqtL9uUvweKwQoxIiVK8nzIIFkTiASIcb9TWYF5g7OnDFNHHJo/MFhgHjiW51beJLOEzxg8s9mnZeqX2P+HjhyUpau2iUr1++WkoWyycwBDxtxBVLZPtXhI1mxbrfcVbaQ3HF9Qdl34LjM+3azcTo6adaM2po9A2XcuHEydepUGTt2rBQvXtwsc/4TiRAD23344YcycOBAKVGihDz22GNy+PBhmTx5ssmAgWNgeagSiRDjjAKqWrWq7N692xwnV65c8vnnn8uGDRvM7nFel112Np2j83gUYjhp8DMJkAAJkAAJkAAJkAAJkEBiEZi9eKO0Hvy1NKxaRl6udd05u53+2XrpMPxbaVrtGnmpxrUBIcbTmoYemQzRBlyvQWJMU4nsGX2a3i5V7i1p9hNJG899YGcgGr8hGP1E63nyx9Z9pjPwhivPpmF2blfn0atUYJ+CU5M4ofAzCZBA1BKI1P7aTkOcUGLG2NyA3EIM2PmanRbKT5oe/9E7ikv56wrK1p2H5M1ZKyVzhjQyb+Cjkjv72Yyv7Ah00+R3EiCBaCUQDX0cbjZu/9f9O753GPaNTF+0Qb5S4XM+nabPFtpfS4J/Y40AhRixdkV5PiSQTAmEK8T4ee3fUr39Anm4fDEZ+PKdQWkNnvqLDH9/hfRtdrvs2nM0IMSwKyMwVjR/Vil/bX5pWv1ayZElnf1JMBqg91tLNVPGJtl38IQJol1ZPKfUerBUnOwbI0aMkBkzZsikSZMkf/78ge3th3CEGNdcc42ZZsRuM2fOHCPw2LNnj8myAYFH27ZtpXTps3Mh2/Xcf1955RVZtGiRfPTRR4FsGlinXr16sm3bNpk/f36cTdatWyfYZsuWLWZ5qVKlpFChQkaQ0aFDBzN1SZwN9IufEGPkyJEyffp0GT9+vBQtWjTO5hB+5MiRw4hW4vzALyRAAiRAAiRAAiRAAiRAAsmewIuvfmZEFAuGVpYSKpR3l0NHT8rtL7wvubKll881Y4bNiOFcL3vWdHJZ4ezyoqanv+emws6fwm7jxdlIv7gD0RD731rnffdqcb7/PPlpyaSdggxEx8HCLyRAAlFKIFL76xRi2FNKjBib3Zf96xZiYPnu/cekz1s/ypyvNsvp06rM0HJdqTzSrd5NUlpT49tC+2tJ8C8JkEA0E4iWPg43I7f/6/4d3zuN+Fbe/3Q9hRjB4HBZTBKgECMmLytPigSSH4FwhRgXksz2vw+bYF86nfvXXZo1ayY7d+6U99/3DsS5twvn+969eyVNmjSSOfO5cw2Hs3246xw4cMCsmjVrVt9N/IQYXjugEMOLDn8jARIgARIgARIgARIgARK4UAS82njuOoQTiHZvY7+zI9CS4F8SIAESOEsgEvsbTIhhOZ7897Ts3H1Ycuo0VBC+uQvtr5sIv5MACSR3ApHYX/q/yf1u4fkHI0AhRjAqXEYCJJDkCESjECMUxNWrVwuEGPgf04gkh2KFGNmyZQs7u8XMmTNNlgwIVooVK8aMGMnhRuE5kgAJkAAJkAAJkAAJkECMEEAgesc/R6RQnkzSsEoZefK+S33PDFNjvjV3lWzddVgzdGSTuYMe9d2GK5AACZAACcQlYIUYubKl0ylHMsqcgY/EXSHIN9rfIFC4iARIgAQiJED/N0JgXD1ZEKAQI1lcZp4kCcQ+gaQkxMDVWLp0qdx4442xf2H+O8NVq1bJwoULzbcMGTJIw4YNfc/922+/le+//96slytXLnnuued8t+EKJEACJEACJEACJEACJEACJBANBN6Y/IvsP3TcVOXh8sXl5tL5fKv12Q9b5cuft5v18ubIIE2eusZ3G65AAiRAAiQQlwBS9kOMgZIxfWppV/uGuCsE+Ub7GwQKF5EACZBAhATo/0YIjKsnCwIUYiSLy8yTJIHYJ5DUhBixf0V4hiRAAiRAAiRAAiRAAiRAAiRAAiRAAiRAAiRAAiRAAiRAAiRAAiSQPAlQiJE8rzvPmgRijgCFGDF3SXlCJEACJEACJEACJEACJEACJEACJEACJEACJEACJEACJEACJEACJJAkCVCIkSQvGytNAiTgJkAhhpsIv5MACZAACZAACZAACZAACZAACZAACZAACZAACZAACZAACZAACZAACVwMAhRiXAzqPCYJkECiE6AQI9GRcockQAIkQAIkQAIkQAIkQAIkQAIkQAIkQAIkQAIkQAIkQAIkQAIkQALxIEAhRjygcRMSIIHoI0AhRvRdE9aIBEiABEiABEiABEiABEiABEiABEiABEiABEiABEiABEiABEiABJIjAQoxkuNV5zmTQAwSoBAjBi8qT4kESIAESIAESIAESIAESIAESIAESIAESIAESIAESIAESIAESIAEkiABCjGS4EVjlUmABM4lQCHGuUy4hARIgARIgARIgARIgARIgARIgARIgARIgARIgARIgARIgARIgARI4MIToBDjwjPnEUmABM4DAQoxzgNU7pIESIAESIAESIAESIAESIAESIAESIAESIAESIAESIAESIAESIAESCBiAhRiRIyMG5AACUQjAQoxovGqsE4kQAIkQAIkQAIkQAIkQAIkQAIkQAIkQAIkQAIkQAIkQAIkQAIkkPwIUIiR/K45z5gEYpIAhRgxeVl5UiRAAiRAAiRAAiRAAiRAAiRAAiRAAiRAAiRAAiRAAiRAAiRAAiSQ5AhQiJHkLhkrTAIkEIwAhRjBqHAZCZAACZAACZAACZAACZAACZAACZAACZAACZAACZAACZAACZAACZDAhSZAIcaFJs7jkQAJnBcCFGKcF6zcKQmQAAmQAAmQAAmQAAmQAAmQAAmQAAmQAAmQAAmQAAmQAAmQAAmQQIQEKMSIEBhXT5oEMqRLL5kzZpIDhw7K8ZMnkuZJsNaeBCjE8MTDH0mABEiABEiABEiABEiABEiABEiABEiABEiABEiABEiABEiABEiABC4QAQoxLhDopHKYFClSyMwB4+W39b9Lx+F9kkq1fetZ9d6HpMlTdaTLyH7yzfKlvutzhaRHgEKMpHfNWGMSIAESIAESIAESIAESIAESIAESIAESIAESIAESIAESIAESIAESiEUCFGLE4lWNxzmlSplKbi1TVkoVLSHPPvyk2cPI99+WlSrIWL1pXTz2GF2bUIgRXdfjfNSGQozzQZX7JAESIAESIAESIAESIAESIAESIAESIAESIAESIAESIAESIAESIAESiJQAhRiREovB9fPkyCWvNWorlxW9JOjZLVzyhfR7Z6ScOXMmzu9ZM2WRw0ePyKnTp+Isx5f06dJJyhQp5cixo+f8ltgLUqZMKVkzZpZ9hw4E3XWWTJnl4XIVpH6VWtJjzEBZumaFHDx8KOi6fguzZc4iB3RbNwu/7fj7+SdAIcb5Z8wjkAAJkAAJkAAJkAAJkAAJkAAJkAAJkAAJkAAJkAAJkAAJkAAJkAAJ+BOgEMOfUcyv0b9FF7n+ijIya/FC+eCz+TLx1cHy0+pfZei0CdKyZj25ttRV8ub0iTLtkznybu+Rkid7Tvln3x6BgOP4yRMy98tPZKT+fvr0abmkYBFp81wjubxYScNt844/ZeDk0bJCM2ugDG3TQ/LnyivV2jcw39OlTSfv9xklX/z0rYo6jsrj9zwo6dKkNb/hH+wf+63RsYkKIA4GluMDxB7Nqr8g99x4u6TX/ew/dFCmfTxb6znbCCXy584rPRq2kZKFi8XZDl/Wbd2o05T0l7/2/C0VbionrbXOHYb2kl/WrpLsWbLJ2C6vS6YMGeXh5s+Z41e77xGp8cBj5jeISz5f+q0MnjpW/j11rgjlnINxwQUhQCHGBcHMg5AACZAACZAACZAACZAACZAACZAACZAACZAACZAACZAACZAACZAACfgQoBDDB1Cs/wwxxTQVV6xct0aaD+hmTvezkdPkx1XLpd2QnkZ4MKXnsP+xdydwNpUPGMcfjOz7vm8hSyQVlZSlSCSpKEmR7PsuS3bKvqekKLIrEqWSNv5FISFZsmbftxnG/33PdG9zx4yZMdfcO3d+51Nz7z33LO/7fa/zOffc57yvDh07omYDu+jrqfOcZbb8O2TJYxUry/aM8ZbpMWP1+p80a9B4ZU6fUV+s/VbBJkRRy/REEXIlRI37dXDCG2/3HiEbkKjb+RVnO+lSp9Eno2dozYZ1JtzwvRkapYjyZM+pyndXdN6fs2KJ8zh75RKn9w3nxb9/upvwRM0Hqmj7np36dfvvqnZfJSccYoMfS79bpRHteuveUnc5dbm3ZFlnLRui2GaGWrHBkx83/aI+k990AhbN6zVS1zEDtcFsp0+zDqpqwhl2qt66oR4uV0F9m3fS0ZPH9dXP36tc8dJO0OTD5Qv13qdzneX443sBghi+bwNKgAACCCCAAAIIIIAAAggggAACCCCAAAIIIIAAAggggAACEkGMRP4puM8EFYabwMLsFYv17pI5SpIkicIHMSyPDU8Uzptfj7V5wXnPznu09fPOkCTlipfSqE799YsJbtggRtfGLbVk9QqN//g9u5ga1aynZk89r5nL5ut98/+NghhvTBvlrJMnW04n0LHMhClGm1CFnWxPG1lNTxyuafvfu7R45Ls6cvKYmvTvaEIfIcqXI7dm9B+tfYcPqs2I1/WpCXgcMeGJxn3ba3y3gSpRqKg+Wb1SkxfM1EeDJzghkzodm+jpqo/LFcRInjy5hrXt5dqNE8R4q0MfJ3zRfHA37dz/t1KlSKkFb05zAh1dTHiDyT8ECGL4RztQCgQQQAABBBBAAAEEEEAAAQQQQAABBBBAAAEEEEAAAQQSuwBBjET+CShR8HZN6jlUi75eronz3o80iLHorXeMUhI93e1Vd48YVVs+55ZbOuZ9nTxz2ulh4rlH66jjyH7aZHrYsJPt/WL24IlOSGPgO2OcIEbR/IW0dvMG533bI0apIsWdHjFuFMTo2aSNHrv/YWcd+2f4jInq+UpbLf7mc2cIFdcbU3oN0+35Cqr54O56r98orfxptUZ8MFmTTR3vMHW1w6+MmzNdrzdtZ3rQeEiN+rTTI+UrOkGMPpNHqK0Z6iRT+gw6cfqkcmXN4QQxbPkNjBr2auXajVKnTGWGJbniBEDcM3niUwGCGD7lZ+cIIIAAAggggAACCCCAAAIIIIAAAggggAACCCCAAAIIIPCvAEGMRP5RSJH8Ni0eNV1XrlxRs0FdneFDwveI8USlauryYgv3MB6uoUnCBzHs0CJnzp0xy6zXs9Vrq/1bffW7GbrETjkyZ9OcoZP0rektY0C4IMbW3Tuc99OnSWuGIskVbRDD9pJhAxKu6erVq06AZOFXn2nS/A9cszWlpwli5C+ol9/opFkDx2vpmi81ZvY71wUx+pmhRh4pf7+z3INl73GCGH/t221CHIVMzyCznR4wypcoExbEGDJJunZNDXu3du+HJ/4nQBDD/9qEEiGAAAIIIIAAAggggAACCCCAAAIIIIAAAggggAACCCCQGAUIYiTGVo9Q5ycrP6qOLzTX2fPnnJ4r6pjXdlq7eb3uK1VOIVdC1HxId+0/fMjdI0b11g0VGhqqUma4jwk9hmj91k1O2KKzCW3M/3Kppiyc5Wzj2WpPqNWzTTTrs4WasXTuTQ9N4mws3B/bk8aSUe/p4LHDesWELq6YYEbOLNmcIU0OHj3shEEWj5yuP/fuUsuhPf8LYpihScbPfU/T+45UQTPcSW0zNEndhx9zghh287sO/K0WQ3qa4Vp6yRXEGNWxr8oWK+WENvb+c0BByZJpTOc3nGFKxs55N1ypeOpLAYIYvtRn3wgggAACCCCAAAIIIIAAAggggAACCCCAAAIIIIAAAggg4BIgiOGSSOSPlctV0Iu1nlbhPAWUNGlSR+P8xQtOzxZTFsyUDSDYydUjxoatm7V55zbVrlRdWTJm0lszp+jbDWv14aAJypA2nZZ9t0qXgi+rXpXHncBGk/4ddfjEUa8FMWxZXMOLbP5rq3Yf2Kd7S5V1hhMZ//F0LTGBi0kmIFLCBEVWrftO1Ss8ZFfRiTOn9Ptf21X57grmcZvam2FUnq9R1wliXDO9XrR7s4/+ML11vNWhjzuIUfWeB9XbDGXyz7EjTh3vKFjECWbMM4GTqf8GTpyN88enAgQxfMrPzhFAAAEEEEAAAQQQQAABBBBAAAEEEEAAAQQQQAABBBBA4F8Bghh8FDwEkgcl18qJH2mLGVqknRliJOJke5mwQQvbe0Y6M6yI7Ynis+9XacLcGU7gomj+QurZpI0K5cnvrGrDC6M+fFvrt212XtueJHJlze4e5sP2bGGHNlmzYZ3emDbKWcYOQzJr0HiPnjUilsO+Tp0ylTo3ek02RBIUFKSLly9pwaplen/ZfDOSyDWnDENadVdOs7+Ik+014/XJI/T3of3uIMaS1Ss0/uP3nEXDBzHstl58/Gk1eOxJZ5+XQ4L19c8/aOzsd53eQiJum9e+ESCI4Rt39ooAAggggAACCCCAAAIIIIAAAggggAACCCCAAAIIIIAAAp4CBDE8PRL9qyRJkqhu5ce01fQKsd0M6xFxskGME6dP6tXB3ZQ1Y2adOXdWNpgQcbIhjWRJk+nU2dMR3/L6axvCyJI+k46cPOYEMCLuIFumLHr8gSp6uc5zGvHBJG3Y9ruOnjwecbFoX1sbuy3bq8aVK1eiXZ4F4leAIEb8erM3BBBAAAEEEEAAAQQQQAABBBBAAAEEEEAAAQQQQAABBBCIXIAgRuQuzI1CwBXEaDaoaxRL+Ofs+lVrqc1zL6vvlDf1w8Zf/LOQlCpOAgQx4sTHyggggAACCCCAAAIIIIAAAggggAACCCCAAAIIIIAAAggg4CUBghhegkwsmxnRrreSJk2qbuMGJ6gqVyl/v1o+85IGThutLaa3D6bAEyCIEXhtSo0QQAABBBBAAAEEEEAAAQQQQAABBBBAAAEEEEAAAQQQSIgCBDESYqtRZgQQuE6AIMZ1JMxAAAEEEEAAAQQQQAABBBBAAAEEEEAAAQQQQAABBBBAAAEfCBDE8AE6u0QAAe8LEMTwvilbRAABBBBAAAEEEEAAAQQQQAABBBBAAAEEEEAAAQQQQACB2Av4JIjRoEtzM7xFstiXljUQQACBKAQqlLpLSa5JQ7v2i2IJZiOAQGITMIcEJUlslaa+CCCAgB8IcPz1g0agCAgEgIA9ltiJ87kwB/4igAAC8SXA8Te+pNkPAggg4CnA8dfTg1cIBILAVz+t0bad29WlWZtoq5PkmpmiXSqaBf4+uF8NurymFGlSRbMkbyOAAAIxF7gjX2FdPn9RUwaNjvlKLIkAAggggAACCCCAAAIIIIAAAggggAACCCCAAAIIIIAAAgh4WWDmojk6d/6curwaj0GMhiaIkSpDWi9Xhc0hgEBiFiiYPa8unD6jGW9OTswM1B0BBBBAAAEEEEAAAQQQQAABBBBAAAEEEEAAAQQQQAABBHwsMGnWO04vjwQxfNwQ7B4BBOImQBAjbn6sjQACCCCAAAIIIIAAAggggAACCCCAAAIIIIAAAggggAAC3hEgiOEdR7aCAAI+FiCI4eMGYPcIIIAAAggggAACCCCAAAIIIIAAAggggAACCCCAAAIIIOAIEMTgg4AAAgEhQBAjIJqRSiCAAAIIIIAAAggggAACCCCAAAIIIIAAAggggAACCCCQ4AUIYiT4JqQCCCBgBQhi8DlAAAEEEEAAAQQQQAABBBBAAAEEEEAAAQQQQAABBBBAAAF/ECCI4Q+tQBkQQCDOAgQx4kzIBhBAAAEEEEAAAQQQQAABBBBAAAEEEEAAAQQQQAABBBBAwAsCBDG8gMgmEEDA9wIEMXzfBpQAAQQQQAABBBBAAAEEEEAAAQQQQAABBBBAAAEEEEAAAQQkghh8ChBAICAECGIERDNSCQQQQAABBBBAAAEEEEAAAQQQQAABBBBAAAEEEEAAAQQSvABBjATfhFQAAQSsAEEMPgcIIIAAAggggAACCCCAAAIIIIAAAggggAACCCCAAAIIIOAPAgQx/KEVKAMCCMRZgCBGnAnZAAIIIIAAAggggAACCCCAAAIIIIAAAggggAACCCCAAAIIeEGAIIYXENkEAgj4XoAghu/bgBIggAACCCCAAAIIIIAAAggggAACCCCAAAIIIIAAAggggIBEEINPAQIIBIQAQYyAaEYqgQACCCCAAAIIIIAAAggggAACCCCAAAIIIIAAAggggECCFyCIkeCbkAoggIAVIIjB5wABBBBAAAEEEEAAAQQQQAABBBBAAAEEEEAAAQQQQAABBPxBgCCGP7QCZUAAgTgLEMSIMyEbQAABBBBAAAEEEEAAAQQQQAABBBBAAAEEEEAAAQQQQAABLwgQxPACIptAAAHfCxDE8H0bUAIEEEAAAQQQQAABBBBAAAEEEEAAAQQQQAABBBBAAAEEEJAIYvApQACBgBAgiBEQzUglEEAAAQQQQAABBBBAAAEEEEAAAQQQQAABBBBAAAEEEEjwAgQxEnwTUgEEELACBDH4HCCAAAIIIIAAAggggAACCCCAAAIIIIAAAggggAACCCCAgD8IEMTwh1agDAggEGcBghhxJmQDCCCAAAIIIIAAAggggAACCCCAAAIIIIAAAggggAACCCDgBQGCGF5AZBMIIOB7AYIYvm8DSoAAAggggAACCCCAAAIIIIAAAggggAACCCCAAAIIIIAAAhJBDD4FCCAQEAIEMQKiGakEAggggAACCCCAAAIIIIAAAggggAACCCCAAAIIIIAAAglegCBGgm9CKoAAAlaAIAafAwQQQAABBBBAAAEEEEAAAQQQQAABBBBAAAEEEEAAAQQQ8AcBghj+0AqUAQEE4ixAECPOhGwAAQQQQAABBBBAAAEEEEAAAQQQQAABBBBAAAEEEEAAAQS8IEAQwwuIbAIBBHwvQBDD921ACRBAAAEEEEAAAQQQQAABBBBAAAEEEEAAAQQQQAABBBBAQCKIwacAAQQCQoAgRkA0I5VAAAEEEEAAAQQQQAABBBBAAAEEEEAAAQQQQAABBBBAIMELEMRI8E1IBRBAwAoQxOBzgAACCCCAAAIIIIAAAggggAACCCCAAAIIIIAAAggggAAC/iBAEMMfWoEyIIBAnAUIYsSZkA0ggAACCCCAAAIIIIAAAggggAACCCCAAAIIIIAAAggggIAXBAhieAGRTSCAgO8FCGL4vg0oAQIIIIAAAggggAACCCCAAAIIIIAAAggggAACCCCAAAIISAQx+BQggEBACBDECIhmpBIIIIAAAggggAACCCCAAAIIIIAAAggggAACCCCAAAIIJHgBghgJvgmpAAIIWAGCGHwOEEAAAQQQQAABBBBAAAEEEEAAAQQQQAABBBBAAAEEEEDAHwQIYvhDK1AGBBCIswBBjDgTsgEEEEAAAQQQQAABBBBAAAEEEEAAAQQQQAABBBBAAAEEEPCCAEEMLyCyCQQQ8L0AQQzftwElQAABBBBAAAEEEEAAAQQQQAABBBBAAAEEEEAAAQQQQAABiSAGnwIEEAgIAYIYAdGMVAIBBBBAAAEEEEAAAQQQQAABBBBAAAEEEEAAAQQQQACBBC9AECPBNyEVQAABK0AQw78/B1evXtWlS5ecQiYxf1OnSRNtgYODgxUSEuIsFxQUpBQpUkS7DgsgEEgCFy5d0dXQa06VUtyWTLcFJY22emcvhP2bsQumSRWkpEnsvzgmBBBAAIGYCtjjrj3+2skeQdOmTu48j+4Px9/ohHgfgcQncDPncsEhV3U5JNTBSm7O/VKac0AmBBBAAAEEEEAAAQQSggDnvwmhlShjfAsQxIhvcfaHAAK3RIAgxi1h9dpGv/7qK40ZPcrZXsqUKTV/4aJotz1r5kzNm/uxs1zBggU1YdLkaNdhAQQCSeCJjsu0//B5p0pdGt2ll2oXv2H17I+Hdzea515mTKcHVfW+vO7XPEEAAQQQiF5g2Xd79Prkdc6CqVIm09oZz0S7EsffaIlYAIFEKRDbczmLNGneZk1b/IfjVSx/Rs0fUSNR2lFpBBBAAAEEEEAAgYQnwPlvwmszSnzrBQhi3Hpj9oAAAvEgEJcghr3gfuTERTWtW+K6kh48el7jP96ofDnSqXiBTNe9X6JQJuXJ7tm7w+Xgq9qy64S27TmptKmSq0zRrCqQK51ic2P6X3/9pUOHDl63v/AzMqTPoDJly4af5bfPv/pqlcaOHq3qjz6qMmXKqkrVqk5ZN23cqLPnzl5X7qxZszl38u/ctVPvTpumHDlyatKUKdctxwwEboXAjY4Jdn8zl23TH7tP6JHyeRWUzLOXituSJ1Xlu3NfV6wDR85ry84T+uf4eedYUvr2zKbHihvfZV2rwzJdNHdlt2tQRuXuyKpCudN7bDfUBC92HTijkKuhKlEwk66ZzjMWf7NL67b8oxU/7tOojg+qegWCGB5ovEAAAb8WuNHx92bOyWxlY3v8Xbpmj/pMWad6VQrp3hI5VLZ4Fm3bfSpKN3vcf6hcbo6/UQrxBgLxL3Ds1CVNWbBZTWrfofw5011XgJs5l7uZ73hRncuFXAnV5r+Oa+uuk8qYLoXKFMtivm+mdcppv0du33NKI2ZtUL5sabXgzZrXlZ8ZCCCAAAJbeitaAAA3QklEQVQIIIAAAghEFPD292lvnv/uNtcvf91+TFfMefBdxbOqWIGM7uJz/uum4EmAChDECNCGpVoIJDaBmw1inD4XrMrNFztc84fX8DgJsDOnL/lD4+dujpKz36v3qH61Iu73t5rwRfdxP2rvP+fc8+yT+0rl0PhulZQqRZDH/KhejB41UitXrIjqbWd+qVKlNXrs2Bsu4y9vuoIYnbt0dYcwbNlavtZcBw4cuK6YlSs/rG49ejjzX3zheWXIkJEgxnVKzLgVAtEdE+w+yz4/N8pdZ8uUUqsm13W/b++SnvDxJs0w4Q2FjTLivBdkupoe2eEBVbknj3vZiE/sxfukpl/8ZWNre7xly9jX3K29buthM+TPVdV6ML+Gtb3fvcy8L//SkPfWE8Rwi/AEAQQSgkB0x9/YnpPd7PHXFcQY2rqinniogGZ9tl0jP/wtSsIM6W7Tmmn1nPc5/kbJxBsIxKvA6I9+0wfLtqtK+Twa27XSdfuOzbmcXflmv+NFdi539nywOoz6Qeu3HnGXK4k54evVpJwaPFbUPe+RlkuUNX1KghhuEZ4ggAACCCCAAAIIRCXg7e/T3jz/fdf09jZxwe+6Zq6RuqaG5ry358t3e9y4yvmvS4fHQBMgiBFoLUp9EEikAjcbxJizYoeGf7DBUXuhZjH1MBfAwk/hL/pH1i1snmxp3He1nzhzWbU7LdPl4FB1aWR6fTAX/s6bu9nnfrFD81bt1ENlc2liz8rhNx/lc1cQ4/U+fZU3n+cd7VdCzB3ybdsoEIIYz9Z/WvnzF1BDE7YIP2XJnEWFi4QFXAhihJfh+a0WiO6YYPfvung/odtDypk1tUeRUt0WpHw5w+5otG+Mm7NJ7326VXcXz6aOjcooj7mz8Q9zp+OAd37WybOX9V6/qrqrWFaPbbheRHbx3vbe02LoaqcnDHu3tg152fVzm2ORa+KHQJcEjwggkJAEojv+xuaczNb7Zo+/EYMY5y6EyF7UijjtOXhGrUes0TPVCqvvq/c6b3P8jajEawTiX+CK6SnssTaf6vjpy0qWLIlWTXpSmTOk9ChIbM7l4vIdL7JzubGzN2rG0m16sVYxtXi6lA6YHhi7jPnB6b3n8/G13ed0XIj2aDJeIIAAAggggAACCNxAwJvfp715/rvJ9ALXuO8qlSqcWcPbVVRKc92039T/6afN/8h184OrWpz/uiR4DDQBghiB1qLUB4FEKnCzQYwGvb7Q0ZMXlD1Tah00QwbYO9lvM3equ6bwF/03zmngmh3p4/D3N2jOyh2K2EuGHS6g6YCvteHPo86FwGyZUkW6fviZriDG5Klvq8i/gQTX+yEhIapd6/FIgxiHDx/WXzt2KFWqVCpWvLjSpv3vB+GLFy9o967dypY9u7Jly+banA4ePKizZ86oaLFiOmh6pzh//rzz3t69e83d9pdUzMy3UxIztordpp2umUrt+PNPHT5yWJkyZlKR24uYfXr+IO0s+O+fyHrEuHjxop57pr5q1Kyptu3ah1/c4zlBDA8OXtxigeiOCXb3rov3KyfWUc4sUX/ubWiidqfPlDVjSi0ZVcvj2LJ282EnUPFs9SLq0+yeSGsV2cX7Qe/+rAVf7dKwNhVVq1KBSNfjh8BIWZiJAAJ+LhDd8Tc252RxOf5GDGJExTbQHI8Xfr1LS0Y+7h46iuNvVFrMRyD+BL755YA6jvpeD5TJpR83HTIB+bv0Uu2w7zCuUsT0XM4uH5fveJGdyzXq86W27zuln6bXV/J/v3fOX/WXBk9fr8GtKqhO5YJOMbkQ7TDwBwEEEEAAAQQQQCAGAt78Pu3N89+hM9abm1T/0uyhj6pUocxOTY6fvqQa7ZeqVMHM+mBANXftOP91U/AkwAQIYgRYg1IdBBKrwM0EMbb9fVINen6hRo8XU34zJu8wE6SwQwU8WjGfmzE2F/3tD672Dvdvpj7l8YOr3dhn3/2thd/sUqv6pXRvqezu7Uf1JLZBjODLlzVx4gSP4UySJ0+ulq1aq3adOs5utmz5XZ07dlSjFxvrpSZN3LsePGigvluzRgsWLVb/vn1ll4tssttbtvxzHTp0SAMHvKFdO3e6F0ufPr36Dxio0qVLu+eFfxJZEMMOSWKHJmn04ot6uv4zunDhgjJm/G98ONf6BDFcEjzeaoGYHBNsGWJ68X7593+r16S16vRCWb1c5w6P4oea7vhaD1+jbJlSaFCrih7vuV5EvHh/wfSwU631JyptvrhM61NFR05cUAYzrnjK25K5VnEe+SHQg4MXCCCQAARicvyNzTlZXI6/MQliHDt1STU7LNX9JXNqQo+H3MIcf90UPEHAZwKdRn6vb387qJUT6qhBr5XKlC6lFr5V06M8MT2XsyvF5TtexHM5u73mg77Rhh1H9eO79ZXi33M424Pi0BkbPIaV40K01WJCAAEEEEAAAQQQiE7A29+nvXn+22rYt/rp98PaMOtZJbXjL/87Pd/7S/1pwsnrzXzXxPmvS4LHQBMgiBFoLUp9EEikAjcTxBhhhiSZbYYmsYnM3FnSOD9wPlA6p8fwIeEv+g9ocZ+ja3vMuD1fBhXOm15BycJ6z7Bd4N770gKVLJRJHw1+NM6tENsgxrS3p2rhggWqXPlhPdewgc6dPadJJpixb98+DR4yVPfed58TsIguiHHs2DETiAjrEcMua6fRY8c6j8mDkjs9YnTp1NFs6w+1btPG2e72bds0atRI5cyRQ+9Mf89ZNuKfyIIYmzdvUu+ePZUmTRonhGF72ciQIYNeaPSiaj3xhHsTBDHcFDy5xQIxOSbYIrgu3rcwwarcWcOGBMlmer0oYf79h+/6eooZ/3Dqwi2a2L2yHiqXK9alj3jx/qdN/6il+QJT0gQxDh4/p1Nngp0utyuZOz4Hta6gDGlvc/bBD4GxpmYFBBDwsUBMjr8xPSezVYnL8TcmQYzxH2/S9E+2alrvR1ThzhxuPY6/bgqeIOATgRPm7rrqZlgSe240vvtDemvWr/pw+Z/6cHB13Vkki7tMMT2Xi+t3vIjncrYAi0xPOnaIupoP5NOrdUvqsOlBrd/UdabHQWnZ2Cfcw15yIdrdXDxBAAEEEEAAAQQQuIGAN79Pe/v81w7Bt+p/+/XttKeU0dxM5ppc5+M/zaiv1CmDnNmc/7p0eAw0AYIYgdai1AeBRCoQ2yBG8JVQVTd3lmdJn1KLTZfSdurwVtjdU1+Yu6eyZw4bPiT8Rf+ItGlSB2lk+wf1QNmcsndGVmv1iR4ul9u56Bdx2di+jk0Qww4lYof4yJkrl941QQg7hIid7JAjTV9+WSVKltCYseO0bdtWdWjXTs8+95xebf6au0jhe8RIly6de37b1q21f/9+Lfn0U/c8++TjOXNke8AIH5YY8EZ//fjDD5q3YKETpvBYwbyILIjx/fffacSwYcqRI6ceePABXb502Vnusundo0evXqpUKewOU4IYETV5fSsEYnpMsPt2fVmIrBzV7smrYWbMQ3uH4+Dpv2j+qp0e3e9Ftk5U8yJevP/0293qa8ZRtNOjFfKpYukcWmtS5V+u26f778ypqb0fdt7jh0CHgT8IIJBABGJ6/I3pOZmtdlyOv9EFMWzvRI+2/VR5TBBv3vAaHsocfz04eIFAvAvMXLZdoz76TW+1f0CP3Z9Pf+w+qed7f6GIQ8HF9Fwurt/xIp7LuUBs8OKTb/e4XjqPC0bUUNH8//UOyIVoDx5eIIAAAggggAACCEQi4O3v094+/53x6VaNnbNJ9ma21s+E9aTtOke31Vn3wTPunn45/42kgZkVEAIEMQKiGakEAgjENojx5dp96jruR3VoWEZN65ZwAF3z2je4U82eKunMC3/Rf8X42s688+YC/G/bj2nkR78qxPSEsXD4486d6I+0WKIHy+bS5J6V49wgsQlibP3jD3Xs0F7Pv/CCXn6lqce+27Vprb1795owxVLZgEO9uk+qZKlSGjlqtDuwEdsght3Brl079cP3P+jIkcO6dOmS1nz7rbPfmR9+6AQrPAphXkQWxLDLHDlyxAl1pEyZ0lnljy1b1KN7NxUvXlwjR49x5hHEcBj4c4sFXP/+ozsm2GK4Lt7P6F9VubKklrmBUX8fOuuMefjN+gOq81ABDW5dUcNMF9Mfm66mZw2qrjK3/3cXZkyrEvHi/Xvm7utx5i7swrnTa/GosACZ3darpovrn/84ok9G1VLB3OnED4ExFWY5BBDwB4GYHn9jek5mj4NxOf5GF8Rw/dA7uFUF1alc0IOQ468HBy8QiHeBp7utMD1MnNfXU55yD/vhmveVmecazi2m53Inz1xWXL7jRTyXsyDLfwgbuq5Yvoy6p2Q2Xbp8RZ+aYSyLmxCG/R7pulOQC9Hx/vFhhwgggAACCCCAQIIT8Pb3advbrjfPf8+eD9ZTXT93bmK1N7CmTpVMq345oJDgUAUlT6L1M59zm3P+66bgSYAJEMQIsAalOggkVoHYBjEqvrJAFy9dVYmCmdxDC1wMvqofNx1yCH+b3cAEFaTwF/03zmngweu62N6zyd1qWKOo7m+6QPmyp9N8czdTxCk09JoumotstyVPpuRmaJPoptgEMdb+9JP69+ur5i1a6Jln/htXze6jT+/e+vnn/zm9WqRKlVp9+7yu/61bp7vLl9cdd9yhM2fOaNnSpU5xFixarJj0iLFgwXy98/bbzrKlS5c2j+n1xRcrnW3ENojhrBThT+tWLXXcDJEyd/4C5x2CGBGAeHlLBGJ6TLA7d128XzmxjnKaIIZrumr+nddst1TBV65q9dR6mvWZGbbno40a3elBVbsvr2sx9+Mlc8yxxwZXF3zuN/59EvHivSuI0bfZPXqmehH34nPMEEvDzVBLY8x+qpr9uI5Nozo+qOoVrt+ve0WeIIAAAn4gENPjb0zPyZ6vWVQzl9388fdGQQzbTas9Nttj9+fj61x3Tsfx1w8+UBQh0Qps3nlcL/ZZ5dTf9lDmmr76Zb/ztOPzZfTKk2EB/Jiey9kV4/IdL+K5nB1+5OEWi5XK9Jy28M3HlTZ1cqdsruNOl0Z36aXaxZ15XIh2GPiDAAIIIIAAAgggcAMBb3+fjutvHBHPf23RDx09rzFzNmrTjuPKlC6lalcqoEXf7HJubFv0Vk137Tj/dVPwJMAECGIEWINSHQQSq0BsghhHzDi8j5qxg+1ULFz3r/b1n3tP2Qe9Z+50L39HthsGMb7/7ZDajFijF2sVU7fG5dSw1xf6c98prTRDm2TLFDa0ibMx82ec6YLrPdMV17gulfTIPXlcs6N8jE0QY+fOnWrdsoXq1XtaLc1wIuGn5s2a6uTJk7IhCzsFm14xpk6dqo2//apDhw4pbdp0On06rM4xCWLY9es9VVd58+bV2PETlCpVWD1dAY/YBDFsQOT8ufN6pEqV8EU2w6e0dYZVmb9wkTOfIIYHDy9ugUBsjgl291FdvLfv2R8A7A8B309/WutNLxUdRn2vho8VVa9X7rZvu6dzF0L0cMvFKponoz4e9ph7fvgnEb+8rPhxr3pM+EmvNy2v5x693b2oK4gxodtDqnx3boIYbhmeIICAvwvE5vh7oyBGxHOy1eYOm5s9/rp+EB1qejZ6wvRwFH761Awl0NcMKRC+97Tw7xPECK/BcwTiV8A1JJHda/jveAePndO5C1eUJ3saLR8X1sNhTM/l0pmgRFy+40U8l/vn+AXVaLtUNcywKW+a4VNc06mzl/Xwa0tUtXwejelayZnNhWiXDo8IIIAAAggggAACkQncqu/T3jz/jazcO8zvL8/0WKkGj92u3q+Udy/C+a+bgicBJkAQI8AalOogkFgFYhPEcN1VPqDFfXrqkUIeZOu3HVXTAV+r7sMFNbBlhSiDGPZuph4TftTKn/bpjdfuVb0qhTV/1V9mTPL1ql+1kPq+ep/To4bduO3S9vnXv9DJc5e15u16Tje5oaGhunr1qoKCgtxDhIQvSGyCGMHBwXqhYQMlS5ZMMz6YqdSpw+7Q37x5k7p27qyKFe/XgEGDwm/e43lshiY5cOCAmr7cRJUqPaS+/fs727HhjDq1n3CefzDrQ+XMmdNj+/ZFZEOTjB092pk/YdJkFSxY0FnHDlXyWvNXVbhQIY0eO86ZRxDDYeDPLRSIzTHBFiOqi/db95zUi31XKUuGFPpi4pMKDrmqJ7ss1+lzwZo96FEVypPeXYv3l27TmNkb1ebZ0nrt6VLu+eGfRLx4b79gPd5xqYrlzaSPhlRXUtttj5laDFmttb8fNndn11bubGkIYoRH5DkCCPi1QGyOv1EFMSI7J4vL8TeqIIbdzzPdV2j/0XPOMd522RpxIogRUYTXCMSPwGXTy1jVVkuULs1t+nxcHff3MNfem5th3P639YiWj63tBDJiei5n14/NdzzX/lyPEc/lbG86lU2PGNkypNKCN2sqWdKwc7m1mw+rxdDVeqXOHer4QllndS5EuxR5RAABBBBAAAEEEIhM4FZ9n/bm+W/Ech86dkGdzE1rO/af1sIRNZ0hll3LcP7rkuAx0AQIYgRai1IfBBKpQGyCGHU6fWbGDr5oxg6u6+4O1sVmL7LX6rBUJ8xdSd+YcYTnrPhT4+dudt5uWT/sx9JzF0O0Yesx/bH7hArnTu/czZ7CdC9rhyVobH6E3bLrhB4sm0uV7sqpk2eD9cXafdpz8Iy6m14zGpneM+w084P3NX/ePE2cPEUFChRw5oX/E5sghl3v008+0aSJE1TIBBieqF1H58+f17y5H+uyCUnYfdj5UU2xCWJcM0CNnm+oEydOmP3UVubMWfTdmm+1e/duZ/OTp76tIkX+GzLBtc/Ighh/bNmiXj17KGPGTHq6fn2lSJFCixYt1KGDB9W1W3c9/MgjzuoEMVyKPN4qgdgcE+wwIq6L989UK6ysGVM5XenZf+M/bDzk3HE5qOV9evLhsH9zq9btV7fxPyp92uSq93BhZyiTLbuOO2OBF86VXu/2q2KCGykjrVrEi/d2oeHvb9CclTv0QJmc5m7K/M5wSjYQVvOBfBrRLuzOSn4IjJSTmQgg4IcCsTn+xuaczFb1Zo+/UQUx1mw4qHZvfacGpkei3qZnosgmjr+RqTAPgVsvsPz7v9Vr0lq9+lRJtWtw53U7/GT1bvV7+39O+NWGYGNzLheb73gRdxzZudygd3/Wgq92qWLpHOb8Lb9sbxgzzHBK5y+F6P3+1XRnkSzOZrgQHVGT1wgggAACCCCAAALhBW7V92lvn/+GXAnV+I83acfe09q085guXb6qHi+VMz1iFA1fHXH+68HBiwASIIgRQI1JVRBIzAIxDWJsNGORvdRvlcePlhHdJs3brGmL/9Ag0yPG0ZMX3EEM13LJkiVRvhzpdP+dOWTDGRnTpXC9JXs31qgPf9OKtXt12oQw7LLF82dyutoK3/vGO9PedsIT7773nnLkuL4HiZgEMUrfeadGjR7j3vfny5frg/dnOEORJDF3ytuAR8dOnVWiZEn3MpE9GTpksL5dvVqLlnyiNGnSuBdpa4Y5OXTooBYuXuKeZ5/s2rVTQwcP1r59+5z5txctqty5cmuNCWR06dZNjz1Ww2N5+yKyIIad/8MP32v6O+/o6NGj9qXSpUunRi82dkIezgzzhyCGS4LHWyEQ22PCk6a3HNfF+/DlyZj+NhPMyuDcyWiHBwk//WKGKHlz5q9m6KLTumYCW7bHjPIlspvhSsorc/r/jh/h17HPI7t4b++kHP3RRi1evdMJfSS/Laker5jPbOse2ZCInfgh0GHgDwII+LlAbI+/sT0ns9W/meNvVEGM10zvQ+u2HNbS0bWUP2e6SHU5/kbKwkwEbrlAq2FrnHDqklGPq5AJykeczpsgfdVWnzjnXZ+PrxPrc7mYfseLuN+ozuXGmQvRn367WydMz4lJTK8YRUyZezcr7wyN6doGF6JdEjwigAACCCCAAAIIRBS41d+nvXn+a8/Fq7T8RAXM9+giedPp5SdL6I4CmSJWiSDGdSLMCBQBghiB0pLUA4FELhDTIEZ8MtmutuyPrLa3jIhT1y6ddfiffzTro9kR34rz61OnTjlDnqRNmzbO27rRBs6cOeMMq2LDE9FNUQUxXOudPHlSdriWLFnC7gBzzbePBDHCa/A8IQtcuHRFZ88HK0eWsOGDoqtLZBfvXeuEmt5pjp28pMwm1BGULKlrtvPID4EeHLxAAAEEFJvjb1RBjJgwcvyNiRLLIJCwBW70HS9izW50LmeXPXz8gjOciitMG359ghjhNXiOAAIIIIAAAggg4CsBb5z/2l7I/x1hOcpqcP4bJQ1vJHABghgJvAEpPgIIhAn4YxAjqrbZvn27unbupJatWnv0/BDV8oEw3xXEyJAhgxmKJKMzXEp09Vq69FN9umSJDh8+rHz58mvSlCnRrcL7CASUgL14/4+5QJ87a2o1q1tS9aoUvmH9bDijXtcVOnPusnOH5aiOD6p6hbw3XIc3EUAAAQQ8BVxBjEwm6JYtQyrNH3F9T1+ea0gcfyOK8BoBBKxAbM/l7DofmyHoPvx8u/YfvaDb86TXgjdr2tlMCCCAAAIIIIAAAgj4vQDnv37fRBTQBwIEMXyAzi4RQMD7AgkpiGFrv2HDet19d+Tji3tfx/db3LZtq776cpVTkJSpUqrZq82jLdS6tWv1y88/O8tlzpJZz7/QKNp1WACBQBKYMHezTptQhZ1q3p9f95TMfsPq2R8Ch7633r1M/WpFVKLg9V39uRfgCQIIIIDAdQK2i9ela3Y78+1d6p0b3XXdMhFncPyNKMJrBBCwArE9l7PrrP7lgL7feMg+VfaMqfSaGQqTCQEEEEAAAQQQQACBhCDA+W9CaCXKGN8CBDHiW5z9IYDALRFIaEGMW4LARhFAAAEEEEAAAQQQQAABBBBAAAEEEEAAAQQQQAABBBBAwOcCBDF83gQUAAEEvCFAEMMbimwDAQQQQAABBBBAAAEEEEAAAQQQQAABBBBAAAEEEEAAAQTiKkAQI66CrI8AAn4hQBDDL5qBQiCAAAIIIIAAAggggAACCCCAAAIIIIAAAggggAACCCCQ6AUIYiT6jwAACASGAEGMwGhHaoEAAggggAACCCCAAAIIIIAAAggggAACCCCAAAIIIIBAQhcgiJHQW5DyI4CAI0AQgw8CAggggAACCCCAAAIIIIAAAggggAACCCCAAAIIIIAAAgj4gwBBDH9oBcqAAAJxFiCIEWdCNoAAAggggAACCCCAAAIIIIAAAggggAACCCCAAAIIIIAAAl4QIIjhBUQ2gQACvhcgiOH7NqAECCCAAAIIIIAAAggggAACCCCAAAIIIIAAAggggAACCCAgEcTgU4AAAgEhQBAjIJqRSiCAAAIIIIAAAggggAACCCCAAAIIIIAAAggggAACCCCQ4AUIYiT4JqQCCCBgBQhi8DlAAAEEEEAAAQQQQAABBBBAAAEEEEAAAQQQQAABBBBAAAF/ECCI4Q+tQBkQQCDOAgQx4kzIBhBAAAEEEEAAAQQQQAABBBBAAAEEEEAAAQQQQAABBBBAwAsCBDG8gMgmEEDA9wIEMXzfBpQAAQQQQAABBBBAAAEEEEAAAQQQQAABBBBAAAEEEEAAAQQkghh8ChBAICAECGIERDNSCQQQQAABBBBAAAEEEEAAAQQQQAABBBBAAAEEEEAAAQQSvABBjATfhFQAAQSsAEEMPgcIIIAAAggggAACCCCAAAIIIIAAAggggAACCCCAAAIIIOAPAgQx/KEVKAMCCMRZgCBGnAnZAAIIIIAAAggggAACCCCAAAIIIIAAAggggAACCCCAAAIIeEGAIIYXENkEAgj4XoAghu/bgBIggAACCCCAAAIIIIAAAggggAACCCCAAAIIIIAAAggggIBEEINPAQIIBIQAQYyAaEYqgQACCCCAAAIIIIAAAggggAACCCCAAAIIIIAAAggggECCFyCIkeCbkAoggIAVIIjB5wABBBBAAAEEEEAAAQQQQAABBBBAAAEEEEAAAQQQQAABBPxBgCCGP7RCAihDyhQplC51Wh09eTxeSpsvR251bdxC3ccN0eWQ4HjZpz/vZFCrbvpk9Ur9snWTPxfTp2UjiOFTfnaOAAIIIIAAAggggAACCCCAAAIIIIAAAggggAACCCCAAAL/ChDE8JOPwtNVHlfbBq/o2/U/6dipEx6lmrV8kc6cP+sxL75fDG/XS+WKl1aNto1u+a4zpsugd/u+paBkydSkf0edPufbut/yCsdgBxN7DFGx/IXV/q0+2rZnZwzWSHyLEMRIfG1OjRFAAAEEEEAAAQQQQAABBBBAAAEEEEAAAQQQQAABBBDwRwGCGH7SKrMGjlOe7Lmc0oSGhnqUqsPIftqy60+PefH9Yny3QSpeoHC8BDEGteymB8reo46m3pt3bo/vqvrl/jKnz6iZ5jNy6uwZvfxGR125etUvy+nLQhHE8KU++0YAAQQQQAABBBBAAAEEEEAAAQQQQAABBBBAAAEEEEAAAZcAQQyXhI8fXUGMn7f8ph4Tht6wNMmSJlOaVKm91ktG+jTpdP7iBV0Nvf7H/SRJkihD2vQa1LKripkgRv3urykkJOSmhguJSbnzZMvpBA5W//KjBk0fd0OHyN7MaMp62vQecu3atcjejnbejSxsDx1h7uduevvRFuAGCzR6vJ6a1X1eA98Zo9Wm5xQmTwGCGJ4evEIAAQQQQAABBBBAAAEEEEAAAQQQQAABBBBAAAEEEEAAAd8IEMTwjft1e41JECMoKEjtzfAlVe+tpNQpU+nIyeOaMv8DfbthrbO9CabXipxZsuvZni2c102fbKBnH62jdZs36I1po6/bZ60HquiVJxsqS8ZMCjbhinW/b9CoD6e5Ax5V7nlAnRu95oQPwq9se+z4/MdvNPqjaU4gwe43e+asatCrlbNY9fsqqUvjlvrxt5+dMEXa1GnUxWynYpnySpH8Nh05cUzvLpmjVf/7LvxmnefNn3pBz9d8Sq9PGq6fTLld05jO/VW2WCnn5eWQYOfx122b1XvSCOd5zfsf0WtPN5Id1uRS8GWtMOWbbGxszxG2fKWKFHeHR2wZ7PTZ91+Z+r7tPL+Rhe2NomvjFipfooySByXXhUsXNWfFEn20YrEJqaTTjP6j9Y0JjkyYO8PZ1huvdVGFO8tpxPuT1L5hU6UybeXap13Aln+7GV5k2IyJen/AGKes4+ZMd9YN/8cOB1OmaEnVat/YmW2NPx46Weu3blK3cYPDL8pzI0AQg48BAggggAACCCCAAAIIIIAAAggggAACCCCAAAIIIIAAAgj4gwBBDH9oBVMGVxDDFseGK2x/DgeP/qNt5gf7E2dO2dlqWb+xnjPBis1/bdXfhw6YQMaDSpUipVoO66kde3fr7d4jlDNrdtXt/Ioq3XWvBrTo6gxlYd8/akIb4acKpctpWNteOnv+nJb/8LUZdqSI7ipeShu2blbXcYOUKX0GzR480QkeLFm9Qk9XreWsPnPZfD1RqboT3hg2Y4K+XPeds98cWbLqqS7NlC5NWn3wxhgnEPH9b/9Tv6kjZYMJle+uoI1/bnHqU6tSNaU1PXq0GNpDf+3bE75YGtH+dd19R2k90eElJxzienN0p/5O+ezyh44d1kPlKrgDCeXvuFNvdeyrk2dOa+Xa1apQ+m4Vyp1Pk+a9r4VfL3fKVzR/Ic3/cqmzORsMefzBqnKVLzqLHk1aq4YJetjeSmx71H3kMdmeM15+o5NCrlzRR4MnaOmaLzVm9jt66K77NMD0HmKnwaZHjzQmhGHDMTZcYqftf+90jG17rDXBl9lDJmm5CYSM/DcQ4iz07x9b57LFSqpaqwbu2dP7jZINhtTr2sw9jydhAgQx+CQggAACCCCAAAIIIIAAAggggAACCCCAAAIIIIAAAggggIA/CBDE8IdWMGUIH8QIX6SQKyEabnpO+MYMRWFDCvZH+FYmWGF7eqhS/n71bd7J3bODK4jR7s0+mtxzqAlRBKnz6AHasutPlSpUVKlN+MFOl4OD1ajW07q3ZFl1GtVfG3dsVdKkSTWpxxAnkNF0YBfzWFg9mrTRgq8+c3qW+HrqPGfdqi2fUzkT2BhlQgKuIIPdryuI0f2lVqppetqwk33f9jix6K13tfefA3p1UDdn+JNHTLn7mXKP+egdLf3uS2dZ158PBoxV6hSp3L16uObb5e16z5ihUU6ePa2vpsx1BzGGtumhineWV7sRr2vL7h3KkiGT5g6bYkITf6mtsXC52ICKnezwIkvHvO8uv3W9kcWDZe5xgilTFsxyyv960/aqZnv9GDNA/xw/5g5ivL3oQ71vQihZM2Z29mODGF///IPzvFFNM6zIU8+r29hBWm968rBTzizZnCCG7WHEOtm23nlgr/Yc3Of0NBJZEGNom56mrnerVofGunT5srMd/oQJEMTgk4AAAggggAACCCCAAAIIIIAAAggggAACCCCAAAIIIIAAAv4gQBDDH1rBlMEVxNhtfojvPn6IGc4ipe4tUVatn2vi9AzxZKdXnBCALW6H55upZKFiTtCioOn54cCRQ2rcr4NmDhinvDlyuWs0ctZUp7cLO2P5+FlKeVsK5z27vB1iwwYS6nR62Zln/zR8rK4zvMeAaaNUIFc+vVznOfWaOMwMWfKrwgcxkiRJos/Hf6g9h/ap5dCe7h4x+r89WnYIkd0mSGB7pLBBjI9XfqKJJuAxf9UyTVkw09mXXd/2iHHu4gUncOAugHny2biZTo8XNrQRfnINTfJ4uxcVbAIL4YMYrrIdO3XCvYoNQ9heJ+xwKdEFMexwHzey+HbDOpUoeLsmmXCLa7LDk9Q3oRAbjHH1iBF6LVR1H67hBClsu8Q0iOHapuvxKzNky1ATvhlpevm4ywzHEr5HDFfQ5aX+HbT/8CHXKjwaAYIYfAwQQAABBBBAAAEEEEAAAQQQQAABBBBAAAEEEEAAAQQQQMAfBAhi+EMrmDK4ghh2+IseE/77wX9Qq256sOy9em1ID+3cv0fJTM8VzZ96QXlM4MKGKWxPDna4i1bDeml635EqlCe/u0bLvlul0R9Nc17bHjGSmHXtdPTkCY3rNlDJkwWZMEFzZ57908AMe9LCDH8y8J0xymWGOGler5HT68Ov27d4BDHsssvGfuAEDlw9TuTLmVvHzHZtLw+dRr+hCd0HO0GMuSaIMcEEMeaZYUGmLpxlV73hNG/4VCd48mLfdu7lbHBj/oi3nde2Rwz7OnwQ48vJc4xLMqdnEPdK5onthcMGQKINYpjeM25ksdr0RmKDJXZYENd0NfSqXhnQWVevhjpBjJ37/1ZhY//n37uc8EunRs1jHMT435ZfNXb2u8qeKYu6NG6pfDlyq5nplaRdg6bXDU3i6hnEtpsdioXpPwGCGP9Z8AwBBBBAAAEEEEAAAQQQQAABBBBAAAEEEEAAAQQQQAABBHwnQBDDd/Yee44siJHC9GDxdu/hyp8zjxr1aafO5sf9O0zPDPW6vaorV66ocrkKeqNFFy3//iuNNENbuAIHTU1AYKpZzw7RMf7j6VqyeqXHvuyLkR366u4Sd6rN8N7aaobwsOGG8V0HqlSR4mo2qKvK3H6H6XnjVU1b9JE+/uITjyCG7e3hPRNK+PmPjepheu+w+y2av5Czj1mfLdA8E35wDf0x+sNpWjTyXRMi+duESbo7PWCULVpC7Rs204ylc01Y42ePsk3oNkiF8xbQEx1ecs+vULqchrXt5R5KJGIQw9VbRlszNMkfZmgSO9nyHzh6WMdPn3S7RDU0SXQWDarXUcjVK87wIXbbLz3xjNNbyBgTcvll62YniGHn23CGDcQUL1BEXV5sEeMghqv97DbaPNtE9as9odcnDdezZr9li5X06BFjTOc3VMKEah5v/+J1vYnY9RPzRBAjMbc+dUcAAQQQQAABBBBAAAEEEEAAAQQQQAABBBBAAAEEEEDAfwQIYvhJW7iCGLY4c7/4VKlSpFS5O0o7vSNsNeEC2/NEq2de0jPmR/qNf27Rph3bVK9KTaVNnUath/fStj07PQIHJc2P9WO6vKGkpheMHuOGaMP23z1q+mDZezSoVXenV4UfNv4sO5RHxTvvNtvdqo6j+iun6RHjw4HjnWFAbHma1H7WWf9t06tFrUrVnHJNnDtDi7753B3E2Hf4oOyQIrclT+4OYvSbOlKDW3fXA2Xuke35Yc/B/ap2XyUnJOIKgYQvWK9X2urRCpXV1PQIsccMcfJk5UfV8YWwXjs2/vmHKd8fZvEkavxEfWe1zqb3jcwmcNKnWQedOX9WS75ZoUxmuJAnTBl/Mz15dB03yMPFrmSHIXEFRWz5orOwIRAbBvnW9IyxzYRW6lV5XNkzZ3VCKPuP/OMOYlintxd96Ow7NkGMHXt3a+3m9U49alR8WKHXrpngTVu93rS9RxAjKChIS0ZOd4Zcsb1xMHkKEMTw9OAVAggggAACCCCAAAIIIIAAAggggAACCCCAAAIIIIAAAgj4RoAghm/cr9tr+CCG683jp05q/bZNTq8UJ86cUorkt6nHy21UyQxVYn+UP3v+nCbNe19frFvjrGJ7S7BDijTs3dp5XfP+R9S9SWudOntGz/Zo4fTY4Nq2fXzqkRp65cmGSmfCHKGhoVq/dZNGfDBZdl/O+w/XUEsT/rDBivDTNRMU+O7XdRo6Y4IzjIjdbxnTy4UNRWw0QQ5bzk/HzNC633+VDTpkSJtOPZq00b2lyjpDiNghNaaZwMLKtd+G36zz/IEy5U1wo4emfzJHH32+WJN7DnV6AbluwX9n/LjpF/WZ/KaeNQGVxqanChuysD1m2PDK8PcnyYZDIrrY8tkgxtrfNzjls5u6kUWe7LlM+VurVOFizrZDroRo0dcmgGLqkCtrDieI8c+xI3rFhEcuB19WlXseUN9XOzq9Wvy0eYNT0nqP1FS7hk3Vbewg06abnXkZ02XQwjenOdu0M2yPGnv/OajpS2brx03rnQBL2aIlVafTy87ydhiaEe1f18xl8/W++Z/JU4AghqcHrxBAAAEEEEAAAQQQQAABBBBAAAEEEEAAAQQQQAABBBBAwDcCBDF84x6nvdogQYZ06XXkxLE4bce1crZMWUxvEuecEIFrnusxKFkyZTXv93+1k4rkK+j01HDx8iWdu3DetUiMH22505tQxtGTx6Ncx/bgMXvwRCf88WLf9mpWt6HTA4WrhwzXinbYls/HzzKBhbAghp1vAxhpTRDjqgmVXLh00bVorB5vZGF7KUmfJp0Z7uSErly9GqvtemPhsV0GmKFjiumF19ve0NAb+0qI2yCIkRBbjTIjgAACCCCAAAIIIIAAAggggAACCCCAAAIIIIAAAgggEHgCBDECr01vSY3Gdxuk4gUKq0bbRrdk++E3WtEMAzKkTU+t/uVHHT11Qs89Wsc9VIlrOdtLx2fjZjq9btgeMQJ9eq56HdM7SWPN+HSuZi1fGOjVvan6EcS4KTZWQgABBBBAAAEEEEAAAQQQQAABBBBAAAEEEEAAAQQQQAABLwsQxPAyaKBubmDLriqSt4DpEaNdvFTxhZpPmd4wnleT/h2doVN2HdiryyHBHvvOmyOX83r/4UMe8wPxxcI339Fv23/X4PfGyw4Nw3S9AEGM602YgwACCCCAAAIIIIAAAggggAACCCCAAAIIIIAAAggggAAC8S9AECP+zdljDAUK5c6n3Qf3xXDpwF6soLHYg8UNG5kgxg15eBMBBBBAAAEEEEAAAQQQQAABBBBAAAEEEEAAAQQQQAABBOJJgCBGPEGzGwQQuLUCBDFurS9bRwABBBBAAAEEEEAAAQQQQAABBBBAAAEEEEAAAQQQQACBmAn4JIjRoMtrui1VipiVkKUQQACBGAiULlhMIZeCNWnAmzFYmkUQQCAxCFwNvaakSZLI/MeEAAIIIBBPAnYUvVDzJ1lSDr7xRM5uEAhYgVBzLmenpBxPAraNqRgCCPingD3+2iMw53P+2T6UCgEEAlfAnv7aoek5/gZuG1OzxCfw8bJFOnriuLo0ax1t5ZOYA0DYt+BoF416gb8P7leDLs2VLCgo6oV4BwEEEIilwD13lJGuXtVbvQbHck0WRwCBQBW4Ghr6bxCDHwMDtY2pFwII+KPANdkgXLKkSf2xcJQJAQQSkIA9l7MTx5ME1GgUFQEEAkIg1Bx/w4IYnM8FRINSCQQQSDAC9qaGsCAGx98E02gUFIFoBD5f/aV27dutTk3jMYjR0PSIkSpD2miKxtsIIIBAzAWK5Mir86fPavbYd2K+EksigAACCCCAAAIIIIAAAggggAACCCCAAAIIIIAAAggggAACXhYYN2Oq03Nsp6atot2y13rEIIgRrTULIIBALAUIYsQSjMURQAABBBBAAAEEEEAAAQQQQAABBBBAAAEEEEAAAQQQQOCWCBDEuCWsbBQBBOJbgCBGfIuzPwQQQAABBBBAAAEEEEAAAQQQQAABBBBAAAEEEEAAAQQQiEyAIEZkKsxDAIEEJ0AQI8E1GQVGAAEEEEAAAQQQQAABBBBAAAEEEEAAAQQQQAABBBBAICAFCGIEZLNSKQQSnwBBjMTX5tQYAQQQQAABBBBAAAEEEEAAAQQQQAABBBBAAAEEEEAAAX8UIIjhj61CmRBAINYCBDFiTcYKCCCAAAIIIIAAAggggAACCCCAAAIIIIAAAggggAACCCBwCwQIYtwCVDaJAALxL0AQI/7N2SMCCCCAAAIIIIAAAggggAACCCCAAAIIIIAAAggggAACCFwvQBDjehPmIIBAAhQgiJEAG40iI4AAAggggAACCCCAAAIIIIAAAggggAACCCCAAAIIIBCAAgQxArBRqRICiVGAIEZibHXqjAACCCCAAAIIIIAAAggggAACCCCAAAIIIIAAAggggID/CRDE8L82oUQIIHATAgQxbgKNVRBAAAEEEEAAAQQQQAABBBBAAAEEEEAAAQQQQAABBBBAwOsCBDG8TsoGEUDAFwIEMXyhzj4RQAABBBBAAAEEEEAAAQQQQAABBBBAAAEEEEAAAQQQQCCiAEGMiCK8RgCBBClAECNBNhuFRgABBBBAAAEEEEAAAQQQQAABBBBAAAEEEEAAAQQQQCDgBAhiBFyTUiEEEqcAQYzE2e7UGgEEEEAAAQQQQAABBBBAAAEEEEAAAQQQQAABBBBAAAF/EyCI4W8tQnkQQOCmBAhi3BQbKyGAAAIIIIAAAggggAACCCCAAAIIIIAAAggggAACCCCAgJcFCGJ4GZTNIYCAbwQIYvjGnb0igAACCCCAAAIIIIAAAggggAACCCCAAAIIIIAAAggggICnAEEMTw9eIYBAAhUgiJFAG45iI4AAAggggAACCCCAAAIIIIAAAggggAACCCCAAAIIIBBgAgQxAqxBqQ4CiVWAIEZibXnqjQACCCCAAAIIIIAAAggggAACCCCAAAIIIIAAAggggIB/CRDE8K/2oDQIIHCTAgQxbhKO1RBAAAEEEEAAAQQQQAABBBBAAAEEEEAAAQQQQAABBBBAwKsCBDG8ysnGEEDAVwIEMXwlz34RQAABBBBAAAEEEEAAAQQQQAABBBBAAAEEEEAAAQQQQCC8AEGM8Bo8RwCBBCtAECPBNh0FRwABBBBAAAEEEEAAAQQQQAABBBBAAAEEEEAAAQQQQCCgBAhiBFRzUhkEEq8AQYzE2/bUHAEEEEAAAQQQQAABBBBAAAEEEEAAAQQQQAABBBBAAAF/EiCI4U+tQVkQQOCmBQhi3DQdKyKAAAIIIIAAAggggAACCCCAAAIIIIAAAggggAACCCCAgBcFCGJ4EZNNIYCA7wQIYvjOnj0jgAACCCCAAAIIIIAAAggggAACCCCAAAIIIIAAAggggMB/AgQx/rPgGQIIJGABghgJuPEoOgIIIIAAAggggAACCCCAAAIIIIAAAggggAACCCCAAAIBJEAQI4Aak6ogkJgFCGIk5tan7ggggAACCCCAAAIIIIAAAggggAACCCCAAAIIIIAAAgj4jwBBDP9pC0qCAAJxECCIEQc8VkUAAQQQQAABBBBAAAEEEEAAAQQQQAABBBBAAAEEEEAAAa8JEMTwGiUbQgABXwoQxPClPvtGAAEEEEAAAQQQQAABBBBAAAEEEEAAAQQQQAABBBBAAAGXAEEMlwSPCCCQoAUIYiTo5qPwCCCAAAIIIIAAAggggAACCCCAAAIIIIAAAggggAACCASMAEGMgGlKKoJA4hYgiJG425/aI4AAAggggAACCCCAAAIIIIAAAggggAACCCCAAAIIIOAvAgQx/KUlKAcCCMRJgCBGnPhYGQEEEEAAAQQQQAABBBBAAAEEEEAAAQQQQAABBBBAAAEEvCRAEMNLkGwGAQR8K0AQw7f+7B0BBBBAAAEEEEAAAQQQQAABBBBAAAEEEEAAAQQQQAABBMIECGLwSUAAgYAQIIgREM1IJRBAAAEEEEAAAQQQQAABBBBAAAEEEEAAAQQQQAABBBBI8AIEMRJ8E1IBBBCwAgQx+BwggAACCCCAAAIIIIAAAggggAACCCCAAAIIIIAAAggggIA/CBDE8IdWoAwIIBBnAYIYcSZkAwgggAACCCCAAAIIIIAAAggggAACCCCAAAIIIIAAAggg4AUBghheQGQTCCDgewGCGL5vA0qAAAIIIIAAAggggAACCCCAAAIIIIAAAggggAACCCCAAAISQQw+BQggEBACBDECohmpBAIIIIAAAggggAACCCCAAAIIIIAAAggggAACCCCAAAIJXoAgRoJvQiqAAAJWgCAGnwMEEEAAAQQQQAABBBBAAAEEEEAAAQQQQAABBBBAAAEEEPAHAYIY/tAKlAEBBOIsQBAjzoRsAAEEEEAAAQQQQAABBBBAAAEEEEAAAQQQQAABBBBAAAEEvCAQmyDG/wEAAP//H3mRhAAAQABJREFU7N0HeBTVGofxj5rQe++9996lg4DSERURQaVaKCKKFURAehUQ0YuIUqT33qX3Kr333kK955w4627YJJtkk+wm79zH7O7s7MyZ3+wdZmf+850Yz9UgYRxOnT8rr3V7T+IlSRjGOfFxBBBA4D+BHGkyyr1bd+T3YRP+G8kzBBBAAAEEEEAAAQQQQAABBBBAAAEEEEAAAQQQQAABBBBAIIIFhk/6UZ6peMXH73QIdskxCGIEa8QECCAQSQIEMSIJnsUigAACCCCAAAIIIIAAAggggAACCCCAAAIIIIAAAggggICDAEEMBw5eIICAtwoQxPDWLUe7EUAgMIH7D5/I06fPzNs+cWNL3DgxA5s0ROP9Hj+VR4+ems/EiR1TfH1ih+jzTIwAAghEZYGnT5/L/YePzSrGiBFDEsaP47bVZf/rNkpmhAACCCCAAAIIBCoQnsdzd+49si03gTpOjKmOFxkQQAABBPwFwutcpp47+1++Zd4qQBDDW7cc7UYAAQcBghgOHLxAAIEoIFC9wyw5c+muWZNPW5eQd17N75a1Gj51l4yevtfMK2+WZDJ3aH23zJeZIIAAAlFBYM7q49JjxAazKvHjxZZdU1q6bbXY/7qNkhkhgAACCCCAAAKBCoTX8ZwOeORr9pttuaM/qSI1y2a2veYJAgggEN0FwutcJvvf6P7N8u71J4jh3duP1iOAwL8CBDH4KiCAgLsE9Embi9fuy/tNCjqd5c9zDsi+41elesnMEltVlLAffOLEkpdKZrAfZZ6fVYGKvUevyYWr9yRv9mRSOGdKSRgv6Lusq3X4S+6pqhjdXi8mJfOnluwZkjjM99yVu3L28j0pUyCNw3j9Qv9AWbfrvBw/e0viqYoXpQumkRwZ/T+/79g1OXD8unw3aatkSp1I5g9r8MLnGYEAAghEhkBQ+9+zl+/KkCk7JEvaxJI3a/IXmlcge3LJmCbhC+NDuv+dveq4fDJygzStnkPKFkwrr1TJ7jBPa/9aPG8qSZwgrsN79i+cTcf+116I5wgggAACCCAQ1QSu3HggI//cbW4iyJou8QurF5rjOT9VzXGP+g17UP2G1b+hi+VJJVnTJ5agClGE9XhOnw/YcfCyXFbrkzdbMimaK6WpJKm6d5fpy/+RTXsvyIL1p2RkjypSuxxBjBc2NCMQQCBSBNz9ezo0+9+wnMvUaKcv3lH73yty+/4jya9+4xdR+19dzZf9b6R8pViomwQIYrgJktkggEDkChDEiFx/lo5AVBG4ecdPSreeZlZn7pD66mJfshdWLXfjyS+Ms0akThZP1k9sar00gYghv++UCbP3i6iTNtYQR3UzMrxrZalRJpM16oVH/eNFlzldPqaR7b2Hfk9k6d+nZebK47Jp3wV5uXxmGdatiu19/eS2KpX6/nerZPuhy7bxMWLGkJ6tijtU1SjXZpqkSBKPIIZNiScIIBCZAsHtf8fN3CeDp+wMtIl92peVFrVy2d7XQYjQ7H+tE/eDPqzgEML45/RN+WvVMZmz5rhcvflQFg5/RXJmcgzI6YW7Mh37X9tm4gkCCCCAAAIIRCGBAb9ul4nqxoUapTLJmF4vvbBmIT2eO3Diunw0aJ2cvHDbYV7lCqWVHz+ram46cHjj3xdhOZ6zr2BmzTunuqlh4pfVJV3KBGbU1MVH5KvxmwliWEA8IoBApAu4+/d0aPe/oT2XqQGH/b5Lxszwr+BrgZbKn0bGqn9PrJsg2P9aMjx6kwBBDG/aWrQVAQQCFSCIESgNbyCAQAgEJi84JH0mbjWfeKteXundttQLn7aCGON6VZX0qfxPxFgT+arqE1nSJbJeyqDJO2T8rP1SMl9q6fFWccmYOqHsU5Uxev+4Sa7f9pMpfWtLcXVHj7Mh4I8XfVf3K93ny917jyWebyx58PCpvFzhxSDGKHUH0og/90hb1ZVJlxZF1F0896Xj96vl2PnbsmzUq5I5rX/7uBDoTJ1xCCAQWQLB7X/tT9zPU0G5gEMGVQ3DvtJQaPe/zk7c9/lpi0xeeNgsUgfpHj9+5jSI4ep07H8Dbj1eI4AAAggggIC3Czx5+kwqvzvTBFZjxYoh639qqoL/vg6rFZLjueu3Hkr1TrPkkTru6vlWCaleOqPce/BEpiw6LFOXHJEqxTLIhC+qOczfehHa47kF607Kx0PXSWlVdfLb9mXMjQuT5h4wFwbrqpsghnf3vwmCC4GWNI8IIOApAu78PR2W/W9oz2Uu3XRaOv+wRsoVSiffdSwriRPGFV2RWAcz9PnNnqrLZj2w//WUbxztCIkAQYyQaDEtAgh4rABBDI/dNDQMAa8SaNhtgQkupEkeX3TXH+t/aiZx1UU3+8EKYqwZ39h2R4z9+9bzS6qcaY3OsyVVUl9ZPKKhw3w27Lkgbb5eLi1r55Zv3i9jfcTh8YUfL6osf/9ftsmrlbNLMVUSv/w7M5wGMaq+/5f4PX4qayc0kdix/Nu+eOMp+WDQWvlEVcVo16iAWQ4XAh24eYEAApEsENz+1/7E/ZG/WgXZ2rDsf52duNd3RsaKGVNVyMimAhmH5Nf5h5wGMVydjv1vkJuPNxFAAAEEEEDACwWWbz4jHQeslspF08ta1U3mp+qi2Tvq4pn9EJLjOSvgGrDqmS5P/0bvJbJNVYDUYQ9dlTLgENrjuU9GrJfZq0/IqnGNJEOq/7q8e+n9mXLf76ls+aW5WRQXAgOK8xoBBCJbwJ2/p8Oy/w3tucwvxm6SP5cddfid/ezZcyn25lTJnSmZTB9Q1xCz/43sbxrLD40AQYzQqPEZBBDwOAGCGB63SWgQAl4ncFCVPX1VBTFa188rWdImlm/VHdDDu1WWuhWyOKyLq0GMuWtOSPfh6x3CD9aM9I+Jtn1WSOrkvjKgS0VrtMNjwB8v9m/q7kdKtvrzhSCGLsVfoMUUc3fQuM+r2j6i+7jVdyc1r5lT+nYoZ8ZzIdDGwxMEEIhkAVf2vyE5cR+W/a+zE/f2PN/9vDXQIIar07H/tZfiOQIIIIAAAghEBQFdhXHVjrOyZnwTadhtviRP5CvzhzdwWLWQHM/VVNUwdBXJTT83d7ipQc9wruoqTl+w+6BlESmjqlcEHEJ7PLdE3ZF97eYDeb1uHodZ1u4yV+7df2TrhpQLgQ48vEAAgUgWcPfv6bDsf0NzLlPz6epHz549E11p2Br0uGKtpkquDEll9uB6ZjT7X0uHR28SIIjhTVuLtiKAQKACBDECpeENBBBwUUB3SaJL+c364WVJp7ocqdB2hlQsnP6FcqdWEKNL88K2rklSJYsvBXIkdyi9anURMv7zavJSiQwutuK/yULz40XfBV5JBS6aVMsu33euYJvZA78nUqTlVKlVNpOM+uQlM54LgTYeniCAQCQLuLL/tT9x/30n/0BZnNixJHeWpJIzUxJbBSC9KmHZ/4b2xH1AwqACG+x/A2rxGgEEEEAAAQS8WeCa6kakYrsZUqVoBvlR3RDQb9I2+WXeQZmh7mAunCulbdVcPZ7T3ZwUbPG7FMyeQmYM9L8L2jYTF56463hOL2rT3ovS+qtlDtUsuRDowkZgEgQQiDABd/6eDuv+NzTnMu2hdNWjx0+eyakLt2X09D2ycMMp+frd0raAHPtfey2ee4sAQQxv2VK0EwEEghQgiBEkD28igEAwAjplXbHddEmZJJ4sHPGKmbpDv1Wycsc5WTuusaRJEd82ByuIYRth96RmmUwy5ONK4hM3lnw1brPpu1YHOwrkSGE3lWtPQ/Pj5fTFO1Kj42xpoSpf9Pm38oVemv4RU6C5f6UMqx9dLgS6th2YCgEEwlfA1f2v/Yn7gC1KED+2jOxRRSoWSW/eCsv+110n7gliBNxKvEYAAQQQQACBqCrw85wD0v/X7baKkvuPX5dG3Rc4hBf0urt6PHflxgNzY0S1EhlNsCOkbu46ntMBk8Y9FsidB49l4bBXJO2/5wW4EBjSLcL0CCAQXgLu/j0d1v1vaM5l2ttYoRJr3Ot1cstX75aRGDH8x7D/tWR49CYBghjetLVoKwIIBCpAECNQGt5AAAEXBBaphPWHg9dKtzeKyftNCppPOBun37CCGFO+qy3pU8YXndY+deGOTFl4WJZvPSMNX8omAz+oKN9O2CK/LTps+jEsYncXkAvNMZOE5sfLmUt3pHqHF4MYfo+fSiF1R1GVYhlsFT4IYri6JZgOAQTCU8DZvtbZOPsT97rfbj3ce/BEdhy8LP3/t92UMl0wtIFky6C6lgrD/tddJ+4JYoTnt4Z5I4AAAggggIAnCdT7cJ5cuH5PNk1sZm5K0G2zxm38qamt1Lyrx3NJEsWVsm9Pd/j9GpL1dcfx3ENVVbL118tl55ErMqp7FalVLrOtCVwItFHwBAEEIlnA2W9nZ+Miav8bmnOZ9oRHz9ySGSuOyq27D2X97gty7ZafDOxSXupXymYmY/9rr8VzbxEgiOEtW4p2IoBAkAIEMYLk4U0EEAhGoOgbU+W+uqBXIHtyW3cjfn5PZe2u8+aTh2e2sqWvrSDGmvGNJV3KBLY5P336XF5qP1P8VHWNzZOay6S5/ncFjVJ3aduftLE+oE/sPH32XBLEi2ONcngMzY+X67cfmhNWr1bJKj98WMk2vxt3/KRM62liP54gho2HJwggEIkCru5/7U8cHfmrlUOLrZMxX7QtJa3q5RXrrszQ7H/dceJeN44ghsMm4gUCCCCAAAIIRFGBPf9claY9F5m10xUirWHZ5jPmaY9WxeXdRgXMc1eP5958Oa8Ue3OqZEqdSOYNrW/N0vb4TP2Ovq9+T/vEiSVxYse0jbeehPV4Ts+/U//VsmLbWen1dglp80p+a9bm0Tr21BXZatsFNBwm4gUCCCAQAQLu/j0d1v1vaM5lBsZ09eYDqdl5tiTwiSPrJzY1k7H/DUyL8Z4sQBDDk7cObUMAAZcFCGK4TMWECCAQQODStftS6d2ZZmyeLMkc3j186oZ5/VvfWlI6fxrzPLAghn6zmToBtVudiNo+uYVs2X9JOqiTN2/WzSNfqv4M7Ye79x9L6benSZ7MSWXWoHr2b9meh+bHyzNVniNfsylSMm9qmaLabA1H1HrU/3i+OQGmT4TpgSCGpcMjAghElkBI9r9Bnbhfs/2cvPvdSnm7QT75rE1JWbHlTKj3v2E9cW9ZEsSwJHhEAAEEEEAAgagsYHUJp9fR/vf0uat35e69x5IxTQJZObaxIQjJ8Zzu2uSQ+h27ZnwTSZ0sngPhoMk7ZPys/TL205ekeun/wh/WRGE9nus9dpNMW3ZU2qtqmV1V1cyAAxcCA4rwGgEEIkMgvH5Ph2X/G5pzmdpu1dazcvXmQ2mmulq2H978Yqk5v7rr95YS3ze2sP+11+G5twgQxPCWLUU7EUAgSAGCGEHy8CYCCAQhYJ0M+r5TOWlS3fGAf8uBS/Jm76XSuGp26d+lgplLYEGMAyeuS7NPF0mKxL6ydkITVRnjqdTpPEdu3PWTmQNelhwZk9ha8ZM6aTRQnTz6qGUR6dissG28/ZPQ/nh5Q7V31z9XZOWYRpLm3z5sR/25R0b8uVsGf1RRGlT2L+dHEMNem+cIIBAZAiHZ/1rT6nbaV8TQ3UN9PGStLFRdTPXrWE6a1sgZpv1vWE/cW44EMSwJHhFAAAEEEEAgqgr4PXoq5dpOlyTx48rKHxvbqkha6/vWl8vk7/0XzW/TjGkSSkiO56YuOSI65NFcXZTr076cbd66CmTjHgtEV33c8ksLW1co1jL1Y1iO50b+sVtGTtsjLfRyO5Szn63tORcCbRQ8QQCBSBSw9qmunM+0ptXNDe73dFj2v6E9l6l/0y9Yf0pmD64n+bMlN6qPVMXhau3/En3T2cafm5lx7H8NA3+8TIAghpdtMJqLAALOBQhiOHdhLAIIBC9Qq9McW3+2CeM7dhOiL/DpHxH6ZM9G1d+t7kbECmK8ViuXuTNHT3Ps3C3TjYm+46d/5/LSuFoOs+Alm07Lh4PXSuKEcaWZCnmkS5FA9h67IrNWn5Ac6ZPI5D41JWVSx7t7rBaH9sfL/HUnpOvQ9ZJXVfdo80o+OXvproyZude0dcXYRhI7ln/pVoIYljSPCCAQWQIh2f/+tvCwDJ6y0zT1gxb+AbbbqrrQtgOXZd+xa5IjQxJz0sYnbiwzTWj3v2E5cW/vSBDDXoPnCCCAAAIIIBAVBeauOSHdh69XlSMKqcoRRV9YxZkrjkmv0Ruls7r54AN1E4L9hcDgjud015/Ney2SvUevSZViGaRS8fRy87afLNh4Sk6o39+fqyporVU1NGdDaI/n5qw+Lj1GbBBfn1imzbFixnCYfaHcKU2lTC4EOrDwAgEEIkkgvH5Ph2X/G9pzmWt3nJd2360w5y7faZBfEqmA3+w1x2WrukGuU7NC8mFL/39j2P9G0peNxYZJgCBGmPj4MAIIeIoAQQxP2RK0AwHvEth55Iq0+HSx1KuYRYZ2rey08cOn7pLR0/fKgC7lpVHVHLYghv3ESRP7SK6MSaXdq/mlaqmM9m+ZEnrfTdwqh07flOeqr9mUSX2lVP7U8tW7ZSR5El+Hae1fBPXjRXdtUvzNPwJtt664MWrGHrn/4ImZZYHsKWTQRxUcqnIQxLDX5jkCCES0QEj3v5evP7AFMay2xooVQzKnTSwVi6SVzi2KSLJEPtZb5lF3ERXS/W9wJ+77/7Jdfp57QBaPfEWyq/BHYENQ07H/DUyN8QgggAACCCDgTQLtvl1hbkgI7Ljo7oPHUv6d6ZJC/e5dpSpm2AcxrPUM6nhOV9z4/pdtqvLZSbl555HoafNlTS5v1Mn9QjVLa376MbTHc99O2CK/LTpsPyuH523V7/2erUtQGt9BhRcIIBAZAuH9ezq0+9+wnMtcsO6kDP59h7qh7J4hjR8vtrSpn086Ny9i9v96JEGMyPi2scywChDECKsgn0cAAY8QIIjhEZuBRiCAQBAC9x8+kdv3Hknaf7sLCWJS81ZQP16C+6x+XyfYL1y7J0kSxJVE6r+AAxcCA4rwGgEEoqpASPa/wZ24d4cR+193KDIPBBBAAAEEEIhOAuev3DOBDqv6WVDrHt7Hc1wIDEqf9xBAIKoJhGT/G9ZzmdpOVyV+6PdU0qaMLzFjOFYmYv8b1b5d0WN9CGJEj+3MWiIQ5QUIYkT5TcwKIhDtBPSPlwtX70uGVAmkfeNC0rRGTrcY6PL+v8w/IGcu31NVPJLI/GEN3DJfZoIAAghEBQHrxH2KJD6qglF8mTe0vttWi/2v2yiZEQIIIIAAAgggEKhAeB3PPVP9ktb9YJ7cvPtQbtzyk5E9qkjtcpkDbQdvIIAAAtFNILzOZbL/jW7fpKi1vgQxotb2ZG0QiLYCBDGi7aZnxRGIsgJDpuySW3f9zPrVq5hVShdI45Z1XbHljKzded7MK3WyeNKpeWG3zJeZIIAAAlFBQJd41Sfv9RDfN7YpP+2u9WL/6y5J5oMAAggggAACCAQuEF7Hc/pC4Dfjt9gW3KJWLsmfLbntNU8QQACB6C4QXucy2f9G92+Wd68/QQzv3n60HgEE/hUgiMFXAQEEEEAAAQQQQAABBBBAAAEEEEAAAQQQQAABBBBAAAEEPEGAIIYnbAXagAACYRYgiBFmQmaAAAIIIIAAAggggAACCCCAAAIIIIAAAggggAACCCCAAAJuECCI4QZEZoEAApEvQBAj8rcBLUAAAQQQQAABBBBAAAEEEEAAAQQQQAABBBBAAAEEEEAAARGCGHwLEEAgSggQxIgSm5GVQAABBBBAAAEEEEAAAQQQQAABBBBAAAEEEEAAAQQQQMDrBQhieP0mZAUQQEALEMTge4AAAggggAACCCCAAAIIIIAAAggggAACCCCAAAIIIIAAAp4gQBDDE7YCbUAAgTALEMQIMyEzQAABBBBAAAEEEEAAAQQQQAABBBBAAAEEEEAAAQQQQAABNwgQxHADIrNAAIHIFyCIEfnbgBYggAACCCCAAAIIIIAAAggggAACCCCAAAIIIIAAAggggIAIQQy+BQggECUECGJEic3ISiCAAAIIIIAAAggggAACCCCAAAIIIIAAAggggAACCCDg9QIEMbx+E7ICCCCgBQhi8D1AAAEEEEAAAQQQQAABBBBAAAEEEEAAAQQQQAABBBBAAAFPECCI4QlbgTYggECYBQhihJmQGSCAAAIIIIAAAggggAACCCCAAAIIIIAAAggggAACCCCAgBsECGK4AZFZIIBA5AsQxIj8bUALEEAAAQQQQAABBBBAAAEEEEAAAQQQQAABBBBAAAEEEEBAhCAG3wIEEIgSAgQxosRmZCUQQAABBBBAAAEEEEAAAQQQQAABBBBAAAEEEEAAAQQQ8HoBghhevwlZAQQQ0AIEMfgeIIAAAggggAACCCCAAAIIIIAAAggggAACCCCAAAIIIICAJwgQxPCErUAbEEAgzAIEMcJMyAwQQAABBBBAAAEEEEAAAQQQQAABBBBAAAEEEEAAAQQQQMANAgQx3IDILBBAIPIFCGJE/jagBQgggAACCCCAAAIIIIAAAggggAACCCCAAAIIIIAAAgggIEIQg28BAghECQGCGFFiM7ISCCCAAAIIIIAAAggggAACCCCAAAIIIIAAAggggAACCHi9AEEMr9+ErAACCGgBghh8DxBAAAEEEEAAAQQQQAABBBBAAAEEEEAAAQQQQAABBBBAwBMECGJ4wlagDQggEGYBghhhJmQGCCCAAAIIIIAAAggggAACCCCAAAIIIIAAAggggAACCCDgBgGCGG5AZBYIIBD5AgQxIn8b0AIEEEAAAQQQQAABBBBAAAEEEEAAAQQQQAABBBBAAAEEEBAhiMG3AAEEooQAQYwosRlZCQQQQAABBBBAAAEEEEAAAQQQQAABBBBAAAEEEEAAAQS8XoAghtdvQlYAAQS0AEEMvgcIIIAAAggggAACCCCAAAIIIIAAAggggAACCCCAAAIIIOAJAgQxPGEr0AYEEAizAEGMMBMyAwQQQAABBBBAAAEEEEAAAQQQQAABBBBAAAEEEEAAAQQQcIMAQQw3IDILBBCIfAGCGJG/DWgBAggggAACCCCAAAIIIIAAAggggAACCCCAAAIIIIAAAgiIEMTgW4AAAlFCgCBGlNiMrAQCCCCAAAIIIIAAAggggAACCCCAAAIIIIAAAggggAACXi9AEMPrNyErgAACWoAgBt8DBBBAAAEEEEAAAQQQQAABBBBAAAEEEEAAAQQQQAABBBDwBAGCGJ6wFbysDfF8fCVh/ARy++4d8Xv8KNxbHzdOHPmoZTtZv2uLbNyzPdyXF9kLaFy1riRPklQmzvlDnj9/HtnN8ZrlE8Twmk1FQxFAAAEEEEAAAQQQQAABBBBAAAEEEEAAAQQQQAABBBCI0gIEMTxw86ZIkkymDxgn9x8+kEUbVjq08O+9O2T7ob0O4yL6RZNqL0un5m/LF2MHyobd28J98V+2+0heKlle+kwYKqu2bwr35UX2AppVrycdmrWW3xfNkp/mTI3s5njN8glieM2moqEIIIAAAggggAACCCCAAAIIIIAAAggggAACCCCAAAIIRGkBghgeuHlzZMwiE3r/YFr27Nkzhxb+tWqRjJn+q8O4iH4RkUGM6qUqyOdtP5SZKxbI6Ehe74h07tepp5QpWFw++OEL2X/8SEQu2muXRRDDazcdDUcAAQQQQAABBBBAAAEEEEAAAQQQQAABBBBAAAEEEEAgSgkQxPDAzWkfxKjWvnmQLYwVM5YkiBdfbt+7E+R0rr7p6+MjMWPENNU4nH0mUYKEUq9CdXmv8RumQsU2VZ3jzr27ziYNdlyShIlUu+8G2f3GuM8GSNqUqaXlZx0DbVNgC0qcIJHce3Bfnj57+sIk8X3jqfHPxO+R3wvvecKIjGnSya9fD5N1OzfL1+OHeEKTPL4NBDE8fhPRQAQQQAABBBBAAAEEEEAAAQQQQAABBBBAAAEEEEAAAQSihQBBDA/czK4EMWLHji0ftGgj1UpVFB0quHzjmoxVFSPW7PjbrNHIHn0kbYrU0uzT983rd15pIc1qNpDNqmsTZxf2s6XPJD3e6iB5suQw05+6cFaGThkve48dNq91GKJP+x6i2xZwOHrmhOqmZJBcun5F9HJTJ08pLXp1MJPVKF1RurVqLxt3bZU+E4ebcc1q1JeWtV+VpImSmHDFqm0bZfjUn+TJU8fARM5M2WT85wNk6aY10v/X0eazDSrVkI6qW5SPB30lh04dk3xZc8rAD3uLrhzyeu/OMvHLwZIqaXK5evO6pEqWQvweP5L5a5fJ2JmTzTRZ1Xp+YreeB1S1ie8mjZSLVy+b+RfOmVeGdf/WPNeftYamn7xnQh1BrZ/eBg2r1hGfOHGtj5nl67a1/KyTfPR6OymcK5/oeQUc6lWsLp3V9uw9eoCt65nRPb+TXJmzS7Oe78mtu+4J2gRcblR6TRAjKm1N1gUBBBBAAAEEEEAAAQQQQAABBBBAAAEEEEAAAQQQQAAB7xUgiOGB284+iKHDFXrQlSMOnz4uJ8+fMa/bN2klzVWwYu/Rg3LqwjkVyKgg8Xx8pf33n8o/p0+IVUni1a5tpGLRUvLN+93l5p3b5v0rKjBgP+jPTe4zQpInTipL/14jj1QA4WVV9eLxk8fS6ssPTahhQJfPpFSBorL1wG4plb+I+fj9hw/k0MmjUjxvIdm4Z5v0HjPQLDdNipTSsFtb0dUzfv16qAlcrN+1Rb78cZBULVFOvnj3Y9FtWLF1vRTLU9CEP35bOFN+nvunfbNUG6pJdxXi+E4FOFZs3WDe0wGOdxu9IT2G9ZFj506r5fU3gYt+P4+U5VvWycofp5np9qsAyUHVtlplK4uujPHD/8bKqu0b5RdVZUIHNRZuWCmJ4ieUysXLyD41re4CRA9lChaT7zv3Ms/X7tgs+bPnkpRq+gYfv22CGNo1sPVboZafO3MOyZA6rZpvWTOPqYtnm8ffl8yWQR99IRlTpzPzMiPt/rxSuaYKarwr34wfrMI0m807b9VrKm83aC4fD/lGdh/Zbzc1T50JEMRwpsI4BBBAAAEEEEAAAQQQQAABBBBAAAEEEEAAAQQQQAABBBCIaAGCGBEt7sLy7IMYASdfsmm1DJo8Tvp1/tQEJzqo4IWuJGEFHBasXyGDfxtnC2J0GdhbxnzaT+KoChpd1QX9/aoCRIFsuSS+6s5ED36PHonuBkMHHmavXiwj/vjZjH+jTiNp27Cl/G/+dJm2fL7MHTLJVN1o9cUHMqLHt5JPzWPO6iUyZsb/ZErfkSZs0eCj1uq9Praggq48Uad8VTM/K4gx+OMvTfji3b495NjZUyY8MmPgeBPo6DbUvxKF+YD606ZBC2lVr4kJSeiwhB6sIManI/up5w2lSO78osMOE2b/bt63ghg1O7Y0XZIUy1NABn/8lWxTAZLlm9fJp206y3S1PmNVu/UwtOvXZh7NP21vAidVVIDiq/e6yqg/J8lfqxbJ1+q5DlU4C2I4Wz89zwyp0ppgy/x1y2WIqipiDWN7fW9CJzoU8vz5c7lw9ZKq6nHcdI/iLIhRu1wV6dm6kwz8dYwsVtudIWgBghhB+/AuAggggAACCCCAAAIIIIAAAggggAACCCCAAAIIIIAAAghEjABBjIhxDtFS7IMYzXq+LzFjxhTddcgHr7WV9KnSyOeq+4pNe7ebeX7Ysq3kz5bbBC10txvnLl8wVSz+981wE7CwFjxo8o+mCoR+vXDEZPGN62Pe0tNv2L3NVNf4aNCXsufoITNed0Xye99Rsnr7Jvll3jRVSWKo6BDIABUK0MGOvKpLkDlrlqguRSbK5+90keqlK8kbvbuY4IKuGPHVuCEq5PCVnFAVPHTbrSDGH/3GiMSIIa/923WJXpjuWuXJ0yeqEsdjs2zrT2fVBUnjai/LW199KGcvXTCjrSCGNc25KxflLVW1Qwcb9GAFMaq1b25NIvOG/iI3bt+SdTs3S8s6Dc143XWJHnS1jLhx4kiXAZ/L/hP/SMMqteUDZdp/0ihZunltoEGMwNZPzzO4IIaexhrOX7kkXYd+I2VVJY6AFTGs6hw6uLFo4yrrIzwGIkAQIxAYRiOAAAIIIIAAAggggAACCCCAAAIIIIAAAggggAACCCCAQIQKEMSIUG7XFmYfxLAPFNRQYYfPVOjh98WzZOKcPySWCmi82/B1yaAqWsSJHcd0GXL41DHp8H0vmfjFIMmWIbNtgfbVGXRFjBjqs3q4cuO6CjvUlWY16jtUnkiTPJVM7Tda1qggxvhZv5uqF/PWLpOhv094IYjxpepq5CXV5cjbX3+sQhkfSKa06eWqmm/aFKlUtxpfy8hP+v4XxPh+rKjUhLz2WUdb2wJ70qlZa2lSvZ68911POXrmhJksYBDj5p1b0lot947qukUPzoIYc1Q1j9t3b8vfe3eY+Z26cNZ0R2I+oP7oEMjPyvPO/XvyoQq7vPpSbflo0FcqlHLQaRAjqPXT8wwuiPH6553EV3UHo83rqoohkxfMlGu3rr8QxKiiuk356r1utuocVnt5dC5AEMO5C2MRQAABBBBAAAEEEEAAAQQQQAABBBBAAAEEEEAAAQQQQCBiBQhiRKy3S0sLLIjRvkkrU7liwqwpUjxvIVOVolGPdvLkyROpXKyMfP1+N1mouiYZZNc1yTvfdJUfP+svKZIkU92OTFTdjyx5oQ31K1aXrm++L9OXzZOxMyeb95upAEQHFYTQIYG/Vi2UWYMmypHTx6V9v0//C2KoeY3482cT+tDVOOqrrkl0Vx+5Mmcz85i8YIbp1kRXpLAqYugqGUVyFzChjdMXz0nsWLHMZ3Q3JcOm/uTQtqaqDR1VG3qN+l4279tp3rOCGD2G95F6FWuYAMiOQ3ul54h+pisSK4hRo+Nr8uzZM9MNy8ie38n2g3tMGz5s2c5hPVMlSyFpk6eUvarrk3gqHPFbn5GqQoevNPnkPbn/8IHTIEZQ66cbGVQQI2PqdKabEz1dwRx5TFcuS/9eIwdUlzEBK2I0VIEQXQWl95gBsnGPfwUU/TkG5wIEMZy7MBYBBBBAAAEEEEAAAQQQQAABBBBAAAEEEEAAAQQQQAABBCJWgCBGxHq7tDT7IMafS+earklyZMgixfMVMt13vNu3hzSoXFN0UGH3kf2y559D0qhqHUkYP4F07N9LDp08JuM+GyC6e5FXu7ZRXZfkkqHdvjbz6Tn8O9lxeJ9DO3TXIDqAkCRhItGVMx4+8lPzq2uCDK2/+kguXb8io1WYIZ+az/LN66RGmUrm89dv35R9Rw9LZVW5YZ/q0uQD1bWJXq4OKpy5dF7a9elhuv2wD2JYVT0uXr0sa3b8rcIkOUwwY5oKgfz4bwjEalz5wiWkb8ee8r/50+UX9Z8ebEGMYX1knwovjFLVNrTX7NWLVdDkZ1tFjB0H96pwxSGpr8IaKZImE929xyYVZvj12+GSMF58WbRhpapCcVPqVqgqyRInkQ79esn43gOtRasAygzzvFW9puZx4pypMmXRrGDXT08cVBAjT5YcZt4+qmuYSsVKS7qUaWTolAm6t5YXghi92nSWmmUqSxsVptFVPBiCFiCIEbQP7yKAAAIIIIAAAggggAACCCCAAAIIIIAAAggggAACCCCAQMQIEMSIGOcQLSW1qtDwR78xDp/R1RmOq6oRP8/9Q3YdOSA+ceJKz7c7ScUipSR27Nima47R036RpZvXms/pyhTpVBDD6gKkTrmX5JPWHeXmndvSrOf7pnqE/QJ0eOLT1p1s3ZnooMRgVVlju6o2oQfdzcl3HT4x4Q77z+nn569cks9V1QYdFtDLLZwrn3RVXZLs/uegaefcoZNMRYsvfxykAgcx5M26jaVFrVdU5Yl44vf4kazcukGG/f6TPH7y2GHWeh2nDRgnl69fFR0+0YN9EEO3TXehoit+6BCJrpLRu+1H5rnuqiRRgoSq25GnsmD9chn55yRbhYxurdqLruDxXHWRckt1WTJm+q9y6doVGd6jj8PyA76o1fl1+eGD3kGun/6MFcSwrzCix4/t9b3oIIY1XLt5Q5ZtWSsTVNcv1UtVNN3OfDN+sAqobFbdzsSSmT+Mlxu3b5kghvUZHgMXIIgRuA3vIIAAAggggAACCCCAAAIIIIAAAggggAACCCCAAAIIIIBAxAkQxIg463BZkg4rJEmU2IQV3LEAHV7QIYCbd245nZ3uyqNu+arydoPmMuDX0bLj0D65cuOa02mDGqkDGXpeuqqG7lolsKGT6pqkiar88fnoAbJpb/Ddc+guVK7fuiHtVHAjZdLkcvvuHRP2CDj/BKoqRkzVhjv375m3CufMK8O6f+tQfcP6zPede0mZgsVEBzGCaqs1vTseG71UR7q89o6MUgGSv1Ytcscso/w8CGJE+U3MCiKAAAIIIIAAAggggAACCCCAAAIIIIAAAggggAACCCDgFQIEMbxiM3lWI5tUe1k6NX9bvhg7UDbs3haujUukuluZ8MUgs4wuA3sHG/qwghht+3QPUbt0FyljPv3eI4IY2VU3NMNUVzLnrlwUvc66qgdD8AIEMYI3YgoEEEAAAQQQQAABBBBAAAEEEEAAAQQQQAABBBBAAAEEEAh/AYIY4W8c5ZZQtUQ5ad/0Lfl2/BDZf+KfcF+/fFlzSj9VlWLKor9kxooFQS5vQJfPJGbMmKqbkr5BTufszZyZsplKIFdvXnd4O2OadJIoXgI5dOqY6c7E4c1wePGBqoShK3B0H9ZXLly9FA5LiJqzJIgRNbcra4UAAggggAACCCCAAAIIIIAAAggggAACCCCAAAIIIICAtwkQxPC2LRZN25siSTJ59PiRrSuRqMwQndbVnduRIIY7NZkXAggggAACCCCAAAIIIIAAAggggAACCCCAAAIIIIAAAgiEVoAgRmjl+BwCCHiUAEEMj9ocNAYBBBBAAAEEEEAAAQQQQAABBBBAAAEEEEAAAQQQQACBaCsQKUGMFt3elVhxYkdbdFYcAQTcL1AyTyF5/uSZDOzVx/0zZ44IIOCVAs+fP5cYuuUxzF+vXAcajQACCHidgNr3PleNjsG+1+s2HQ1GwNME9LGcHtifeNqWoT0IIBDlBTiei/KbmBVEAAEPFWD/66EbhmYhEHqBRauXyokzp6Rr247BziSG+hHs/ys42EkDn+DU+bPSott7EjeeT+AT8Q4CCCAQQoGCWXPL44d+MuKrgSH8JJMjgAACCCCAAAIIIIAAAggggAACCCCAAAIIIIAAAggggAAC7hP4c8Ffcu36NenWrlOwM3VbEOM1FcSIlyRhsAtkAgQQQMBVgaypM8r9W7dl0sAxrn6E6RBAAAEEEEAAAQQQQAABBBBAAAEEEEAAAQQQQAABBBBAAAG3C4yePMFU7SaI4XZaZogAAhEpQBAjIrVZFgIIIIAAAggggAACCCCAAAIIIIAAAggggAACCCCAAAIIBCZAECMwGcYjgIBXCRDE8KrNRWMRQAABBBBAAAEEEEAAAQQQQAABBBBAAAEEEEAAAQQQiLICBDGi7KZlxRCIXgIEMaLX9mZtEUAAAQQQQAABBBBAAAEEEEAAAQQQQAABBBBAAAEEEPBUAYIYnrplaBcCCIRIgCBGiLiYGAEEEEAAAQQQQAABBBBAAAEEEEAAAQQQQAABBBBAAAEEwkmAIEY4wTJbBBCIWAGCGBHrzdIQQAABBBBAAAEEEEAAAQQQQAABBBBAAAEEEEAAAQQQQMC5AEEM5y6MRQABLxMgiOFlG4zmIoAAAggggAACCCCAAAIIIIAAAggggAACCCCAAAIIIBBFBQhiRNENy2ohEN0ECGJEty3O+iKAAAIIIIAAAggggAACCCCAAAIIIIAAAggggAACCCDgmQIEMTxzu9AqBBAIoQBBjBCCMTkCCCCAAAIIIIAAAggggAACCCCAAAIIIIAAAggggAACCISLAEGMcGFlpgggENECBDEiWpzlIYAAAggggAACCCCAAAIIIIAAAggggAACCCCAAAIIIICAMwGCGM5UGIcAAl4nQBDD6zYZDUYAAQQQQAABBBBAAAEEEEAAAQQQQAABBBBAAAEEEEAgSgoQxIiSm5WVQiD6CRDEiH7bnDVGAAEEEEAAAQQQQAABBBBAAAEEEEAAAQQQQAABBBBAwBMFCGJ44lahTQggEGIBghghJuMDCCCAAAIIIIAAAggggAACCCCAAAIIIIAAAggggAACCCAQDgIEMcIBlVkigEDECxDEiHhzlogAAggggAACCCCAAAIIIIAAAggggAACCCCAAAIIIIAAAi8KEMR40YQxCCDghQIEMbxwo9FkBBBAAAEEEEAAAQQQQAABBBBAAAEEEEAAAQQQQAABBKKgAEGMKLhRWSUEoqMAQYzouNVZZwQQQAABBBBAAAEEEEAAAQQQQAABBBBAAAEEEEAAAQQ8T4AghudtE1qEAAKhECCIEQo0PoIAAggggAACCCCAAAIIIIAAAggggAACCCCAAAIIIIAAAm4XIIjhdlJmiAACkSFAECMy1FkmAggggAACCCCAAAIIIIAAAggggAACCCCAAAIIIIAAAggEFCCIEVCE1wgg4JUCBDG8crPRaAQQQAABBBBAAAEEEEAAAQQQQAABBBBAAAEEEEAAAQSinABBjCi3SVkhBKKnAEGM6LndWWsEEEAAAQQQQAABBBBAAAEEEEAAAQQQQAABBBBAAAEEPE2AIIanbRHagwACoRIgiBEqNj6EAAIIIIAAAggggAACCCCAAAIIIIAAAggggAACCCCAAAJuFiCI4WZQZocAApEjQBAjctxZKgIIIIAAAggggAACCCCAAAIIIIAAAggggAACCCCAAAIIOAoQxHD04BUCCHipAEEML91wNBsBBBBAAAEEEEAAAQQQQAABBBBAAAEEEEAAAQQQQACBKCZAECOKbVBWB4HoKkAQI7puedYbAQQQQAABBBBAAAEEEEAAAQQQQAABBBBAAAEEEEAAAc8SIIjhWduD1iCAQCgFCGKEEo6PIYAAAggggAACCCCAAAIIIIAAAggggAACCCCAAAIIIICAWwUIYriVk5khgEBkCRDEiCx5losAAggggAACCCCAAAIIIIAAAggggAACCCCAAAIIIIAAAvYCBDHsNXiOAAJeK0AQw2s3HQ1HAAEEEEAAAQQQQAABBBBAAAEEEEAAAQQQQAABBBBAIEoJEMSIUpuTlUEg+goQxIi+2541RwABBBBAAAEEEEAAAQQQQAABBBBAAAEEEEAAAQQQQMCTBAhieNLWoC0IIBBqAYIYoabjgwgggAACCCCAAAIIIIAAAggggAACCCCAAAIIIIAAAggg4EYBghhuxGRWCCAQeQIEMSLPniUjgAACCCCAAAIIIIAAAggggAACCCCAAAIIIIAAAggggMB/AgQx/rPgGQIIeLEAQQwv3ng0HQEEEEAAAQQQQAABBBBAAAEEEEAAAQQQQAABBBBAAIEoJEAQIwptTFYFgegsQBAjOm991h0BBBBAAAEEEEAAAQQQQAABBBBAAAEEEEAAAQQQQAABzxEgiOE524KWIIBAGAQIYoQBj48igAACCCCAAAIIIIAAAggggAACCCCAAAIIIIAAAggggIDbBAhiuI2SGSGAQGQKEMSITH2WjQACCCCAAAIIIIAAAggggAACCCCAAAIIIIAAAggggAAClgBBDEuCRwQQ8GoBghhevfloPAIIIIAAAggggAACCCCAAAIIIIAAAggggAACCCCAAAJRRoAgRpTZlKwIAtFbgCBG9N7+rD0CCCAQ1QSeP30iT+7f/3e1YkicRInctopP/fzk2SM/M7+YceJILN94bps3M0IAAQQQQAABBBDwF3hy/548f/rUvIjl4ysx48Z1Cw3Hcm5hZCYIIBCFBcJr/6vJHt+5bZOLnSChxIgZ0/aaJwgggAACCAQUIIgRUITXCCDglQIEMbxys9FoBBBAAIFABE7PniFben1s3o0dL7403HE4kClDPnr/sIFycNxI88EkufNIzTnLQz4TPoEAAggggAACCCAQpMDimuXl7tkzZprCPT6X3O+0D3J6V9/kWM5VKaZDAIHoKhBe+199w8TMgtlsrOVHjJf0NevaXvMEAQQQQACBgAIEMQKK8BoBBLxSgCCGV242Go2AxwncO3NabuzdJfcvnJOk+QpKssLFJE7ChB7XThoU9QVOzZouWz/rKlkbNZfUZcpL5lebOKy0PgF0af0aSV6spMRNnMThvYAv7pw8LgdGDJLszV6XVOUqyvW9u+XWwX2y+/tvJEHGTFJz3oqAH+E1AggggAACXinw9OFDdSy3W26qf+f0MVzyoiUkUbYcIjFieOX60GjvFlhUo5ypcFbwo08kRYnSkjhHLocVunfujNxXQY1U6lgv4HDl7w3y6NbNgKMlftr08lzdfc2x3As0jIhkAfa/kbwBWLyDQFj2v/Yzev7sqdw++o88e/JYkuUvJPL8uZyY/rtc2rRezi6eL+WG/SgZatez/wjPEUAAAQQQcBAgiOHAwQsEEPBWAYIY3rrlaDcCniGgL2rvGzJAjkwap35XP7c1KmacuFJ2yBhJX6O2bRxPEIgIASuIUbr/MIcQxq1/Dsupv/6U0/NmycNrV6WWClEkzpk78Cap7/PC6mVVuOi8ZHmlsZQaMNw27fwKRcUneQqCGDYRniCAAAIIeLPAjQN7ZcvHHeXO6ZMOq5G6dDkp/+MvoitMMSAQkQL6QmCMmLGkztL1tsU+ffhAzi1ZKKdmTZPLWzZJRnUndZnh42zvW0+W1K0sd06esF7aHjO9/IqUGTzavOZYzsbCk0gWYP8byRuAxb8gEJb9r57Zo5s3ZFvPj8x++onab9vve/X7x37/VXb26U0QQ2MwIIAAAggEKUAQI0ge3kQAAW8RIIjhLVuKdiLgmQJ7B/WTwxPHSkpVXUCXDY6fMbPc2Ldbtn/R0/wAr/K/aZKieCnPbDytipICzoIY+kSPPuGjBx0Sevb4UbBBjON/TJYd33xmPpOtyWtSou8P5rn+w8l7GwVPEEAAAQS8XMBPhRMX164kTx89ksLdP5N01WvJk3v35NiUX+T4tCmSrmIVqTDhNy9fS5rvbQIBLwTq6nvLG9eRx3fvSGzfeGIu7tV62WkQY3aJvJIkZ07J19G/qzpr3X1SpVF3ZRc0LzmWs1R4jEwB9r+Rqc+yAxMIy/73wcULsq5tS7l9/JipUJlGVZXUlSh1NUlrIIhhSfCIAAIIIBCcAEGM4IR4HwEEvEKAIIZXbCYaiYBHCugf2YvrVBLflKmk9sI1EjNuXFs7L29cK2vbvmG6dCj+7QAz/vbRI+oC+GPVdUkB23S6DOutI4ckbtJkkjBzFtv4J/fvyc0D+1SY46YkLVBQ4qfLYN7T43V5Sz08USdibx8/KgnUez6pUptx8dNnMO3RL+6quzpv7t+rXqc284gdP4GZRv+5vmu73Dx0QFXsqGOb3vamenJj9065oUpzZ6xT37TNeu/h1Stmns+fPJFEOXNJwiz/9XFqTWP/eEe178mD+5KsQGHb6Md3bsudE8clVrx4kiRXHtt4Y3Fov9w/f04S584ribLnVHcCxrS9r5/cUCbXd2yVZIWKqFLh6r3nz8zFkgSZszqc3LD/kLU8exv9vi7p7HftmiTNm99h2+m7DW/s2SV+N65LErWtEqp5W8OTe3fl9rGj8sK8VGlov+v+89KlR4PbRnp+ej2T5M4jDy5fkltqvXzU9yhZwSISy9fXWpx5fP7smdxQ2/HB+bPikyKl+f7EThB4tzfOghi6P/AYsWNLZlXZ4ujkn+Xob5OCDGLo7/bSBtUlbpIkyumsEMRw2CS8QAABBBCIQgJWWLHE199LthZv/rdmqjLU6jcayzV1zPTy6q0SL3Ua9e+768dyekb6WOzOP0fUsVRSSar/jffxMfO/c+KYPL5zx//5sX/8j5XU+2ZQXaEk18c5agjqmER//vyyherYIJWkrVLNTG//Rx8znl00Tx1DppfU5Svb3grpcUVgxz7a4sn9+5IwazZbV2euHMs9U4GXMwtmiz6Wiae6ytDDE3VsGDtRYkmqQgIx1fGKs0Ev76nfQ4djymfqeFQfLwc8jtafD+o42NnxqT5Gv3lwv/gkSy4JMmVWx6rBb6Mb+/eobmwSia/6btzct0cdV16VpGrbJcjw3wU3a11Cegz9woVAday5p/83kkV1Oacv6s2vVFwyOQli6O01u2Q+yda0pZToM9Ba/AuPBDFeIGFEJAiEZP9r/abTF7R1ZT5r0P9fN7+ZA/ymi277X+1xX/1e1L//YydIYP7NCdgNJftf185hhHb/q7fB9i8+kRMzpkppVU1S//Z2NhDEcKbCOAQQQAABZwIEMZypMA4BBLxOgCCG120yGoyAxwicnvuXbOn5oRTq2kvyvNvRoV26P9D17d4UXxWQsLp0WNm8vikT/OqW/bZp9wz4Vo78MkEy12sopQeNNOMvrFgqWz79yNzxZk2YsUZdKT14lFzdtlkFPF63Rr/wWOjjTyVn63ayq+8X5gSANYGvOllVVpUuTlmyjBm1uFZFuXvmlNO7PK0TuHrCwp/0ltxt3jefOTRupBwcM8zcMWpGqD+6y4oSfQepKgtxrFEOj2ad1d0gr247aMbrrlzWtn5NrmzfLEV7fS0532prxl9V5ZU3d+8iD65csn0+peqbvbTq3kVfQLCGeeUKi58q9RlwCFju0/79i2tWyvr2raXIJ19Irjbv2d6yTpLUWbzWFii5unWzbO7RWR5cumibTp/wLtHnB7OOgc6rdw85MfMPqbNkveqv+3Sw20iHUHb1+0qSFygk19XJMmvQYZwKP/7q3ye9Gqnvftz0QTsVmvH309P5qNBO+VE/mf7Crc/ZPzoLYti/v+u7L4MNYmxs/7Zc+nu9VBjzswkUEcSwF+Q5AggggEBUElhcu6IKX96QBut3OgQz9TqenjPT9Oeev0s3SVWmvLh6LPf47l3Z9skHcm7VMhtVHBU80P9+pypbQVa/3kiu7txme8/+SSwV7G20+5gEd0xyad1qWfdeK/PR6n/MlWRFitnPRg6OHir7Rw0x45oePGMeQ3Nc4ezYRy9bH1vpC6LVps1Xwc2k4uqxnA6rLm3wYnBEN7D2wtW2YyDTYLs/AY8p9Vs6zLqgSkmH4+infn7BHgc7nZcKoS6oWloyN2gkpQeOcGkbzS1T0ISGddj5nroAag353u8iBT76xHopoTmGDngh0DYz9eTR7Vuil+0siHHn5HFZUreKFOjcVXK37WB+T+jQeMCBIEZAEV5HhkBI9r+2fdGnX0ku9XtXD/o329J6VeWxCiBZv+mi4/5Xh+B0qOWk6obSGvS/JUWUVfaWb1mjzM0C7H+DP4cR2v2vPo8yv3JJ8xu/8q/T5L76d8UnWTJ1o0U82zbQTwhiOHDwAgEEEEAgCAGCGEHg8BYCCHiPAEEM79lWtBQBTxM4MHKwHFDBhIo//qLuRKwebPMCnrzXd9GtbP6KKurw1HYCWZ8gX/LyS+ZuvOJf95N46TPKMVW9QF/kz/NOe8nb/gO5/c8hs6zzq5bL4Z/GSEZV1cIKGMRX0+suJQ6q0IS+eJ6z1Ttq+sOy/cue5o69uss3mosMq15rINd275IY6q7LmvNWSOIcuWzt1xUTdEhAD1YQ48qm9bLmnZaSQp3kL/pFX3VHp6/s++E7Ob92pZRVYYmMdRvYPm//JOCJbisEYH+X3sMrl01JcF2xofiX30niPPnMHZwHxw5XyysqVafOVdUvYpjZrnmzqQlxVFRhBX1Xqb7z8O/unV/od9W+DbaTdsEEMXRFC33iWodKSnwzQHzU3Y1HJoyWs8sWSdHPvjGWgc7LLoih76QMbhudU/O0jMuqvrrjZ8oiJ9WdM7oEeirVlQkGSZQAAEAASURBVE2VKX/5r6+6E/equhNXLz9t5WqqUsdO2dq7u7rTMqPUmr/KfjVtz8MaxDi7YI4xLfhRT8lU/1VZVKM8FTFsujxBAAEEEIhKArqiwqwiOVV3DQWk2vQFwa6aK8dyeibbPu9uLojleK2VZGv+hqpqdU4di31iLorXW7vdXDzUlc30sEr9W6+Hqv/+2x9DdSGm/50P7pjEPogRMJCqqzssqlZWHly9LLHjxZeGOw6bZawJxXFFwGMffay6ounL6vj1mTpGmyOJVYW0kBzLXd+72wRadNUPHWbWw94h34se744ghq4CFtxxcMDjU90GXQ3MPoihK9YFtY10++eUym+2adaGzST7663loZqHvhiqg8VVfp4qqVRJ+tAeQ4f2QqAOxKxu3dxUKdEVBJ6ryi46kJ1fBTPsL8gSxNBbnSEyBUK6/7Xti+yCGJs6t5NzK5aY1bCCGNFt/6tX3rq5I1PtepJb3SDy+NYt2fXdF6Z7jErj/idpKlc1Rux/XTuHEdr97+UNqipquzdMF1C6+qW+gSRmrNiSpkIlc3OOrt6kB4IYhoE/CCCAAAIuCBDEcAGJSRBAwPMFCGJ4/jaihQh4qsAOFW44Pv13deJ+viS3ykkH0Vj7k/c6fLGyWX3T1Yb+iFURY7cKQPyjghA6aGBfZlqfDNClmmsvXmdbwsXVy2V9hzYOlR50Ces5pQtKIlVZQQcsrACDvhNvnzoxXX7EBElfs47YBzH0BYLiqhy3HvRJ9SV1K6tyzqfMayuIcU11B3J580bJqE7u6C5D9KC7NlneqLbkfP1tFc7oY8YF/GN/otuqIJKqRGmp9MufttLTewf1k8MTx0oZdfdhJnUXojVsVdVGTqmqI5UnTrGV1F7bqqkKJuyQxnuPm8l0eGJehaJuCWLsH/6DHPxxhEOwRHsuqFJKVeVIJzVmLxPbCcCAoQ67IIZ9FzPOtpFuuBV2yd7sdbG6rtHjV7/2qlzdvUNqL1hlnA+NG2XuotHbyBqsE44NNu42gR1rvPUYliDGI3WySN9V5ps6tVSfsdDcxUMQw5LlEQEEEEAgqgnoAMH8yiUkvQo7lh/3a7Cr58qxnO7abEGlEqqbDRXuUNUirOHUrGmy9bNuUuaHkSro2NAaLStVqOHOyRO26mH6DVeOSeyDGPpCjw7bxkubzszXOhbQL3S1hobb/UO8oTmusD/2yd6ylTqGfEVuqe5WKoyZZDtWDcmxnBUUKKgqRuRVlSP0sPPbz+XY1P+FOYjh6nGw/fGpaYD6EzCIYY3Xj862kR4/I18m/SBND5y2HXNbF+IyqZByGRVWDu0xdGgvBJ5bPF82fdxBEqpqJelVRT1tcmr2DHmiHssNHSsZVLeDeiCIYRj4E4kCId3/2vZF/wYxzi9bLBs/eNe2BjqIESdxkmi3/9XdVOnfwwkzZpSaKqhvde2pu2bRgb4UhYvJS1NnGyf2v66dwwjt/veUqkiyVQUx9aArmqZWAYzLG9bJ2eWLJI0K5lVSAT09EMQwDPxBAAEEEHBBgCCGC0hMggACni9AEMPztxEtRMBTBayTxtX+mCPJixQPtpn2J++PTBonewb2FV26WN+1ZwUx1rV5TS5v+Vsa7zkqMdRJdWvQJ1iePXnscOHd2UX+Gwf2yoomL5uP5bXrLuWeClacWbJACvf4XHKryho6iHHryBFJVaKUXNm2RfV9vsWUlT6/fIls7NLOnCi4pKpgWEEMPUN9Ilf3Na77z36oKlE8OHfWhAayvNpUSvUfajXV4VGvs77zRld00BUgdP/qNWYvdViP9W3fkEub1kmjXUcdSoJfXLNClb1+Wwp3/8yUVtYzXtmsntxTfWQ32LTHLMc+iJG1UXNZ//5/pVdjxfWRhjuPBB6e+Lf/VuvuqY0q1HJehVtyvtFGXbT4r3zoqdkzTblbfRHDOgGYWnXxYlUh0Q3R63ZPeeiuSVwJYvzz60+yW/XzXX7EeBWMqWvWRf85PGGMuSu04lh1ceOlGma8DrycX75Y9fl7zvQhf1adYNeDvuDirA9y6+JL6f7DJLPqViXgYFUlqaUroeTM7fD2FlVG/cyCuVJVf6fVnZ73zp2hIoaDEC8QQAABBKKSgHUckbZCFan402/Brporx3LXtm+RVW82kfydPjZVCKyZ6u7ZHqm7lGPHj+9QptzZRX5XjkmsIEZGdRyhq3fp476C/1aYWNG4tuq244r4pEiujpvO2oIYui0hPa6wjn0SZ8uuuiLJLBdUtyTW8aS1biE5lrOO74p9/q3keLONmYV1TK0rYmzv1VWu7d1lzVp0hS7dBaDT8ESArklcPQ62jk8rjJ5oW44uIa+rWVhdk9jeUE+cbSP9vi2I8W/XL+YzqgLFrOK5JYmqNldNhVr1EJpj6NBeCNTLu6+6SdF3XusQjh6s76SpNPfHPDOOIIZh4E8kCoR0/2vti3R3G1lV5cel9auaYH+KoiXl9ILZpmsSv6tXot3+97qqnriyZUPJ+15nKfhxT4ctqn873z521P/fAFVhkv2va+cwQrv/1WHHfcMGiP73stbCNbZtoW8muay6mLVutiCIYaPhCQIIIIBAMAIEMYIB4m0EEPAOAYIY3rGdaCUCnihwRFVx2KOqOZQbPk4y1PIPP9i3U590ff70qcRWfYLrwTp5X2PWYlnWoIYkzZ1Xygz70b8Mcr2GUnrQSFVhopY6eXpeXtm8z35WTp87C2JYQQr9AZ9/S1/af1j3FZ2nXQdbEKP8qAmyVgUhdGlofZJbnyS4cfiglPiqn+mewgpi6C5AVr3e0FTK0BfoE2bOJo9UNYqLKkDhShDDakPygoVfKP29okkddSfoSYeLBHr663t2ycoWDST32+9K4Z5fmlksqV1Jnqv/6cCDHqwTeLokd6Hun4uuumEN+m4gvU62k3YBq1gECGJo+5uHDjp106GYemu3yqV1a0yf6NYyAj66GsSwTtKUH/mTuluxtm02J6dPlW2qdLkVorACOz6q7/WUqsuSOOrx5OzpZnp3BzEurV0l61SQJWWxkpKv40dmGffOnpYd33wm8dKklZJ9B6m7ewuKjypvzcl72ybjCQIIIICANwuoi+azS+RVAQN1J/FcVUkswKArmD25/8B0h6a7LnPlWM46Fiva62vJ+VbbAHN88aWzi/yuHJPou2zXvdfKhCL0neF3Thwzwdob6vhJd01RoEs3ubBqmSlNb1XECM1xhXUcZd/ymnOXS5JceWyjQnIsd2beLNmsgp+lBwyXzK/4d8tiH8S4uX+vCbdaM09duqwkV8cmrgQxLHv92aCOg60ghrUM+8cwBzHUzBa8VEp0ILjO0vWmG73QHEOH9kKg/brYP19Wv5rcv3RRXt16wIzmWM5eh+eRIhDC/a+1L9JBjLunTpgqOrrbDR1EO6G6eNTh+tuqWo++qSA67X8vrFwqGzq1dbiBwtqeG9S/ETo813DbQXNOgv2va+cwQrv/tX7jF1fnUrKrrsmswaqGad2EQRDDkuERAQQQQCA4AYIYwQnxPgIIeIUAQQyv2Ew0EgGPFLiwQp306NxWcrR8S4p9+Z1DG02J0PJF1EnqXFL9L/9+a62T9ymLFlcVIDao8YtMFYoFVUraKmJsfL+1OlmyyvTlHcv3v6oMT/38VLchKtSh+vm2BmdBDKvf11zqxH8RdQEgsMGqiKH7DF/2SnXR7S07fLx/8KHN+5K6TDn/ahSf9Jbc6rVVIrtUvyGSpVEzM9v7F87LwmplXApi1Ji1RDaoi/wP1J2LRVSoIpcKV1jDJnXi6Jw6gfTqlv0SJ1Fia7SpvvF3145SVN0xmVPdMam7TZldIo8kL1BEqvw2w0xnH8QoM3i07bP2T2wn7YIJYuj2XVBhhIDtcDYvvc3t12HnV5/Kpb83hLgihn2JaL2cA6OGyIHRQ013LCmKlzZ9jyfKlk1VqJhru6tRf0fOr13p9ooYm7t1kjML59qv7gvPK4z5WdJVrUkQ4wUZRiCAAAIIeKuArh6hq4TVXfm3qdxlvx5WlxsVRk2UdNVr2YIYQR3LXd+323Q/l0eFXwupql7WoI9jdEg3prpAr7ubswZnQQxXjkmsihi6OoWukLXpo/ZSQnU1p497Lm5cKy+v2iL6Itzt48dM2PXpw4ehOq6wjqN0d2q665P9IwdLwkxZVLcr80zVBb0erh7L6WkPjx8te4f2lyqqm7pUZcrrUW7rmsTV42AriFFnyX9d/j1UFTF0gCWsQYxnjx/L7OLqeFWFj3V3AKE9hg7thUB9x/vj27cduvvTxvp7boLP6thfDwQxDAN/IlkgJPtfa1+UUXWvc27pQtGP+vffdrtw/aM7t6Pd/ldXq1zeuI7kavWOFFFVKO0HXTXE7+pVafD3XjOa/a+qGOTCOYzQ7n/PqMosm7t3kWJf9JUcr7e2bQoriGH9liaIYaPhCQIIIIBAMAIEMYIB4m0EEPAOAYIY3rGdaCUCniigwxFLVb+rfrduSrU/56luHnLZmml1MVGgc1fJp0pT68E66aufW6VDdTDBPohxUF2E368uxpf8dqBkbdZST6q6JHkii2uWN6Wsay1YbcbpP86CGE8e3FcnVoupwEY8qa37yf032KBP/J9bvMC/qwpVltQ+iHFy5h+yrXcPiZcqjakwUWfZerl95JBDEGPrpx/LqTkzpOacZZJEVfLQwz+TxsvugX1UEKOJ6ppkmBkX8I8Jn6gLAK+qu3D0SY+VzeqL7ju9ouqHPU3FKmZyq7JIoY8/lTzvdfKfhbpDat07LU24ofqMBZKsQGFbWeUc6u6SYuouEz24M4hhhSAKfthD8rb/wL8d6u8V1UWLb7r0kihr9sCrayi/E8rR1YoY1smYdJVekgrjJ5tl6RP3y1+tIXdOnZJ6q7eoO3DvyeI6lU3/smVHjjfT6Isos4r5f8/qLlNdk6j+vwMOoe2aRH8Xtaf9oLuf0WEjfTGheJ8fTEnyOAkTcvLeHonnCCCAAAJeLXB86v9kx7efSzZV6r5En4Ei6jhJD/rfxBVNX5ZHN26YLtFi+fq6dCyn//1eULmk6hYkhamyEcvHx8zv+B+TTZWpsurCYUZVycsanAUxXDkmsQ9i6HDo4loVVdDDTx1nXTPrUvzbAaZLNyuIoe8gD81xhXXxs8i/gdZ9Q/rLoQmjJXWpslJp0lTTlZ6rx3J6nXU3fDq8Wn/dDvFNmcow2FfESJQth0Xj8Gh/TGm9EfA42tXjYKfzUkGMBVVLhyqIoYPNVljaOg6zgtqhPYYO7YVAZ8vTXZUsrl1ZkubNZ6tMRxDD+hbxGJkCIdn/Wvsi3d64iZOI7srIJ0VKhyCGb6rU0W7/q89JLFQ3dsRQAb/ai9eJ/q2mh6tbN8vqt5pKetXdZXnV7aUe2P+6dg4jtPvfB+rfkUU1K6jzJXnMvlZX6LR3t36/E8QwLPxBAAEEEHBBgCCGC0hMggACni9AEMPztxEtRMCTBc4tWSB/d+2kTgYllqyNW0g8dcH+hurX+rQqu5woazap/L8ZtpPMVhAjUZasUmPOclPmOuAJ5Ee3b8kSdSJdn0jWlSjip89gutu4ovobL6rucMmp7nSxBmdBDP3e4Z/Gyt7B/UzfpDneUJUkVPcop+ZMl5sHD8hLv82UFKqLC/sgxrNHj0xli4eq+xHdxYe+s8jqP9bqmuTEtCmyXVV90P1dZ361qSkHq4MHeshQrZaUs+tj24z890/AE926j+o1b79mQiVV/5gj+mS7DoksfbmqKpd8QXK+8bYkyZNPzi9dZKo+ZKrbQMoMGSP//DLBrNfDa1dMtYjU5SubJYQkiJG+cjVJoS4aWIM20oO+8KL709V3qC59+SXRy8je4k1JXriY3FDlsfWFk9Tqjs2KE6e4PYihl5/nnfYm5HF67kzTd6ztTkwVRtGlrR9euWzao08snl0yX921638nY42/FkvSfAX0LBwG6wKA1b2Jw5vqxa7vvpSjv02SWvNWqPBQ7oBvO7y+d+6MLKpR3v/iVN8fbO9x8t5GwRMEEEAAAS8XeP70iaxq8YpcV//mp61QRdJWVncQq9Do2cXzVAWBEw6VvFw5ltMcVrA2lTrmytSgkfm3/LDq0i6u6jaujrpQpkMd1uAsiKErlQV3TGIfxMitjiX0sdLuAd+qHEkMqan/jVfHbCub1bNVxJBQHldYFz+tIIau7LGpQxtznGaFY105lrt39ozs/LqXXNywRlIWLWGqRVgGrgYxbh0+KPm7dLc+JndPHjdBWD2i/IgJkr5mHZeOgwMen+rP6wtoIQ1izC1TUPSxe4rCRdTxcTMV3rmulj9anj1+IrXmrzDHuaE9hg7thUB9rL36rebq90dK0d+L2Oq7duTncXLn9Ekp88NIyVS/oV5dQrVGgT+RLRCS/a+1L9JtLqkC4lmbvmaab18RI2GWbNFu/6sRjk35RXb2/cIEALK3aGWqXep/c54+eCDVZy40lRXZ/7p+DiO0+1+9LXb26S06aJG2XCUTury0frWcUeeMdAWXskPH6knM+3q6cqqb2gy165lx/EEAAQQQQMCZAEEMZyqMQwABrxMgiOF1m4wGI+BxAle3bJJd/b6UW6pPWn1y2lfdmZNSnXjXVRv0XTrWYJ28rzLpD0lVtoIZbQUxsqg+skupvrL1cEedVN6uKlBc27vbdEcSL3UaydOuo0MIQ09nBTFe6ANXnWjXJ2MOjh0uD/+tcBBfBUQK9+gtGVWwQQ+rWzaUm+pktr6DTw8HRg1VXWIMUWWm50vyQkXkkuqiY53qqsMKYuj12qNO7p+Y9rs8UcEJfXdnzjffkaOTJ6oTvaml7opNZj4B/5gT3eoihu7uwxqsE9I6qFJj1lJzMeKB6rN6++fd5fLmjaoCyGNzsihr4+amzTHjxjXVMfTJ9+wtW0v+zv4VRvT8QhLEsJbv7LHm7KUmAKIvEuz48hO5suVveaYuzMSMFVsy1KorRXv3EZ/kKf4LYqi+iXO1bmeb1Y4ve8rx6b+/0F1IYNvIqoih71C6umOrOYmvl5W+Wk0pOWCY7a7Km4cOyJZuHc1FFL2wZPkLmnLg+mROqX6DVTcxzW1tsJ4EF8TY3f8b+efXn9QFgpXmIo31OWePVulWc5cwQQxnRIxDAAEEEIgCArrilP738dzi+abSmf43OUmevKr7uda2i316NV09ltOhh0PjRpp/b/1u3lBdkcSRVCVKSUlVQUx372E/6CDG3TOn5ZXN++xHS3DHJJc3rJW17d5Qx0qfmwvuj+/elYWqokPK4iWlwrj/mXmtalFfbh09arom0SNCc1xhXfwsYnfso5el562rbVgXRIM7lru+a7usbtVMVTkrKCVVV3eJsue0ra+rQQzd9UhgQ8YadaTsyAmi7YM7DnZ2fKqDr/Mrl3Da5V5g20gHMWLGiSNJ8+RXVT7Wm98B8dRxcYm+AyVtleqmqaE9hg7qQqAO6swpnd/hwp69iw6K7xnQR+5dOGdG+yRJqgIs3STHG2/bJiNUa6PgSSQLuLr/tfZFqUuWkcqT/bup1E23ghh1l26QBJkym31AdNv/agf9O33/iEHmpgIdyNPVOkuoKpvJVfCN/W/IzmGEZf+ru5PV+9+Tf02Tx3fvSCx1LkOHMPS5odjxE+hNRRDDKPAHAQQQQMAVAYIYrigxDQIIeLwAQQyP30Q0EAGvEdClqB/duiU69OCOQd9dqO/IjJ8uQ6hnp4MeMWPFcgiEhHpm6oP6rqUHly+rPtRTm1LUYZmXs8/q6hw6XOGrwidWKU9n07lrnD5ZpQMruo/whJmz2mar23Ff3Rmpt6U+we7uwQpilB/5k6RXfc7fv3je3CVrlbUOuLxH6iKOLpUeV51ID24ILogR3OddeZ+T964oMQ0CCCCAgDcK6G4cfJKndKhaEZb1uK8uhvskS67mFy9UswmPY5KQHFeEtNERfSyngw4zC2SRzKrSQ2lV8cF+cPdxsP289XMdxIifPr0JFutqdto1sOP2kB5DB3UhMGA7Anv98OoVUxkvXpq0L0zCsdwLJIzwAAH2v2HfCH6qyqW+kcHqojTscwx8Dux/g7Z5qM7F+KguuGKqbmPsB7omsdfgOQIIIIBAUAIEMYLS4T0EEPAaAYIYXrOpaCgCCCDgdgEriFFv9VZxdpLa7Qv8d4YOQYwatd26GCuI4asqeFj907trAbpLk6P/myi6y5LE6k5WXfqcAQEEEEAAAQQQiCwB60JgtqYtpUSfgRHaDPsghrsXrIMYDy5eNN0U5n23k2Rt1tIti+BYzi2MzAQBBJQA+9+QfQ2019J6L5mbd/QNN3RNEjI/pkYAAQSiowBBjOi41VlnBKKgAEGMKLhRWSUEEEDARYGzC+bIWVW+uWT/obZSoS5+NEyThWcQQ5ee1aVQ9RA7QQIp3PPLMLXV/sMXViyVC2v8wxe+qdM6dBNjPx3PEUAAAQQQQACBCBFQXZH8/eH7krZyNYduZCJi2eEZxNg3pL+psKHXQ1f7SFm6nFtWiWM5tzAyEwQQ0ALsf0P0PdBBjJ1f97J9Jttrb6quRwvZXvMEAQQQQACBgAIEMQKK8BoBBLxSgCCGV242Go0AAgh4tcCN/Xvk8sb1kqFWXUmYJZtXrwuNRwABBBBAAAEEoqOArhIWJ2FCydK4RXRcfdYZAQQQiDQB9r+RRs+CEUAAAQQiUIAgRgRisygEEAg/AYIY4WfLnBFAAAEEEEAAAQQQQAABBBBAAAEEEEAAAQQQQAABBBBAwHUBghiuWzElAgh4sABBDA/eODQNAQQQQAABBBBAAAEEEEAAAQQQQAABBBBAAAEEEEAAgWgkQBAjGm1sVhWBqCxAECMqb13WDQEEEEAAAQQQQAABBBBAAAEEEEAAAQQQQAABBBBAAAHvESCI4T3bipYigEAQAgQxgsDhLQQQQAABBBBAAAEEEEAAAQQQQAABBBBAAAEEEEAAAQQQiDABghgRRs2CEEAgPAUIYoSnLvNGAAEEEEAAAQQQQAABBBBAAAEEEEAAAQQQQAABBBBAAAFXBQhiuCrFdAgg4NECBDE8evPQOAQQQAABBBBAAAEEEEAAAQQQQAABBBBAAAEEEEAAAQSijQBBjGizqVlRBKK2AEGMqL19WTsEEEAAAQQQQAABBBBAAAEEEEAAAQQQQAABBBBAAAEEvEWAIIa3bCnaiQACQQoQxAiShzcRQAABBBBAAAEEEEAAAQQQQAABBBBAAAEEEEAAAQQQQCCCBAhiRBA0i0EAgfAVIIgRvr7MHQEEEEAAAQQQQAABBBBAAAEEEEAAAQQQQAABBBBAAAEEXBMgiOGaE1MhgICHCxDE8PANRPMQQAABBBBAAAEEEEAAAQQQQAABBBBAAAEEEEAAAQQQiCYCBDGiyYZmNRGI6gIEMaL6Fmb9EEAAAQQQQAABBBBAAAEEEEAAAQQQQAABBBBAAAEEEPAOAYIY3rGdaCUCCAQjQBAjGCDeRgABBBBAAAEEEEAAAQQQQAABBBBAAAEEEEAAAQQQQACBCBEgiBEhzCwEAQTCW4AgRngLM38EEEAAAQQQQAABBBBAAAEEEEAAAQQQQAABBBBAAAEEEHBFgCCGK0pMgwACHi9AEMPjNxENRAABBBBAAAEEEEAAAQQQQAABBBBAAAEEEEAAAQQQQCBaCBDEiBabmZVEIOoLEMSI+tuYNUQAAQQQQAABBBBAAAEEEEAAAQQQQAABBBBAAAEEEEDAGwQIYnjDVqKNCCAQrABBjGCJmAABBBBAAAEEEEAAAQQQQAABBBBAAAEEEEAAAQQQQAABBCJAgCBGBCCzCAQQCH8Bghjhb8wSEEAAAQQQQAABBBBAAAEEEEAAAQQQQAABBBBAAAEEEEAgeAGCGMEbMQUCCHiBAEEML9hINBEBBBBAAAEEEEAAAQQQQAABBBBAAAEEEEAAAQQQQACBaCBAECMabOTQrGLalKmlSdW6smnPdtlxeJ9tFjVKV5I8WbLL/uNHZPX2TbbxPEEgsgUIYkT2FmD5CCCAAAIIIIAAAggggAACCCCAAAIIIIAAAggggAACCCCgBQhi8D1wKlC5WBn5+v1uMmHWFJm6ZI6ZpkS+QjKgy+fy7Plz6Tbka9l77LDTzzISgcgQIIgRGeosEwEEEEAAAQQQQAABBBBAAAEEEEAAAQQQQAABBBBAAAEEAgoQxAgowmsjEDCIkSZ5Khn3eX9JnCCRjPzjZ5m1erGDlB5/78F9efrsqcP48HoRO1Ysie8bX27fu+P2Rfj6+EjMGDHl/sMHbp83Mww/AYIY4WfLnBFAAAEEEEAAAQQQQAABBBBAAAEEEEAAAQQQQAABBBBAwHUBghiuW0WrKe2DGDNXLpSRPfpKrszZZNnmtfL9pFE2i5fLV5U2r7wmKZImk0ePH8vmfTtk8G/jbQGJPh16SIUipcz0fo8fiU+cuHLr7h1p3KOdPFeVNeyH6qUqSPe3Oshno76XnYf3m7e6vvGe1CxbWep9+JY8e/ZMdEiic7O3pUaZyhI3Thy5evO6jJ42Sdbs2CwNKtWQjs3flo8HfSWHTh0zn/+i7YdSvmgpefmDVjJz4HiJ5xvPtMFarm7T4ZPH5O+9O+S9xm/I8XOnJFv6zOZt3f1Kn5+GyZUb16zJefRgAYIYHrxxaBoCCCCAAAIIIIAAAggggAACCCCAwP/buw84J4o2juMPvYN0RClSRFBBRCkqRSmiUlWaYKEJKEhHeu+9SBWkKCBiASsKr4A0BUEEEVBQkd47SPWdZ2BjLpe72ztykLv81o9cssnuzn4n2Wz57wwCCCCAAAIIIIAAAiEkQBAjhCo7OqvqBDEWmJYv7shyuzxcqIjs2P2XtBraXTS8oEOJ+4rKoJZd5PTZM/Llqm+lQK688kCBe2XD1s3SYUw/+57er7aXMg+WsON27vlLalWsasdXer2eXL4StvWMek9Wl6Y160vH0f1k/bbN9n3DWneXYgULS4XX6togRrv6TaVK6YqyecdWW54nS5WTZEmTSv3urUSDHL7TD2/dQx40XaqUb1FHqjxWXrJlzCL1Ktew895uwhpaVg1a5M6eQ6qVrWTHz1/8mRTOX0gK5M4ra7f8JJ3HDbLj+Se4BQhiBHf9UDoEEEAAAQQQQAABBBBAAAEEEEAAAQQQQAABBBBAAAEEQkWAIEao1HQ019MJYnhP9vrgrrL1rx2eUUPe6GYDGm1H9JKff98qCRMmlPFvDrCBjEZ928tf+3ZLxxeby1OPPiEvdG8pB44cksGtukjxe4uKBjEK5MwjKVOktPO7cPGi3Jv37nBBCu8ghraA8cXoWXLg6CF5uVcbG+SoUe5JeaNuY5kwf6YkSZw43PTeQQynBY76lWtK4xr1wgQ+ujV6Q8oXf0z6vT1Klq5fY1vbeLfvWMmcPqNUa9dQzpw761lvHgSnAEGM4KwXSoUAAggggAACCCCAAAIIIIAAAggggAACCCCAAAIIIIBAqAkQxAi1Gne5vk4QQ7sRSZc6jZ3q59+2SIfR/eXK1WstWbw/cIKkMkGKqm1f8cy1bqXqtouPPlNG2O5CejZpI+UeekRqtG9suyvxDmJ8OmqGJE+azE6799B+26qGb4sW3kGMvHfmksldh9j3a5ckOiQz06dJmUo+/N8XcvzUCRvEuHT5kqw3LV3oUPL+B+1fbREjsiDGtB7D5a47ctqAx+6D++w0HRo0k6dNKxov9mwtWj6G4BYgiBHc9UPpEEAAAQQQQAABBBBAAAEEEEAAAQQQQAABBBBAAAEEEAgVAYIYoVLT0VxPJ4jx9iez5bMVS2Ri54G2i5KPTOBhvGl9Qof3B02UJIkSy3OdmnrmXsd0PdLsuRelr2lZYplpWWJk216mm4+CUqnlC7ZrEe8ghraIkcC0oqHD4ePH5ImHHwnXooV3EKNg7nwyrlN/+/4vVv7P/nX+2bj9F8mSIZOdXsdt/fN3+1LBu/Lbv1EFMWb0HiU5s90RJojRrv6rphuUCuK07mFnxD9BK0AQI2irhoIhgAACCCCAAAIIIIAAAggggAACCCCAAAIIIIAAAgggEFICBDFCqrrdr6x3EGPu1wsl1+132m5HUiZPIQPfGSdL1q4Qp9sPp8uSBAkSyNgOfU0XIwWkcb8OsufgfvlwyGQ5f/GC1O3Swi7cO4hx+cq1ljWcUtV7snqkQQxt+eKT4dNk7+ED0rBPO7l8+bLtDuWRwsVk9ab1oiEQ3xY1nDJGFcTo06y9lC5aQnpOGiYrN66TxIkSyaw+YyRbpix0TeJUUJD/JYgR5BVE8RBAAAEEEEAAAQQQQAABBBBAAAEEEEAAAQQQQAABBBAIEQGCGCFS0dFdTd8ghk7/2AMPS59mHeSi6fqj1dDuktW0QNGvRSfTJchJWfXzOsl0WwbbFcim37fK8PcmSdeGreQe04rFN98vl8EzxtsiuAlirPv1Z9l2vUWLF5953k439v1psmDZ12b51wITv5rX12z6UR4qWESK3F1IRs2eIqlNUCOmQYw29ZpItbKV7LK0tY3smbNK0QL3ydotP0nncYPseP4JbgGCGMFdP5QOAQQQQAABBBBAAAEEEEAAAQQQQAABBBBAAAEEEEAAgVARIIgRKjUdzfV0ghhj55oAxPKvPVM3rFpbNByxc88uadq/o9Qo96Q0rFZXtLWKq1evyvqtm2TIzAmSw3TzMaJND/l995/SZ8pIOXD0sJ1Hz6ZtpVyxUlLp9XoSUYsYnoV5PThy4pjU7txc0qRKLW1faGpCIcUlkenW5IpZ5qLV38rYedOlVvln/AYxCubJL8+0fskzt5rlKkuruo2k4+h+sn7bZjveCWKc++e8aKsfOmzftdO0kDHcdJty1D7nn+AWIIgR3PVD6RBAAAEEEEAAAQQQQAABBBBAAAEEEEAAAQQQQAABBBAIFQGCGKFS07G8npnTZ5RTZ8/IBdMNSaCHqT2Gma5CEssrvdt6Zp04cWJJnTylnDl/Nlygw/OmaDxwghgv92ojJ86ckkQJEtq/0ZgFb73FAgQxbnEFsHgEEEAAAQQQQAABBBBAAAEEEEAAAQQQQAABBBBAAAEEELACBDH4IAS9wMQugyShCUY0G/hmrJXVO4ix++C+WFsOM449AYIYsWfLnBFAAAEEEEAAAQQQQAABBBBAAAEEEEAAAQQQQAABBBBAwL0AQQz3VrzzFgloaxupTdcnf+79O9ZK0KR6PalYsoy0Hdlb9h0+GGvLYcaxJ0AQI/ZsmTMCCCCAAAIIIIAAAggggAACCCCAAAIIIIAAAggggAACCLgXIIjh3op3IoBAEAsQxAjiyqFoCCCAAAIIIIAAAggggAACCCCAAAIIIIAAAggggAACCISQAEGMEKpsVhWB+CxAECM+1y7rhgACCCCAAAIIIIAAAggggAACCCCAAAIIIIAAAggggEDcEbglQYw67ZsaoQRxR4mSIoBA0As8WvghSZIokfRu3SXoy0oBEUDg5gj8e30x7HHcHG+WggACCKgA214+BwggECgBtieBkmQ+CCCAQPQE2P5Gz4t3I4AAAoESYPsbKEnmg0DwCKzZsFZ++nWTtGv8WpSFSvCvGaJ8VxRv2LVvj9Rt/6okT5MqinfyMgIIIOBe4O7sueTc6TMya/hE9xPxTgQQiNcCutNCCCNeVzErhwACQSrA9jdIK4ZiIYAAAggggAACCCCAAAIIBLUAx9NBXT0UDoFoC0x87x25cOmitG3UIsppAxrESJEudZQL5A0IIICAW4G8We+UsydPy5zRb7udhPchgAACCCCAAAIIIIAAAggggAACCCCAAAIIIIAAAggggAACARcYM32SXDXtXBDECDgtM0QAgZspQBDjZmqzLAQQQAABBBBAAAEEEEAAAQQQQAABBBBAAAEEEEAAAQQQiEiAIEZEMoxHAIE4JUAQI05VF4VFAAEEEEAAAQQQQAABBBBAAAEEEEAAAQQQQAABBBBAIN4KEMSIt1XLiiEQWgIEMUKrvllbBBBAAAEEEEAAAQQQQAABBBBAAAEEEEAAAQQQQAABBIJVgCBGsNYM5UIAgWgJEMSIFhdvRgABBBBAAAEEEEAAAQQQQAABBBBAAAEEEEAAAQQQQACBWBIgiBFLsMwWAQRurgBBjJvrzdIQQAABBBBAAAEEEEAAAQQQQAABBBBAAAEEEEAAAQQQQMC/AEEM/y6MRQCBOCZAECOOVRjFRQABBBBAAAEEEEAAAQQQQAABBBBAAAEEEEAAAQQQQCCeChDEiKcVy2ohEGoCBDFCrcZZXwQQQAABBBBAAAEEEEAAAQQQQAABBBBAAAEEEEAAAQSCU4AgRnDWC6VCAIFoChDEiCYYb0cAAQQQQAABBBBAAAEEEEAAAQQQQAABBBBAAAEEEEAAgVgRIIgRK6zMFAEEbrYAQYybLc7yEEAAAQQQQAABBBBAAAEEEEAAAQQQQAABBBBAAAEEEEDAnwBBDH8qjEMAgTgnQBAjzlUZBUYAAQQQQAABBBBAAAEEEEAAAQQQQAABBBBAAAEEEEAgXgoQxIiX1cpKIRB6AgQxQq/OWWMEEEAAAQQQQAABBBBAAAEEEEAAAQQQQAABBBBAAAEEglGAIEYw1gplQgCBaAsQxIg2GRMggAACCCCAAAIIIIAAAggggAACCCCAAAIIIIAAAggggEAsCBDEiAVUZokAAjdfgCDGzTdniQgggAACCCCAAAIIIIAAAggggAACCCCAAAIIIIAAAgggEF6AIEZ4E8YggEAcFCCIEQcrjSIjgAACCCCAAAIIIIAAAggggAACCCCAAAIIIIAAAgggEA8FCGLEw0pllRAIRQGCGKFY66wzAggggAACCCCAAAIIIIAAAggggAACCCCAAAIIIIAAAsEnQBAj+OqEEiGAQAwECGLEAI1JEEAAAQQQQAABBBBAAAEEEEAAAQQQQAABBBBAAAEEEEAg4AIEMQJOygwRQOBWCBDEuBXqLBMBBBBAAAEEEEAAAQQQQAABBBBAAAEEEEAAAQQQQAABBHwFCGL4ivAcAQTipABBjDhZbRQaAQQQQAABBBBAAAEEEEAAAQQQQAABBBBAAAEEEEAAgXgnQBAj3lUpK4RAaAoQxAjNemetEUAAAQQQQAABBBBAAAEEEEAAAQQQQAABBBBAAAEEEAg2AYIYwVYjlAcBBGIkQBAjRmxMhAACCCCAAAIIIIAAAggggAACCCCAAAIIIIAAAggggAACARYgiBFgUGaHAAK3RoAgxq1xZ6kIIIAAAggggAACCCCAAAIIIIAAAggggAACCCCAAAIIIBBWgCBGWA+eIYBAHBUgiBFHK45iI4AAAggggAACCCCAAAIIIIAAAggggAACCCCAAAIIIBDPBAhixLMKZXUQCFUBghihWvOsNwIIIIAAAggggAACCCCAAAIIIIAAAggggAACCCCAAALBJUAQI7jqg9IggEAMBQhixBCOyRBAAAEEEEAAAQQQQAABBBBAAAEEEEAAAQQQQAABBBBAIKACBDECysnMEEDgVgkQxLhV8iwXAQQQQAABBBBAAAEEEEAAAQQQQAABBBBAAAEEEEAAAQS8BQhieGvwGAEE4qwAQYw4W3UUHAEEEEAAAQQQQAABBBBAAAEEEEAAAQQQQAABBBBAAIF4JUAQI15VJyuDQOgKEMQI3bpnzRFAAAEEEEAAAQQQQAABBBBAAAEEEEAAAQQQQAABBBAIJgGCGMFUG5QFAQRiLEAQI8Z0TIgAAggggAACCCCAAAIIIIAAAggggAACCCCAAAIIIIAAAgEUIIgRQExmhQACt06AIMats2fJCCCAAAIIIIAAAggggAACCCCAAAIIIIAAAggggAACCCDwnwBBjP8seIQAAnFYgCBGHK48io4AAggggAACCCCAAAIIIIAAAggggAACCCCAAAIIIIBAPBIgiBGPKpNVQSCUBQhihHLts+4IIIAAAggEp8CF82fl6pXLtnBJkqWQxEmSBqSgly5ekMsX/7HzSpQ4qSRNniIg82UmCCCAAAIIIIAAAv8J6H6c7s/ZIUECSZEq7X8v3uCj82dOeuaQPFUaSZAgoec5DxBAAIFQF2D7G+qfANYfgfgjQBAj/tQla4JASAsQxAjp6mflEUAAAQQQCEqBPrWLytH9u2zZarzWR56o1yog5fzi7f7y9ayRdl7Z8xSSzjNXBmS+zAQBBBBAAAEEEEDgP4F1i96Xdwe8ZkckTZ5Khi/e/d+LN/BILzC2KZfFM4cm/WdK4bJVPc95gAACCIS6ANvfUP8EsP4IxB8Bghjxpy5ZEwRCWoAgRkhXPyuPQMAEjuz7S/7e+pOcOLhH7rz7fslZsJjo3UkMCCCAQEwE+tR6wN5FWaVpd8lTpJRky313mNkc2/+3HDNBjXwPlvaMP7L3T9nz2ybPc98HSZImk9QZssje3zbLx+O6ScbsuaTLrFW+b+M5AgggEJICly78I7u2bjDbyE12Hy73fcUlS8585k7zBCHpwUojgMCNCaz9aq68N/B1KfnUC5Lf7K89XLlOmBlqoGLbD99K7vuLS8o0t4V5TZ8cN8eVf276QU4e2W+OLwuLbpOSJEsu//77r6z5dJb8tmG5bPh2gTTqO10eeLx6uOnj0gi2v3GptigrAsEvcKPb3wN/bTfb3+/l8uVLctf9JeTO/PfblY6P29/gr01KiEBoCxDECO36Z+0RiDcCBDHiTVWyIgjcEgE9gfb5lH7yvzlvyb/mP2dIbJr8b9hnmtxf5hlnFH8RQAAB1wIaxEiQMKH0nLfBM83Ff87Lz8s+lR/Mif3fN6yQB8pVlYb9ZnheXzr3LflkQk/Pc98HqdKml0Ff7LSju1a9W9Kkz0wQwxeJ5wggEJICu7f/LDN6NZbDe/8Is/53m4unrw6Za7pxShlmPE8QQACBqAScC4EvdpsYJoSx/4+t8sOXs2XdN/Pl9PHDZl9stdx+1z1hZrd+8Ycye2BLcxHwomf8HfnukxbD50vajFntuJUfT5MPRnWM80EMtr+eKuYBAggESOBGtr/fzBguX7wz2ITernpKU7pGY3m+3VBPODe+bH89K8gDBBAIWgGCGEFbNRQMAQSiI0AQIzpavBcBBHwFPp3UW5bMHit57i8p1Vv0tneY7972k8wZ0kbOnjomb4z7zLxWwncyniOAAAKRCvgGMbTVnaENy8o/505L0mQp5eKFc1K0XLUwQYzzZ0/J2ZPHws338N87ZGLH2vJIlZek7puj7esEMcIxMQIBBEJUQC+E9qv7kFy+eMHuy91f+mmzrT0jKz6eKqs+nSGFSpSX5ubiJwMCCCAQHQF/FwI/HNlRvvtkmp2NBvc1aOEbxPjn7Gnp/HQeSX1bJmky8F3bMs+yeeNl0cwRUvzJOtKg+0Q7fXy4EMj2NzqfKN6LAAJuBWK6/f1ry48ysnklyVngAXmp19vmuDuFzB70umz/cbl4h+riw/bXrSXvQwCBWytAEOPW+rN0BBAIkABBjABBMhsEQlDgxKF90q/eQ5LWNPXfbc5aSZwkqUdh+7plMr7ds/Jo1ZelTqdRdvz+P7fJFdO0odOsoY7UZlj37dwiqdJlkEx33OWZ/sL5s7aLgXPmouqdBYpI+qx32td0/AEzHx0umAuyB/76TTKY19JcvzMqQ7YcksaUR4fDe/6w89DnOcw8kqVIZcfrP3/+sk727fhF9GKDc1eV50Xz4K9ff7TdF2gzt1o2Zzh97JDoXUtXzXpkzV1AMufI67zk9+/BXb/LkT07JbW5894Zrl69KhfNemi3CN7rrHcc/L1toxw/sNuugzolS5namUx02cfMa7fnKWSb6N3z+2Zrn/OeoraZ3kPmYvP5Myft+w/u+s0s45zkuOeBa9ObZsVzFXzQmJ0xZtutp/d6HzVdPJw5fkTuMMv0rsfIDKMqj6fg1x/ovA6aukthPG2ZTTcRzqBOF/85a+rpennNC7ouuk56F+7teQo6b7UGe7ZvNDZp7Pp5N2XsTON58/UHuq7OZ0g/c2qnzR3rfLXLiwQJEvpO4nkekZl+nrUe9TPglMHNvLXrjD83/2DKXtTeUaLNe148f0Yyms9/xttzeZbr/cBZL10H73rT7jn0BK5vvem0kdWdP+8rly5al1S3ZbQtRbj5nu029ZDc1EO6zLfbrolOnzgiucx6Zbg9p3fx7ePofnd8gxj6Gf3EdCeiJ+C1aeruNQqGC2KEW+j1Ee8PaS1rPn9Pury7xtPFCUGMiLQYjwACoSbgXBit22GkPFL9Fc/q6+/TmNefsb9ZfT/ZIukyZZPo7MvpjCL67Xezz6LTa0tIu7aul7Mnjtrfusx35tHRdtDw3aZln9l9pkKlKjqjPX91n3Hjt5/IbVnulAIPl/OMj2p/y/PG6w+c/YAz5vfWe3/u3KnjktK0tOT7GxzZ711U+05u93Oj+h3PlD23ZzUiM4yqPJ6ZXH8QUX3qy/7K5Oy/RGdfTuelLSZc/OecPgwz5Cyo+07X9tl0nzii/cEwE11/EsjyXTb7TBtMiw1JzX56+ix32CX8c+aUJE+d1nahkShxEn9FsN+fyxf/CbO/q8dGum/oeyykM7iRfTn9DLj5nkXnMxDd746/C4FfvN1fEiZKLA9Vqi3ffThFln80JVwQ49fV38ikN+vK0406S+WGnTyW3aoVsBcFe83faMfFhwuB0dn+Ot8nPYbUkIoz6OdEt0e+26KIvq9uPhc678i2HXFx+6vrFNmxS2xsf3WZkX2PIyuPTus9aPl0W+F7fkTf4/xO+R4rxuR4le3vNfXIPv8ReXufU9HjdP3O6hDRuZlg3P7OH95BVix8Rzq8/T97zkbLf+roQeltWqvUc2ptJy7SURIftr92RfgHAQSCXoAgRtBXEQVEAAE3AgQx3CjxHgQQ8Cfw49cfyKz+zaVas15SoUHrMG+5evWKTGz/vKTLkFUa9JhkXxvRtIIc2r1Dhiz6y/PeBW91l2/nTZCHKjxvEvdT7PhfVnxp5tvC3vnuvLFI2Srycq+p8sfPq+Wtts86o8P9rdasp5St3UI+GtVJVn/+rud1PVnVuP9MyVuklB3Xt86DonfY+7vLUw+sOz557UJyzdf6yuP1WtppFs8aKV/NGCaXL13wzLe4OYlYr/NYSeQVQvG8aB7oOu/a9l/XCt6vea+zlmVat5dkrwmHOEOqtBmkyaD3JG/hknbUd/Mny4dju9i7E/42F8CdQcMczYfOkzmD35A/Nn/vjA7zN3GSZDLy2/3y65rFMqlTHan5ej95vO7rnvfMNdOu+eI96fn+ehsOuWTuio3KMKryaL/yOuhdbe/2byabV147aNdxevG+qbnDLX+xMvrUOh38+3cZ+vUu+1y7vHmrdQ3ZYer7uVYDTZ02t6EdPVm5xjRl7Ay6Xs+2GiCP1WxkR/2y8iuZ0qW+87Ln76PVXpE6HUfK7z+tlFl9XpWTRw94XstjLuq/bLrRcU6ke164/sCf2bYf/mdaWKhjwzQdpiyxF2LczrvLM/lsazG+yylW/ll5ufdU39H2ub8y6Avvm5ZnVn8+S3rMWecJBbmpO/1cenvrvDRY1fO5++ThirWlxNN1o/yeVWjQxt6tqBdENOR07OBunY0dnnypnTzTtLvzVGLy3fENYnhmZh6cO33CLtu3RQzv9ziPnRNHdxcrLc2HfeCMFoIYHgoeIIBAiAv0rVvMBh0GfPZbmDCmsqxbNM/uTz3T6E3JZ7opcbsvF9Vv/+jXno5yn2XHxtX2N/vEkX2eGtIwXr03x9j9Lv0tntChln2t3eRvJHehhzzv0weLpg+VL03T2jqMXXGttSQ3+1t2Aq9/nN9gr1FhHnr/Bkf1exfVvtOJQ3tc/f5G9Tv+Ys9r+95RGUZVnluxL6e4QxuVM+HQTWGc9Un/BVslRep0EtX+YLgJzQhfs5jua+q8NdQ88MVrxxS+y+o+e61twcF3vD73LYOOO3nkgPSoWSjMsVAg9uX0M+Dme+b2MxCT746/IIauszN8NLqz3yDGjp9Wydg3qor3/qQGw7ppt3ImYN9l1io7i/hwITA6219nW/ScOfbR410dThzeLwMblLTHzc62iO1vxMfq2tJKRMcu+Ys+FtDtr5vvcWTl8T6Wiuz8iN5E4Xw2vI/xY3q8GurbX/1eRfXb6c9bp/M+p/LegNej3M8Jxu3vBHMz1fYfv5NRyw5KwoSJdLXsoJ8LvVFj5NJr51Hiw/b3+qrxBwEEglyAIEaQVxDFQwABdwIEMdw58S4EEAgv8NU7g+Sr6cOk+ZD3pdAjlcK/wWeM78l7vQNkxKsVRUMbTihBT/INeKGEucsno9TpMELSmxYu9G4pDQlUeKGVVHypvb1LTme9ZdUiWTx7jBQp84wJFVwLS2TImkNWmQT/1yY0UeqZBlKmVjM5YO6qmzu0raRIlUb0Dio9WTGyWSXb6kUCSRDmLnmdr3NArI+dIMZvpinGt9rWlNz3Piy12g6RxEmTy6cTe8uWNd9Iwz7vSNEnaujbww26zhrEaDV6gec1PeGqARZnnfUFveP0D9NKwvNtBkvBkmaaXzfInEGtTAsJOaXre2vstN7leqX3NBsC+N7c5a/NhuctXEpqtRvmCa+Mfu0pO02bCV/Zv3pnnraI4eakgQY79G61qAyjKk/r8V/YZc8166HhidLVG0mp6i/LCXMH45yhbWxAo/+CX22IwffEtHNi9pEqL5quJMbY+TihnaKmlZIK9VvLeXMxfv6oziZQ8Ju0MBfY1c0JYpSp2ViKlK1qp9N/0mXOLslN/fc1Ta8nSpRIarcfLtnz3is/Lf1EFpk+UPXiTdtJX9sWKjwTXX/ga6af0eFNnpCrV66IXvjJZlpG0Yv9buc9tmUVGzDR8EwS0yrIKdMSycw+TSRQQQw3defrravqHcR4vv3QKL9nt2XJLp2ezGU/cyUq15PHnm0sJw/vk/kjO9mgS8tRn8jdD5WVmH53AhXE+GxyX1n83mhpOepjU55y12tVCGJ4JHiAAAKhLKB347cvn93exa93P0Y1uNmX03lE9duvFw+1qykd/O2z6P5P/xeKi+6/1Os4StKY1jj+N2eMbDQtYDz/xiC7f+cdxPD9DdVWnno9X0ROHTtoWtZKJcMXXwsLutnfsoXy+sfZD9D9zTLPNvW8smBCL9n928+eMKSb37uo9p1eHTrX1e9vVL/jehH+jGmlKirDqMpzK/blFFgv+BzZ+6cN7XrAzYM8Jpysv+sa4o5sf9B7Guexr1lM9zV1fru2bjDHMBVMK2APSrXmPe0iPp3U1+7zByKIEYh9Of0M7Nv5a6TfMz02cPsZiMl3J6ZBDA3J9K1TzAZvXzCBd22FUI8H9Zinqgn6VjSBXx3i+oXA6G5/nW2RdxBjatcGssncxKCDE8Rg+xvxsXpkxy6vDpwtKW+71hJmROcZ9PjHd1ui9t7HUU4Qzs33OLLyOMdSUZ0fqdaiT7hj/Bs5Xg317a+b307nu+gdfNHPgXcQQ1vUiGw/J1i3v9O6vSg/f/eFDPz8d0mdLqOulh3eKH3tuzHs679tq61xffvrrBd/EUAg+AUIYgR/HVFCBBBwIUAQwwUSb0EAAb8C80y4YdVnM8M0W+j3jddHep+81/CFPtcT2Do4oYSPTYsPy0zLD3qR2ruZab0om9CcjO8xd931uWkQ42uZ3LlemNYd9IC381N3SSbTdLXeLZXAdMmhg96h+JkJFzQZMEsKl6kSJojxqGmGu7YJfeigTe72q/ewPfmrz50ghoYkdqxfIUVMCCBrrvz6km29YkjDMuakfBN5vu1QO873H38navzd+bb43VGiLWA8YoIKzuCcWHMOgp0Tpd7dveh7R7WobLpaWSvd3vvBUzYNChzavdPTwoQzTzcnDdJmzObK0E15UpmTWd2rF5Qc+QtL+7eXOMWQtV/OkfcGtZSXe06RYhWfD3NCy2lpJW/3tXVHAAAxBklEQVSRR6Tl6E/sRRht/rZblbtt+ESDKU6z1NrUq15kuOveh6SNaSbTCWI4F2k8CzQPPp3UW5bMHisv95gsxSpdu4NWX3+vX3NZ+80H8vrIj8M0Xe5M6232aI1GMsr0mbrPhHuaDZnr+YxGZ95jW1U1zbyvtXeZ6DL0ZI+2zuB7EclZvv71LoN3Sya+LWK4/fz7+1z6O4Goy/b3PdPxOjgnZMZ8d9TzXdu+dqmMb/+cPFi+pmhgKKbfnUAEMbR1m57P3ifaZdGbM1ZcK/T1f2kRIwwHTxBAIEQFNEioXT3dW6qSNBv6fpQKbvblzpw86uq331mYv32WL6cOkEUzR4QJu+pvnLYcoF3S6TbdO4ihXR30/mCj6YYku52tcwFYnyRLkVqGffO3He9mf8u+0esft7/Bbn7v3Ow7OfuZkf3+uvkdd2Popjw3e19O6fVC4LEDf8vgL//wqgnTbZ3L/cEwE11/4m12I/uaOjttBW3cG9XChALmj+goKxZMkxsNYsTGvpyW2d/3TMe7+QzoZzIm3x3ne/hit4nycOU6urgwgxOG6TJrtdx+1z1hXtN9fO0C03vwbckwrl8IjO7219kWOUGMTd99LlNNi4rOoEGMFGlvY/sbybG6m2MX9bzR7a/b77Gb8rg5P+J8NjQYcKPHq6G8/dW6d/Pb6e3tfWzuHcTw7oI2Lm1/l5gbGD41gcfKr3SQpxt3VRLbpc8wc35Jh+GL95qAa4o4H4SzK8M/CCAQJwQIYsSJaqKQCCAQlQBBjKiEeB0BBCIScE44tptkmoM2F8KjGrxP3i+d+5Z8MqGnbXJWW15wghjj29S0Jze1Gw09qe4MeuJV7xryTuX7O0Gye/vPMqzJ43ayiqbrBGfQu+p+WrpQarzWR56o18oGMfRier4iJU3Tk2uk78ebbcsMm036/21zF0ABcyf/dtMKhhPE0PnoCRXta3zPjs1y+thh0xXDHhuAKFG5rtTvNsFZVJi/3id9nRf8BTH0Ne2WRE+oHT+wRy5eOCcbvr3WioZeWMhg7gxd/sFE+WhcN2liulgp7NXaw5L3xpiD5T7SbPBcuffRJ+1iIjrYd04a5HvgUXmizmtOkeSjMV3kqDnhrV2TnDd9XLsxdFOe5GnSmdY+npanTP/OT5l+np1B73TT7iX0LlU9kFcnbTlEAxTa/Uq6TLebiyzfeer7z1/WmcDJk1LJ3AFXxavLC53f8KblTRPRv9mLLHr3knZN4i+IMaHdc7J93TIZYT5b2iqKMzj9UNcwdxM9YVpd8R0cs6w589sgyK/fL/F8jpz3RmfeWt6j+3bJoC922Ml9gxgarPlry4/OrKXqqz1M6x2F/HYp4xvEcPv5d7xfHfRfNy8axPhgVEfbNYlzJ5cWwt/3zCmcc/LQafJdx2vT0R0q3GlOqBeQDlO/tW+NyXcnEEGMb+eOE71juUHX8VL8qXpOse1fghhhOHiCAAIhKuD8BhUs/oS0GPFhlApu9uV2bvre1W+/szB/+yxTTND2FxO4LWtaoEiaMpXzVln71fvmDtMz9jffCWI8UK6qbSlD9/uqmi7qdBjaqKzp8uGgpEmfSY6aftqdIIa+FtX+lr7He3D2A3zvfPX9DdZpovq9c7Pv5OzLRfb76+Z33I2hm/Lc7H05DVFHdCHQ7f6gE8T2rkfH7Eb3NXXezr5jrTZDpPRz11pJcY6LNIhxzHzmJnas7Vl8EtOS3vAle8IEj50XfY8LYmNfTpfl73um4918BpzPZHS/OzENYly68I+MNMHn/eZY7WETntYu8P76db3prmazbTGxVNVr4YO4HsSI7vbX2RZpEKOEaflxYINSJrCeWO4y3Sz+uORD2yLGqeOH2f5Gcqzu9tjlRre/br/Hbsrj5vyI89kIxPFqKG9/dZvo5rfT8Y7snIqbIEYwbn/1HM2A+iXl9PFDJqRb0bZ+sem7L233vIkSJfHcTBLXt79a1wwIIBA3BAhixI16opQIIBCFAEGMKIB4GQEEIhT4do65yDmxlzTqN0MeKFct3Pv0ZPS/puWLZClT29eck/dvTv9OBr70qNyR7157p2PP5+7zBDG0hYljpuuKIV/9GW5+viP8nSBxghT6Xm1hwneo8MIbUr7+G54gRtOB78p40w9mtWa9pEKD1qKtFew1J/lqdxhpu4twghinzUktvUCugQ5thjizaXHjzMkjss1c2A9EEMMJpqRKm940u1xCUqZOLz8smmuL7wQx9E60z6b0k6YD3pX7TfPYzrDms1mm65U24n23WUQnW52TBs60vn81iLHfNGOsYRQdIjN0U57kpu51Xs+1Gmj6Mm7uuzjPc+fkuDMi5z1FbUsrznOnpQunPpzx+neSOdGt4QhtJvP3DSsiDGLoSSW9u877YoxOv8uc2B3RrKINptRo2V9HhRn8mXWZuUpuz1PQ877ozLuf6R7lX/OfWuvgnIR1WsRYv/hD+x1wZq4neM6fOekqiOH28+/r7SxL/z5csbbcSBBD59Gz5n2m+56k0nPeBnMSJ2bfnRsNYmhwq0+torbroz4f/iyJvMI3WkaCGKrAgAACoS6g4bmOlXKartBymZbEVobj0BbMLp4/Z7vS0u2om30557coqt9+Z2H+9ll0f1Av+vrbD9Ggbr8FW+Q3sw82oUMtG47cZIK0B//+Xfp89IvpNmK9ba3gmcZdZLMJaB7c9bvnt9/N/pZTLuevsx8QVRDDze+dm30np+UAf/u5Tpnc/I67MfyfaSksqn3Lm70vp8cNEV0IdLs/6Bx7OF7619cspvuaOu/138yXmf2ayUvdJ8lDT14LXHgHMZKYkLG2uuEM2pKbHmdoGfRzOvTrXc5LJjB0wLb04oTSne+PvsHf5985lvFdH88MzQPffTl9zd/3TMe7/UzG5LsT0yDG8g8mmfB51zCBeA1n6B3ZJ4/sl0GmyXzdDsT1C4HR3f462yINYhza/YdtgUW7Z/x5+eey+vNZNohx4M9tro69tO518Pe5cLPtiIvbX11ff8EHHe997KLPb3T76/Z77KY8bs6POJ8NLbszxPR4NZS3v2rn5vO/7Ydv7bG5Y+37V4/z3QQxgnH7q+uiYcKF5jzfX1vW2y6DNRC32nSJa+648HSbG9e3v751xnMEEAheAYIYwVs3lAwBBKIhQBAjGli8FQEEwgj8YvqjnWL6pS1do7HUaj8szGvagkXXZ/Kbi9X3SKd3ltvX9IThod075K77i5uWCZab8ctsKxTazLRz8nFyp7q2G4Zhi/fYlhKcmV66eMGGOpImT+mM8nuCxOmz+XFz0b+mufgf0TCy2bXuJbTP8EEvPWYvdDfuP8NekC9fr6Xkf+AxmfRmXc8JQKeJSu87648f2iu9nrv/hoMYemJR+4fNYlpcaDf5a3vXl5ZbLbas+cY2te3dIkbDvtNtv9jOun31zmD5avrQMF1r+Duppu93TtJonZWr08KZhXwwvL1sX7/chgPOnjpu+72OytC5gyOy8qQwLWJoCxAVTPilWvPenuVpFzAa1NGWKbT/d+dksoZ0JnWsY0+yPmtCEeWut9qhd8Dp3a3lajWTZ02rGd6D3g2md2wM+mJnpF2TTDUtZWxa+ZUN+aRInc4zi59MyyPTezWS51sPljLPv+oZ7zxwzLRLGG3y/ItpgyRT9tzSfsoSSZXuWtjH7bx1vTtUyCG5ChaVN9763C7CN4jhLNf7r1OGqC4Cuf38O9495v7X8saJw/vshSvfk/eRnYj0d/LwyqWL0qHitXXU7mJi+t250SCG0/1NlSbdpNLL7b057WOCGOFIGIEAAiEqoL+v2kpYnw83mRapsoVRcLreenXge3Jf6ac9QYzI9uX+3vaTq99+Z0H+9lkmd6pj9oEWh/vNdqbRv06LGNraWYZsOeWdng2lrgnSbvn+G9m2dpn0Ma2dTepQ2xPEcLu/5b0Mfez2N9jN752bfacCD5ezRYjs99fN77gbQzfludn7crryEV0IdLs/aAF9/nHMbnRfU2frNN3+xpiFku/B0nZJ3kGMLDnz+Sz92lMtQ1RBjNjYl9Ol+/ue6Xg3n4E8hUu6OlbR+XkPMQ1izBnYUr7/ao4Jh4XtskSPV1YunC6dpi2TO+8uHOeDGGoVne2vsy168IkapqXHT0X/vtx7qni3zqPH4G6OvZx68ve5cLPtiIvbX11nN8cu+r4b3f66/R67KY+b8yPOZyMQx6uhvP3Vunfz+Xe8Izun4iaIEYzbXzXwHfbu3CJDXiktpas3klodhtuXCWL4KvEcAQRiS4AgRmzJMl8EELipAgQxbio3C0MgXgloOKL/C8XlnLlw337KYsmWu4Bn/ZzuMp423VFUNt1S6OCcANXHThcTvneBLTKBgi9NsKBep9HiNDtr72yv/aANKHSb/b1Obgd/J0gu/nPO3OlewIY4esw1/eRev+CuF/1/XrbQ3LVWR7RJYe8gxg9fvCezB78h6TJmk9Mnjkgvcxe/tgrhHcSYPeA100LF+9J5xkrbTYQWYOn74+WT8T2kuJlng+4TrxXK5183J1wP794p/V54WIqUrSKN+8+yc9CLBe0rXOvnvNcHP9k7VZ0+nAuVrCDNzd1POuhF78HmoFhbeuj78S+SNmNWO97fSTV9wTlp4HtB37s/U52HG0M35dG7BnvUKCSpTdPgejI1SdJktnyrFkyXeSPayyu9p8mD5WuGuUNQAy7Dm5SXs6aP+eZD58k9JZ4Q/az1NIEdvftNwwPJU6Wx89mxcbVpxaSK3Ge6ZHnVdM3i3Cnpr2sSpwWXaqbZ8grXu63RO9EmtH3WhlA6mm40chR4wM7X+x9fs89NqyTfmNZJ8hd9TF4f9bEtk9t5O821e5/ECGQQw+3n39/nUrsm0dZpYhLEGG6DU9dCUs5JdyegFdPvzo0EMbReB5lWd7QLGO12yAnMeNcrQQxvDR4jgEAoC6z85B35YGQHKWWauq/75hi7n6Qe+vs0rPET5vf4mO1OK0my5K725S6cP+vqt98x97fP4oRMfcN0v5lu427LeqdkyZE3TBBDg5v96hQzXbv9Y8v9SJUXpU6nUfaCpNMihtv9Ladczl/f/QBnvPfFz8ymPG5+79zsOzn7cv72c51lu/kdd2Popjw3e19O1zGiC4Fu9wcdJ++/3mY3sq+p89SuAjTAPGDhNkmTIYtdTKCCGLGxL6cF9Pc90/FuPgMXTHdAbo5VdH7eg7NP6N1qn/frH43uLMs/mhIucOEcY3m3OKL7dmNef8Z0UfKjDDbhaz0WiA8XAqOz/XW2RWqYMs1t0m32D6b7pcxhghhpTZjOzbGXUw/+Phduth3eQYy4sv3VdXaCD5Edu+j7bnT76/Z77KY8bs6POJ8N5xj/Ro5XQ3n7q3Xv5vPv663T6eB9TsVNECMYt7/X1uS/f7W12qnm5qsDf243XceukKy58tsX48P297+15BECCASzAEGMYK4dyoYAAq4FCGK4puKNCCDgR2Dj0oUyo3cTG3goVaW+3Jb5Dvl76wZZZ5rs1bvBWo391BMO0BOgu7ZtMN165JXOM1fai/K+QQztk7Jf3WJywTSDXb7e65I+Sw5Zt3i+7Px5tfheXI/oBIk2s7xwUm/RPlLLmH6br16+bEMU2uVI6wlfSp77S4QJYlw2YQZt2UKblHa6h3D6fna6wli9cKa8P7ytCZvcY4MXh/fslDUmwKFD4ceekiaDZvvRuRY+ierONz2x2PPZ++SUaZr4seoNJW2mrOYup4Xm7tRf7Ty1RZE789/vOVGqIyu80Mo6qvOOjavCXTz3d1JNp3N70sCNoXPiIKryOCeP8hYuJQ9VfF5OHTsgS2aPs80t93j/R3Eu7Hg7aWDhrTeqS9IUKaX95MX2s7Ti46kyf1QnyZ6nkHXSO76WzB5jW9boOG2pDchEFsTQMM6ABiXlhAl6lH2+qdyR917ZaJry1VZHNAyioRB/g6+Ztmox5c0X7HROoMLNvJfNmyCLzWdTW+94feTH4tzxGp0gxr2lKkm+Io94iqmfcx304lmVZj3syVg3ded9McLOwPwTkyDGm0/dZVuTyVWwmG0ZRrvrWfzeGNHwVNd319h6i+l350aCGM62Qb9PtTuMcFYxzF+CGGE4eIIAAiEscPXKZbtf9Pf2jVKw+BNSqEQFOXvqqGz4dqFtycy7hSo3+3JK6ea33yH3t8+iv/EDXighp48dsr/5ue4tJru3bZQV5m74u00LBK+N/ChMEOOJeq1Ef2c/fqu7JDD/dTG/Qdly3x0miOF2f8spl/PXdz/AGe8bxHDze+d230mX4fyWORfWnOXqXze/424M3ZbHTX36limm+3K6fhFdCNTX3OwP6vt8h0CUL1nKVLYVua1rv5U89xUXbfnLGdwGMfTOYu02xxm0tUDnmKLJgFlSuEwVCfS+nC7L3/dMx7v5DMT0uxPTIIaGpoY0KqfFM8c8Lc3x4B2y2bRqpy3b3f9YZWk6aI59LT5cCIzO9tfZFunKv2BCcyVN4EwH322Rm++rndD84+9z4Wbb4R3EiCvbX11nN8cu+r4b3f7qPNx8j92Ux835Eeez4fxexPR4Vcsd6ttfN59/X2910yGmQQydNqLzOzd7+6tl0Zt9Pp3cR/aZm5N2/brBhFzPm65mB0hpc27NGeLD9tdZF/4igEBwCxDECO76oXQIIOBSgCCGSyjehgACEQr8/tNK+XhMF9ustR706505eYuUlFrthtvHzoTOyftWoxdI/mJl7GgniFG8Um1p0GOSHXfInHybPfB1c9C3XrRv8nSZbpeKL7whZUy3FN6Dc4LEtw9yPVhdaS7afzVjmL0rUqdJn+VOqfF6XylqmnDVYXSLyrJnxxbRrkl0WDR9iGmJY4jtbiJXwQdl6/dLZGLH2p6uSXS9FpiT+6sWzjIHotpXenIpW+tVWfbBZElr7oTr/eHPdj6+/+g66wnWIYv+8rzkb521H/QZvZqY5op/s+/LcXcR069obhvIaNDlLSn+9AueE6Xa+sMfm34QPSmjLUQULv2UNOg20bQC8l+3LXpS7fDeP22T3p4FmwfOSQM9kC5bu4XnpXlD28qqz2Z6ukFxY+icuI2qPDqvxbNGytIPJpoLO8ckUaIk5vNRypR5gu3qQwvhz8m5oJElRz7RZqQ1sLHm05ny+dRBNsygF1qy3VVQ6po7Xu+672G7Ls5nolbboVL62Sae9XMenDi835wgaSW/rV8hV65cMq2spJaSxra6+WxoNyn+Bn9m/5w9bbpvqWjryzkRGtW8x7etafq73yJlnm1sWol507Oo6AQxPBP5eaB3qGi4xE3d+fM+dfSgdK9RMFxXO46p7/dMi9D56Ty2a5k78t0n281dyvo9SZshqz05XOiRSraUMf3uRBbE0BNkb1bObZtkfqXPO+E03mpdQ37fsEK6zVlr75oO9wYzgiCGPxXGIYBAqApoS1yfjOtm9jsWmN/q43b/Qn9TStds5LnYpzZu9+Xc/PY71hHtsxzdv0veH9pGfv9plejFSt3neaBcVXm+zRDTZ3km2b52qYxv/5xo1yR6IVB/mzXYqvugzUyLWra85rf6wF/bZdg3f9vnbva3nHI5f/3tB+hrzsXPnqYlNe2yzM3vndt9J51/ZL+/bn/HozJ0Wx439emvTDHZl9N118+E3oU78PPf9Wm4Iar9wXATmBGBKN+fv6yTsS2rSI57HpD6Zv/cuTNYl+c2iKGh9IiGImWekcYD3g34vpwuL6LvmdvPQEy+O1EFMT55q5ssnTfRhHe/t8Epb5c9v22SuUNam33nX+zxoLZyWLRcNXm+3TDPPnt8uRDodvvrbIvyPfCovDHuMw9X+G1R1MdezsQRfS6i2nbExe2vrrObYxd9XyC2v26OydyWJ6rzI85nw/sYPybHq7ruob79VYOoPv/+vHU633MqOk6HiL5nwbr91c9Ot2oFzPmoPKar4QImJNLadgd1bW2u/Rtftr/e68RjBBAITgGCGMFZL5QKAQSiKUAQI5pgvB0BBCIU0KaoNRygdy0FYtBWBrR7ivSmCeqYDhp6SJgoUZhASEznpdPphYCT5oJ1OtN9h14QCPSgzX9r1ykp06YPN2vnQL2pOUGr/bRryw7a5YJ3ACPcRAEYEZFhTMpz/OAeU+aMtuuYGymatl6iwQmn65nozktbQTlz/Iiky5zNeCeM7uSRvj825+1vwV9OGyiLZgy3XbZkvjNPmLdEVHdh3nQDT/TkoX4/NSijTfDq5zei72t0vzuRBTFuoMieSQlieCh4gAACCIQR0AvgGqrVAGQghhv97dffVd3n0f3LRBGEJqNbzsj2t6I7L9/3R/Z7F5N9J9/5x+R5RIYxKc+N1qdT/hvdl9P5BGIeTnl8/8bmvH2XpSGe1mUymRbuasmLPSeHeTm29+Wi+xmIzncnqiBGmBWN4IkeD54x+/3ps+XwdJvkvDU+Xghk++vUbsz+Rrb91TlG59glZiXwP1VE3+PolicQ50e0hIE4Xo3NbWRsztu3hiLb/kb02+k7j5g+D+btrwaJ9LxUREN83P5GtK6MRwCBWytAEOPW+rN0BBAIkABBjABBMhsEEEAglgW8D9TvN3fM3eoh2Mpzqz1u1fKdIEbfj7eYroFuv6nF8D55GOgFaxDj+OF9ksEEPSo2aCOlqr4UkEV89+EUWTZ/krnT6W9z92UB0y/5qoDMl5kggAACCCAQlUCw7TsFW3mi8ouvrzsXAh8xXU3UNV1O3MwhNj8DThBDW7BJkz6L2edaGZBVU68B9UvKOdN6zxkT2m/Ud7o88Hj1gMybmcRvgdg8domJXLCVJybrENenYfsbvRpk+xs9L96NAAI3LkAQ48YNmQMCCASBAEGMIKgEioAAAgi4EIjNE6UuFh/uLcFWnnAFDJER65d8LD8vXyj1u04wXa2kuqlrHZsnDz+f0k/Onjhm1+fBis9J/qKPBWTdflnxpWxZs9jOS1tE8e4mJiALYCYIIIAAAghEIBBs+07BVp4I2OL9aL3zeHrPV6RQiQphugK6GSsem58B7cpl7Zdz7GokS5lKarTsH5BV0guBHwxr75nXI9VfkRwFinie8wCBiARi89glomVGNj7YyhNZWePra2x/o1ezbH+j58W7EUDgxgUIYty4IXNAAIEgECCIEQSVQBEQQAABFwK7t2+U7euWS5GyVSRzjrwupojdtwRbeWJ3bZm7P4HlH0yS5KnSSIln6vt7mXEIIIAAAggg4CUQbPtOwVYeLyoe3iQBPgM3CZrFBIVAsB27BFt5gqKSQqgQbH9DqLJZVQQQiLEAQYwY0zEhAggEkwBBjGCqDcqCAAIIIIAAAggggAACCCCAAAIIIIAAAggggAACCCCAQOgKEMQI3bpnzRGIVwIEMeJVdbIyCCCAAAIIIIAAAggggAACCCCAAAIIIIAAAggggAACCMRZAYIYcbbqKDgCCHgLEMTw1uAxAggggAACCCCAAAIIIIAAAggggAACCCCAAAIIIIAAAgjcKgGCGLdKnuUigEBABQhiBJSTmSGAAAIIIIAAAggggAACCCCAAAIIIIAAAggggAACCCCAQAwFCGLEEI7JEEAguAQIYgRXfVAaBBBAAAEEEEAAAQQQQAABBBBAAAEEEEAAAQQQQAABBEJVgCBGqNY8641APBMgiBHPKpTVQQABBBBAAAEEEEAAAQQQQAABBBBAAAEEEEAAAQQQQCCOChDEiKMVR7ERQCCsAEGMsB48QwABBBBAAAEEEEAAAQQQQAABBBBAAAEEEEAAAQQQQACBWyNAEOPWuLNUBBAIsABBjACDMjsEEEAAAQQQQAABBBBAAAEEEEAAAQQQQAABBBBAAAEEEIiRAEGMGLExEQIIBJsAQYxgqxHKgwACCCCAAAIIIIAAAggggAACCCCAAAIIIIAAAggggEBoChDECM16Z60RiHcCBDHiXZWyQggggAACCCCAAAIIIIAAAggggAACCCCAAAIIIIAAAgjESQGCGHGy2ig0Agj4ChDE8BXhOQIIIIAAAggggAACCCCAAAIIIIAAAggggAACCCCAAAII3AoBghi3Qp1lIoBAwAUIYgSclBkigAACCCCAAAIIIIAAAggggAACCCCAAAIIIIAAAggggEAMBAhixACNSRBAIPgECGIEX51QIgQQQAABBBBAAAEEEEAAAQQQQAABBBBAAAEEEEAAAQRCUYAgRijWOuuMQDwUIIgRDyuVVUIAAQQQQAABBBBAAAEEEEAAAQQQQAABBBBAAAEEEEAgDgoQxIiDlUaREUAgvABBjPAmjEEAAQQQQAABBBBAAAEEEEAAAQQQQAABBBBAAAEEEEAAgZsvQBDjJpm3eP4lSZggQYRLm/nFh3Lm3NkIXw/lF7JlzCyv13pFFi7/WvYfOSTNnmsgUxfMlb8P7A1lFtbdR4Aghg8ITxFAAAEEEEAAAQQQQAABBBBAAAEEEEAAAQQQQAABBBBA4JYIEMS4Sez/mzhPEpggxtWrV8MsUcfp/3W6tJDDx4+GeY0n1wQSJkwocwaMl1TJU8jFS5fktjRp5dUBnWTnnl0QIeARIIjhoeABAggggAACCCCAAAIIIIAAAggggAACCCCAAAIIIIAAAgjcQgGCGDcJX4MYv+/+U5oP7Bxmib2atpWyxUqFC2KkTplKLl2+LBcuXgjzfudJ8mTJTAsbCeXcP+edUQH5m9KEHa6YsEhMl5sudRo5dfaM/PvvvwEpjzOT7JmzSoXij0m61Gll9c8/yvptm52XYvRXwx1pU6aWE2dOxWj6mEx0myn7ybOnA26jZUmbKo2cPX/O1N2VmBQtXkxDECNeVCMrgQACCCCAAAIIIIAAAggggAACCCCAAAIIIIAAAggggECcFyCIcZOq0G0Qo+yDJUW7McmSIZO9YL/1rx3Sf+poOXD0sNStVF1efba+/LF3l9yVPact+ZY/fpN+5vXJXQdLChOiSJYkqWeNLly6KNv/2im9p4w0LUq8JYtWL5Wx779jX3/6kcelVb3GMnj6OFm+4QfJnT2HdHqphRTIlde+/quZ7wDz2gHTFUhky3Va8ahVoYrUe7K6aa0inQ2HLP1xtYyZO1VSm7CD97K1fKM79LHLGz5rol1WB7PcLuMGysbffrXTT+0xTFKlSCnPtH5J0phAyvReI0XnN27edPv+3q+2lxL3F5UhM8bLsvVr7Djnn6qlK8hrtV+RtsN7ybZdO6Vg7nwytHV32xLJC91b2qBCqzqN5PGHHpHkSZPJyTOnZd43n8q8xZ96AhLfTvrAzk79HE9dTt+3RzmL8fwd17GfZMuYRWp1bmbHaZDlo2Fvy+qN66TftDF2XOVS5Wy9qc0/Jlij9TBh/ky5fOWK+E6fzJRp/uBJZr1Wm2DFeanxeGVPGXRmWiZtVaVe19dlSvehkvm2DHLkxDHJnD6jfe3z7xbLxI/eDdfyii1IPP+HIEY8r2BWDwEEEEAAAQQQQAABBBBAAAEEEEAAAQQQQAABBBBAAIE4IkAQ4yZVlJsgRuJEiWVW39GmNYqL8snSryRH1uxSxgQzVm5cKz0nDZc29ZpItbKVbInnL/5MCucvJAVy55W1W36SVebCvwYC6lWuYV/fbkIIG7Zutt2d/LBlo8zuP04+X7FERs6eYl/XwELb+q9KPxMuWPPLBpnRe7S9qP/lqm9N+CG1WW4J+WXndnljWI9Il9t53CB53LTo0cO07KGhjP+tWylFC9xnAx3vffmRfLV6WZhld2vUSsoXL23XqdfkESbkUU2a1qwvHUb1lQ3bf5HujVvLEw8/astY4bW6kjVDZjv9ZyZgMGrO21L6geLSp3kH+3p/E3T4dt0q+9j5R8MgOr+Oo/vJzr1/24CKhhQGvjNOlqxdYcMmlU0IRQMqP5nllTetbOjro4zLZ8ZHByeIocYpkieXKqUrWt8ek4Y5i/H8ndx1iGTLlEWqt2tox2mA5LNRMzx1Vuye+2VYmx5y/NRJ+fr7ZVLivgdNiCaHjP9ghnz07ZemfGGn1+DJwpHT5TsTjln640q5O2deuSNLNvs50AXMXbTALmfO1wvscvTJFlNPGtipVLKMbRljmAm4fGXCHqE2EMQItRpnfRFAAAEEEEAAAQQQQAABBBBAAAEEEEAAAQQQQAABBBAITgGCGDepXtwEMS5duiT1n6opG7b9Ims2r5cECRLI/CGT5d+r/9oWF7o1esMGBzQ8sdS00JA0SRJ5t+9YGySoZoIAZ86dlfqVa0rjGvVsEMHpvuP2TFnDhCF0lb2DGEkSJ5HODVvK/CWfy8QPZ1mRUe16S5G7C0ntzs2l2bMNIl1un2btbfiiaf+OsnPPLkmRLLl8OHSKbDPhgOHvTvYse9f+PfK6aa1CW/RoObS7/HPhgm1FwwliJDHrM6hlF0+N+AYxJn/8ngmMjJJMphUIHSILYnQ2LWzUe7KGXQcNL7y9YI5pncOEHEa8I4eOH5GXe7WRi8Zbwy7a4sbug/ukYZ92dr6fj55pn7cY1EW0C5gvx7xrgxjvfPq+Z9n6RvWd2HlQpEGMga+/KSXvLyathnSTLX/+LhnTpZd5gyZaGzWILIjRe8oIW547MmeTd/uNDROk0RecwEjF1+rZlj6KFrhXRrTtJT/++rN0GjvAThtK/xDECKXaZl0RQAABBBBAAAEEEEAAAQQQQAABBBBAAAEEEEAAAQQQCF4Bghg3qW7cBDG0RQltDaJOxWqSI1t223WGFu/E6VPybMcmMq3HcLnrjpw2RKDBAR06NGgmTz9WXl7s2Vr2HtofaRBD3//95g36x4QDHrR/NdSRL8ddnpY0tJsLHdKmSmODHhogaGeWEdlyR5gWH0xqROp2aWGn1X+0i47LVy6b4EEGG8TwvGAeaLcaB48dtqOcFiy6TxgiLU2XIenTppNjJ4+Lhkd8gxhX/70q1cs+KX/t2227NoksiOEsb+/hA/KSsfn333/lHtPtyoQug2xrI043J/q+iWZcvhy55cmW9e37Fo+fK5t+3yrtRvUJE8Q4e/6cVCpV1pm1tBjY2dpE1iKGE5ZwXHViDZJoXdcxXhrEyJ/zLk+9aIsY9+YtYFvEcBvEeKJ5bU+ZtDUObX3jpV6tPeNC5QFBjFCpadYTAQQQQAABBBBAAAEEEEAAAQQQQAABBBBAAAEEEEAAgeAWIIhxk+rHTRAjk2kt4a03B9jgxcLli2T/kUPSpWErTxBDW4PIme2OMEGMdqZ7kSqmm5FGfdvbgEJkLWLoqm41rTLoUPCu/PavBjEK5blbniv/jGiLFdodiTNokOKdhe/LuE79I13u4FZdxSQYpG7X15xJPX+d1jg8I8yDzqa1hrWm1QYdnCDGjt1/2kDIVNNyhXZtUqxg4TBBDG1pI48Jofy26w/R7lPa1m8aaYsYdubmnxOnT8rLvdvK6bNnbJcg03qOkI/+94WMnz/TeYtt1SJfzmtBjNQpUsmCEdNMEOJ76T1lZJggxqSP3rVBEWdCLdPo9n0ibRFj8YS5kihhIvli5f+cyezfvw/stS2QOEEMp17SpkptuiK5PcZBDO3W5NSZUzaYE2aBIfCEIEYIVDKriAACCCCAAAIIIIAAAggggAACCCCAAAIIIIAAAggggEAcECCIcZMqyU0Qo9yDJaVFrZdlzNypsnD5N54QgBZRWz3QLkBKFy0hPScNk5Ub10niRIlkVp8xNghwI12TpE2dRlrXayLzF38mE03YQIfM6TNKtgyZZLMJZkS13H7NO5guQO6VV0zgQQMGWi7t2kSDCvPMPGf3H2e71fjJdOXRo2lb24XKa0O6yp6D+z1BDF2mdlnSbEBnGdyqS7gghr5+5eoV0e5CCpiWLdqbVjoiaxGj45h+8sxjFaRcsVKmq5fN8ubYgaaVjuQmZPGO7DtyUBqasl6+ckWyZcxsu/3Yd/igDbiUvK+oDDTdozgW3l2T9DDuvoNv1yKpUqQUbZVi5ca1pp6GG4de1qalaVnk1+shmML57pG9ZnlHTcsfvtNrixgapvhuww8mCOKuaxJtOeTq1atyrwnXjDNBnvVbN0nHMf19ixrvnxPEiPdVzAoigAACCCCAAAIIIIAAAggggAACCCCAAAIIIIAAAgggECcECGLcpGpyE8TIb7rH6P/am3LIdFuhLTIUv/cB2xKFFrF8izrSum5jqVa2ki2xtrCQPXNW23rE2i0/Sedxg+z4yFrE+HzFEhk5e4p9X1XTikZb05qGtojx0/YtMrPvGEltQgRfmdYmjp48IU89+rht/aFWp2byStXakS63QvHS0rVRKzlgWvBYbsp9T+68NnzwgQlhaKDECWLosptUrycvPFXThjA0jKHlaFrzWpcgrYZ2t2GFYa27+w1izPvmU5n88XsmYFE+6iDG6H7yyx+/yVumNY+8d+aSBcsWydj335FuppzlTXk379gqf+7dLQ/fW8R2gzL2/Wly7vx5afbci3a9u40fIms2r/eEYVaZ4EtEQYxct98p875ZaF21SxZtXUSHNsN7SiYTaOneuLWcOntaFixdZOZ9my3/RmPewYRFAhHE2LB1swnMbJMqJniS8bb0MmzWRPlq9VJbhlD6hyBGKNU264oAAggggAACCCCAAAIIIIAAAggggAACCCCAAAIIIIBA8AoQxLhJdaOtJOw9fECaD+wcZom9TAsRZUxLGDU7NJGz589JmxeayJOlytlWJbRbjdvSpLPvf7lXG3nuiadtIOLcP+dN6w4p7Pjtu3balhcOm/CGDjXLVZZWdRtJRxNEWG9agtDB6R7EaeVBx5V/+FHpZgICXd8aJN//8pNtTaH9i80ld/YcppeRf+Wk6d5igum+Y8naldLGtJahAZCIlpsgQQJp8NSzUqdSNVuuC5cuyrfrVsnoOVMl020ZbBDDWba+d8BrnaTk/cVsKxn7TesUGsRwghJaNn9BDA15NDTdr1y4eEEef+gR6dGkjXQbP9iEJTboJJ7B6erEWf+sGTLLpK6DJZ1p9UNbydj65w7R7lzKmJZFEidOLOcv/CMfLvlcZnw+3wZdnixV1pZ9+HuTrUOSxElsCxfLN6yRQdPf8izHeaAtfxS5u5DzNMxfDaJodya1TDDjxWeeF20tQ9dfuyEZPGO87D64z7YccnumLJ5uXSJrEcMxdBbyyfBpdr2025U0pksTbeHji5VLZNy86baFDOd9ofKXIEao1DTriQACCCCAAAIIIIAAAggggAACCCCAAAIIIIAAAggggEBwCxDECML6SZokibnAnlaOnDhmwwBOEZ1AhIYyTpigRKIECe1f5/VA/NWwQEITFjh97qxndm6XqyED7dLk2KkTcvnyZc/0wfhAQxgZ06Y3rY8cCWMciLLemfV222XMu198JNM/m2dnqTba4sgV04WIBloCMWgQ45jp3qRJ/4428HLqzGnREEyoDgQxQrXmWW8EEEAAAQQQQAABBBBAAAEEEEAAAQQQQAABBBBAAAEEgkuAIEZw1UekpfEORGhrCjdruFXLvVnrF+jlOEGMqQvmyJxFCwI9e8/8nCBG434dPONC+QFBjFCufdYdAQQQQAABBBBAAAEEEEAAAQQQQAABBBBAAAEEEEAAgeARIIgRPHURZUmaVK8nFUuWkbYje8u+wwejfH+g3nCrlhuo8t/s+WiLJnfnzCP7TXcqR02LFbE1DGnVVRImTGi6XOkfW4uIU/MliBGnqovCIoAAAggggAACCCCAAAIIIIAAAggggAACCCCAAAIIIBBvBQhixNuqZcUQCC0BghihVd+sLQIIIIAAAggggAACCCCAAAIIIIAAAggggAACCCCAAALBKkAQI1hrhnIhgEC0BAhiRIuLNyOAAAIIIIAAAggggAACCCCAAAIIIIAAAggggAACCCCAQCwJ3JIgRp32TW2XCrG0TswWAQRCUCBzmvSye99eyZX9zhBce1YZAQT8CWTLnFWOHD8qly9f9vcy4xBAAAEEYkEgUcJEkjVTZtl36EAszJ1ZIoBAKAmkTZ1GEiRIICdPnwql1WZdEUAAgVsukCpFSkmWNJkci8Uul2/5SlIABBBAIAgFkidLJmlSpZbDx44GYekoEgIIxERg1749drINny6NcvIE/5ohyndF8YYLFy/Iz9t/jeJdvIwAAghET+DEqZOy468/pOQDxaI3Ie9GAAEEEEAAAQQQQAABBBBAAAEEEEAAAQQQQAABBBBAAAEEAiiw98B+yZIxs5Rwce0yIEGMAJadWSGAAAIIIIAAAggggAACCCCAAAIIIIAAAggggAACCCCAAAIIIIAAAnFWgCBGnK06Co4AAggggAACCCCAAAIIIIAAAggggAACCCCAAAIIIIAAAggggAACwSZAECPYaoTyIIAAAggggAACCCCAAAIIIIAAAggggAACCCCAAAIIIIAAAggggECcFSCIEWerjoIjgAACCCCAAAIIIIAAAggggAACCCCAAAIIIIAAAggggAACCCCAQLAJEMQIthqhPAgggAACCCCAAAIIIIAAAggggAACCCCAAAIIIIAAAggggAACCCAQZwUIYsTZqqPgCCCAAAIIIIAAAggggAACCCCAAAIIIIAAAggggAACCCCAAAIIIBBsAgQxgq1GKA8CCCCAAAIIIIAAAggggAACCCCAAAIIIIAAAggggAACCCCAAAIIxFkBghhxtuooOAIIIIAAAggggAACCCCAAAIIIIAAAggggAACCCCAAAIIIIAAAggEmwBBjGCrEcqDAAIIIIAAAggggAACCCCAAAIIIIAAAggggAACCCCAAAIIIIAAAnFW4P8e8PpsZUqVkwAAAABJRU5ErkJggg==;" parent="1" vertex="1">
          <mxGeometry x="944" y="170" width="1496" height="342.98" as="geometry" />
        </mxCell>
        <object placeholders="1" c4Name="Почта" c4Type="Software System" c4Description="" label="&lt;font style=&quot;font-size: 16px&quot;&gt;&lt;b&gt;%c4Name%&lt;/b&gt;&lt;/font&gt;&lt;div&gt;[%c4Type%]&lt;/div&gt;&lt;br&gt;&lt;div&gt;&lt;font style=&quot;font-size: 11px&quot;&gt;&lt;font color=&quot;#cccccc&quot;&gt;%c4Description%&lt;/font&gt;&lt;/div&gt;" id="Btk7NwE72k1RVQOvHoB8-49">
          <mxCell style="rounded=1;whiteSpace=wrap;html=1;labelBackgroundColor=none;fillColor=#1061B0;fontColor=#ffffff;align=center;arcSize=10;strokeColor=#0D5091;metaEdit=1;resizable=0;points=[[0.25,0,0],[0.5,0,0],[0.75,0,0],[1,0.25,0],[1,0.5,0],[1,0.75,0],[0.75,1,0],[0.5,1,0],[0.25,1,0],[0,0.75,0],[0,0.5,0],[0,0.25,0]];" parent="1" vertex="1">
            <mxGeometry x="704" y="2000" width="240" height="120" as="geometry" />
          </mxCell>
        </object>
        <mxCell id="Btk7NwE72k1RVQOvHoB8-50" value="6. Передача данных&lt;div&gt;о специальной ставке&lt;/div&gt;" style="edgeStyle=orthogonalEdgeStyle;rounded=0;orthogonalLoop=1;jettySize=auto;html=1;entryX=1;entryY=0.5;entryDx=0;entryDy=0;entryPerimeter=0;" parent="1" source="Btk7NwE72k1RVQOvHoB8-22" target="Btk7NwE72k1RVQOvHoB8-49" edge="1">
          <mxGeometry relative="1" as="geometry">
            <mxPoint as="offset" />
          </mxGeometry>
        </mxCell>
        <mxCell id="Btk7NwE72k1RVQOvHoB8-51" style="edgeStyle=orthogonalEdgeStyle;rounded=0;orthogonalLoop=1;jettySize=auto;html=1;entryX=1;entryY=0.5;entryDx=0;entryDy=0;entryPerimeter=0;" parent="1" source="Btk7NwE72k1RVQOvHoB8-49" target="Btk7NwE72k1RVQOvHoB8-9" edge="1">
          <mxGeometry relative="1" as="geometry" />
        </mxCell>
        <mxCell id="Btk7NwE72k1RVQOvHoB8-53" value="7. Обновление ставки&lt;div&gt;с учетом кредитования&lt;/div&gt;" style="edgeLabel;html=1;align=center;verticalAlign=middle;resizable=0;points=[];" parent="Btk7NwE72k1RVQOvHoB8-51" vertex="1" connectable="0">
          <mxGeometry x="-0.4048" y="-2" relative="1" as="geometry">
            <mxPoint x="-41" y="2" as="offset" />
          </mxGeometry>
        </mxCell>
        <object placeholders="1" c4Name="Почта" c4Type="Software System" c4Description="" label="&lt;font style=&quot;font-size: 16px&quot;&gt;&lt;b&gt;%c4Name%&lt;/b&gt;&lt;/font&gt;&lt;div&gt;[%c4Type%]&lt;/div&gt;&lt;br&gt;&lt;div&gt;&lt;font style=&quot;font-size: 11px&quot;&gt;&lt;font color=&quot;#cccccc&quot;&gt;%c4Description%&lt;/font&gt;&lt;/div&gt;" id="Btk7NwE72k1RVQOvHoB8-54">
          <mxCell style="rounded=1;whiteSpace=wrap;html=1;labelBackgroundColor=none;fillColor=#1061B0;fontColor=#ffffff;align=center;arcSize=10;strokeColor=#0D5091;metaEdit=1;resizable=0;points=[[0.25,0,0],[0.5,0,0],[0.75,0,0],[1,0.25,0],[1,0.5,0],[1,0.75,0],[0.75,1,0],[0.5,1,0],[0.25,1,0],[0,0.75,0],[0,0.5,0],[0,0.25,0]];" parent="1" vertex="1">
            <mxGeometry x="2610" y="2020" width="240" height="120" as="geometry" />
          </mxCell>
        </object>
        <mxCell id="Btk7NwE72k1RVQOvHoB8-55" value="6. Передача данных&lt;div&gt;о специальной ставке&lt;/div&gt;" style="edgeStyle=orthogonalEdgeStyle;rounded=0;orthogonalLoop=1;jettySize=auto;html=1;entryX=1;entryY=0.5;entryDx=0;entryDy=0;entryPerimeter=0;exitX=0;exitY=0.5;exitDx=0;exitDy=0;exitPerimeter=0;" parent="1" source="Btk7NwE72k1RVQOvHoB8-37" target="Btk7NwE72k1RVQOvHoB8-54" edge="1">
          <mxGeometry x="-0.0667" y="-20" relative="1" as="geometry">
            <mxPoint x="2974" y="2100" as="sourcePoint" />
            <mxPoint x="2760" y="2100" as="targetPoint" />
            <mxPoint x="-1" as="offset" />
          </mxGeometry>
        </mxCell>
        <mxCell id="Btk7NwE72k1RVQOvHoB8-57" style="edgeStyle=orthogonalEdgeStyle;rounded=0;orthogonalLoop=1;jettySize=auto;html=1;entryX=1;entryY=0.5;entryDx=0;entryDy=0;entryPerimeter=0;exitX=0;exitY=0.5;exitDx=0;exitDy=0;exitPerimeter=0;" parent="1" source="Btk7NwE72k1RVQOvHoB8-54" target="Btk7NwE72k1RVQOvHoB8-31" edge="1">
          <mxGeometry relative="1" as="geometry">
            <mxPoint x="2004" y="2069.17" as="sourcePoint" />
            <mxPoint x="1790" y="2069.17" as="targetPoint" />
          </mxGeometry>
        </mxCell>
        <mxCell id="Btk7NwE72k1RVQOvHoB8-58" value="7. Обновление ставки&lt;div&gt;с учетом кредитования&lt;/div&gt;" style="edgeLabel;html=1;align=center;verticalAlign=middle;resizable=0;points=[];" parent="Btk7NwE72k1RVQOvHoB8-57" vertex="1" connectable="0">
          <mxGeometry x="-0.4048" y="-2" relative="1" as="geometry">
            <mxPoint x="-36" y="-18" as="offset" />
          </mxGeometry>
        </mxCell>
      </root>
    </mxGraphModel>
  </diagram>
  <diagram id="PMkxUewS-f3bYVbuWErk" name="scenario_1">
    <mxGraphModel dx="2868" dy="714" grid="1" gridSize="10" guides="1" tooltips="1" connect="1" arrows="1" fold="1" page="1" pageScale="1" pageWidth="850" pageHeight="1100" math="0" shadow="0">
      <root>
        <mxCell id="0" />
        <mxCell id="1" parent="0" />
        <object placeholders="1" c4Name="Клиент банка" c4Type="Person" c4Description="" label="&lt;font style=&quot;font-size: 16px&quot;&gt;&lt;b&gt;%c4Name%&lt;/b&gt;&lt;/font&gt;&lt;div&gt;[%c4Type%]&lt;/div&gt;&lt;br&gt;&lt;div&gt;&lt;font style=&quot;font-size: 11px&quot;&gt;&lt;font color=&quot;#cccccc&quot;&gt;%c4Description%&lt;/font&gt;&lt;/div&gt;" id="oCYfM-phHyXyY9QtCxRj-1">
          <mxCell style="html=1;fontSize=11;dashed=0;whiteSpace=wrap;fillColor=#6C6477;strokeColor=#4D4D4D;fontColor=#ffffff;shape=mxgraph.c4.person2;align=center;metaEdit=1;points=[[0.5,0,0],[1,0.5,0],[1,0.75,0],[0.75,1,0],[0.5,1,0],[0.25,1,0],[0,0.75,0],[0,0.5,0]];resizable=0;" vertex="1" parent="1">
            <mxGeometry x="770" y="1380" width="200" height="180" as="geometry" />
          </mxCell>
        </object>
        <object placeholders="1" c4Name="Менеджер фронт-офиса" c4Type="Person" c4Description="" label="&lt;font style=&quot;font-size: 16px&quot;&gt;&lt;b&gt;%c4Name%&lt;/b&gt;&lt;/font&gt;&lt;div&gt;[%c4Type%]&lt;/div&gt;&lt;br&gt;&lt;div&gt;&lt;font style=&quot;font-size: 11px&quot;&gt;&lt;font color=&quot;#cccccc&quot;&gt;%c4Description%&lt;/font&gt;&lt;/div&gt;" id="oCYfM-phHyXyY9QtCxRj-2">
          <mxCell style="html=1;fontSize=11;dashed=0;whiteSpace=wrap;fillColor=#083F75;strokeColor=#06315C;fontColor=#ffffff;shape=mxgraph.c4.person2;align=center;metaEdit=1;points=[[0.5,0,0],[1,0.5,0],[1,0.75,0],[0.75,1,0],[0.5,1,0],[0.25,1,0],[0,0.75,0],[0,0.5,0]];resizable=0;" vertex="1" parent="1">
            <mxGeometry x="310" y="1690" width="200" height="180" as="geometry" />
          </mxCell>
        </object>
        <object placeholders="1" c4Name="Колл-центр" c4Type="Software System" c4Description="" label="&lt;font style=&quot;font-size: 16px&quot;&gt;&lt;b&gt;%c4Name%&lt;/b&gt;&lt;/font&gt;&lt;div&gt;[%c4Type%]&lt;/div&gt;&lt;br&gt;&lt;div&gt;&lt;font style=&quot;font-size: 11px&quot;&gt;&lt;font color=&quot;#cccccc&quot;&gt;%c4Description%&lt;/font&gt;&lt;/div&gt;" id="oCYfM-phHyXyY9QtCxRj-3">
          <mxCell style="rounded=1;whiteSpace=wrap;html=1;labelBackgroundColor=none;fillColor=#1061B0;fontColor=#ffffff;align=center;arcSize=10;strokeColor=#0D5091;metaEdit=1;resizable=0;points=[[0.25,0,0],[0.5,0,0],[0.75,0,0],[1,0.25,0],[1,0.5,0],[1,0.75,0],[0.75,1,0],[0.5,1,0],[0.25,1,0],[0,0.75,0],[0,0.5,0],[0,0.25,0]];" vertex="1" parent="1">
            <mxGeometry x="1285" y="1720" width="240" height="120" as="geometry" />
          </mxCell>
        </object>
        <mxCell id="oCYfM-phHyXyY9QtCxRj-4" style="edgeStyle=orthogonalEdgeStyle;rounded=0;orthogonalLoop=1;jettySize=auto;html=1;entryX=0.5;entryY=0;entryDx=0;entryDy=0;entryPerimeter=0;" edge="1" parent="1" source="oCYfM-phHyXyY9QtCxRj-1" target="oCYfM-phHyXyY9QtCxRj-3">
          <mxGeometry relative="1" as="geometry" />
        </mxCell>
        <mxCell id="oCYfM-phHyXyY9QtCxRj-5" value="1. Уточнение деталей открытия депозита" style="edgeLabel;html=1;align=center;verticalAlign=middle;resizable=0;points=[];" vertex="1" connectable="0" parent="oCYfM-phHyXyY9QtCxRj-4">
          <mxGeometry x="0.4721" y="2" relative="1" as="geometry">
            <mxPoint x="-2" y="50" as="offset" />
          </mxGeometry>
        </mxCell>
        <object placeholders="1" c4Name="Менеджеры бэк-офиса&#xa;(депозиты)" c4Type="Person" c4Description="Обрабатывают заявки из кол-центра в АБС заранее. Или напрямую от менеджера фронт-офиса" label="&lt;font style=&quot;font-size: 16px&quot;&gt;&lt;b&gt;%c4Name%&lt;/b&gt;&lt;/font&gt;&lt;div&gt;[%c4Type%]&lt;/div&gt;&lt;br&gt;&lt;div&gt;&lt;font style=&quot;font-size: 11px&quot;&gt;&lt;font color=&quot;#cccccc&quot;&gt;%c4Description%&lt;/font&gt;&lt;/div&gt;" id="oCYfM-phHyXyY9QtCxRj-6">
          <mxCell style="html=1;fontSize=11;dashed=0;whiteSpace=wrap;fillColor=#083F75;strokeColor=#06315C;fontColor=#ffffff;shape=mxgraph.c4.person2;align=center;metaEdit=1;points=[[0.5,0,0],[1,0.5,0],[1,0.75,0],[0.75,1,0],[0.5,1,0],[0.25,1,0],[0,0.75,0],[0,0.5,0]];resizable=0;" vertex="1" parent="1">
            <mxGeometry x="290" y="1970" width="200" height="180" as="geometry" />
          </mxCell>
        </object>
        <object placeholders="1" c4Name="АБС" c4Type="Software System" c4Description="" label="&lt;font style=&quot;font-size: 16px&quot;&gt;&lt;b&gt;%c4Name%&lt;/b&gt;&lt;/font&gt;&lt;div&gt;[%c4Type%]&lt;/div&gt;&lt;br&gt;&lt;div&gt;&lt;font style=&quot;font-size: 11px&quot;&gt;&lt;font color=&quot;#cccccc&quot;&gt;%c4Description%&lt;/font&gt;&lt;/div&gt;" id="oCYfM-phHyXyY9QtCxRj-7">
          <mxCell style="rounded=1;whiteSpace=wrap;html=1;labelBackgroundColor=none;fillColor=#1061B0;fontColor=#ffffff;align=center;arcSize=10;strokeColor=#0D5091;metaEdit=1;resizable=0;points=[[0.25,0,0],[0.5,0,0],[0.75,0,0],[1,0.25,0],[1,0.5,0],[1,0.75,0],[0.75,1,0],[0.5,1,0],[0.25,1,0],[0,0.75,0],[0,0.5,0],[0,0.25,0]];" vertex="1" parent="1">
            <mxGeometry x="750" y="1720" width="240" height="120" as="geometry" />
          </mxCell>
        </object>
        <mxCell id="oCYfM-phHyXyY9QtCxRj-8" style="edgeStyle=orthogonalEdgeStyle;rounded=0;orthogonalLoop=1;jettySize=auto;html=1;exitX=0.5;exitY=0;exitDx=0;exitDy=0;exitPerimeter=0;entryX=0.25;entryY=1;entryDx=0;entryDy=0;entryPerimeter=0;" edge="1" parent="1" source="oCYfM-phHyXyY9QtCxRj-6" target="oCYfM-phHyXyY9QtCxRj-7">
          <mxGeometry relative="1" as="geometry" />
        </mxCell>
        <mxCell id="oCYfM-phHyXyY9QtCxRj-9" value="4. Обработка заявки на открытие депозита" style="edgeLabel;html=1;align=center;verticalAlign=middle;resizable=0;points=[];" vertex="1" connectable="0" parent="oCYfM-phHyXyY9QtCxRj-8">
          <mxGeometry x="0.0095" y="6" relative="1" as="geometry">
            <mxPoint x="57" y="1" as="offset" />
          </mxGeometry>
        </mxCell>
        <mxCell id="oCYfM-phHyXyY9QtCxRj-10" style="edgeStyle=orthogonalEdgeStyle;rounded=0;orthogonalLoop=1;jettySize=auto;html=1;entryX=0.5;entryY=1;entryDx=0;entryDy=0;entryPerimeter=0;exitX=0.5;exitY=0;exitDx=0;exitDy=0;exitPerimeter=0;" edge="1" parent="1" source="oCYfM-phHyXyY9QtCxRj-7" target="oCYfM-phHyXyY9QtCxRj-1">
          <mxGeometry relative="1" as="geometry">
            <Array as="points">
              <mxPoint x="870" y="1590" />
              <mxPoint x="870" y="1590" />
            </Array>
            <mxPoint x="1300" y="2020" as="targetPoint" />
          </mxGeometry>
        </mxCell>
        <mxCell id="oCYfM-phHyXyY9QtCxRj-11" value="8. Отправка СМС-оповещения&lt;div&gt;через СМС-шлюз после обработки заявки&lt;/div&gt;&lt;div&gt;менеджером бэк-офиса (депозиты)&lt;/div&gt;" style="edgeLabel;html=1;align=center;verticalAlign=middle;resizable=0;points=[];" vertex="1" connectable="0" parent="oCYfM-phHyXyY9QtCxRj-10">
          <mxGeometry x="0.0774" relative="1" as="geometry">
            <mxPoint as="offset" />
          </mxGeometry>
        </mxCell>
        <mxCell id="oCYfM-phHyXyY9QtCxRj-12" style="edgeStyle=orthogonalEdgeStyle;rounded=0;orthogonalLoop=1;jettySize=auto;html=1;entryX=0.5;entryY=0;entryDx=0;entryDy=0;entryPerimeter=0;" edge="1" parent="1" source="oCYfM-phHyXyY9QtCxRj-1" target="oCYfM-phHyXyY9QtCxRj-2">
          <mxGeometry relative="1" as="geometry" />
        </mxCell>
        <mxCell id="oCYfM-phHyXyY9QtCxRj-13" value="9. Подача заявки на открытие&lt;div&gt;депозита через отделение банка&lt;/div&gt;" style="edgeLabel;html=1;align=center;verticalAlign=middle;resizable=0;points=[];" vertex="1" connectable="0" parent="oCYfM-phHyXyY9QtCxRj-12">
          <mxGeometry x="0.2009" y="2" relative="1" as="geometry">
            <mxPoint x="-22" y="28" as="offset" />
          </mxGeometry>
        </mxCell>
        <object placeholders="1" c4Name="Сотрудник кол-центра" c4Type="Person" c4Description="" label="&lt;font style=&quot;font-size: 16px&quot;&gt;&lt;b&gt;%c4Name%&lt;/b&gt;&lt;/font&gt;&lt;div&gt;[%c4Type%]&lt;/div&gt;&lt;br&gt;&lt;div&gt;&lt;font style=&quot;font-size: 11px&quot;&gt;&lt;font color=&quot;#cccccc&quot;&gt;%c4Description%&lt;/font&gt;&lt;/div&gt;" id="oCYfM-phHyXyY9QtCxRj-14">
          <mxCell style="html=1;fontSize=11;dashed=0;whiteSpace=wrap;fillColor=#083F75;strokeColor=#06315C;fontColor=#ffffff;shape=mxgraph.c4.person2;align=center;metaEdit=1;points=[[0.5,0,0],[1,0.5,0],[1,0.75,0],[0.75,1,0],[0.5,1,0],[0.25,1,0],[0,0.75,0],[0,0.5,0]];resizable=0;" vertex="1" parent="1">
            <mxGeometry x="1420" y="1970" width="200" height="180" as="geometry" />
          </mxCell>
        </object>
        <mxCell id="oCYfM-phHyXyY9QtCxRj-15" style="edgeStyle=orthogonalEdgeStyle;rounded=0;orthogonalLoop=1;jettySize=auto;html=1;exitX=0;exitY=0.5;exitDx=0;exitDy=0;exitPerimeter=0;entryX=1;entryY=0.5;entryDx=0;entryDy=0;entryPerimeter=0;" edge="1" parent="1" source="oCYfM-phHyXyY9QtCxRj-3" target="oCYfM-phHyXyY9QtCxRj-7">
          <mxGeometry relative="1" as="geometry">
            <mxPoint x="1235" y="1700" as="targetPoint" />
            <Array as="points" />
          </mxGeometry>
        </mxCell>
        <mxCell id="oCYfM-phHyXyY9QtCxRj-16" value="3. Регистрация обращения&lt;div&gt;на открытие депозита&lt;/div&gt;" style="edgeLabel;html=1;align=center;verticalAlign=middle;resizable=0;points=[];" vertex="1" connectable="0" parent="oCYfM-phHyXyY9QtCxRj-15">
          <mxGeometry x="-0.0393" y="1" relative="1" as="geometry">
            <mxPoint x="7" y="-21" as="offset" />
          </mxGeometry>
        </mxCell>
        <mxCell id="oCYfM-phHyXyY9QtCxRj-17" value="&lt;span style=&quot;color: rgba(0, 0, 0, 0.85); font-family: &amp;quot;YS Text&amp;quot;, sans-serif; font-size: 18px; font-style: normal; font-variant-ligatures: normal; font-variant-caps: normal; font-weight: 400; letter-spacing: normal; orphans: 2; text-align: left; text-indent: 0px; text-transform: none; widows: 2; word-spacing: 0px; -webkit-text-stroke-width: 0px; white-space: pre-line; background-color: rgb(255, 255, 255); text-decoration-thickness: initial; text-decoration-style: initial; text-decoration-color: initial; display: inline !important; float: none;&quot;&gt;Сценарий 1: Если до своего визита клиент позвонил в кол-центр, чтобы уточнить детали открытия депозита&lt;/span&gt;" style="text;whiteSpace=wrap;html=1;fillColor=default;" vertex="1" parent="1">
          <mxGeometry x="600" y="1250" width="557.5" height="60" as="geometry" />
        </mxCell>
        <object placeholders="1" c4Name="Менеджеры бэк-офиса&#xa;(кредиты)" c4Type="Person" c4Description="Анализирует текущий уровень кредитного риска для банка в своём разделе АБС относительно этого клиента и передаёт данные в письме" label="&lt;font style=&quot;font-size: 16px&quot;&gt;&lt;b&gt;%c4Name%&lt;/b&gt;&lt;/font&gt;&lt;div&gt;[%c4Type%]&lt;/div&gt;&lt;br&gt;&lt;div&gt;&lt;font style=&quot;font-size: 11px&quot;&gt;&lt;font color=&quot;#cccccc&quot;&gt;%c4Description%&lt;/font&gt;&lt;/div&gt;" id="oCYfM-phHyXyY9QtCxRj-18">
          <mxCell style="html=1;fontSize=11;dashed=0;whiteSpace=wrap;fillColor=#083F75;strokeColor=#06315C;fontColor=#ffffff;shape=mxgraph.c4.person2;align=center;metaEdit=1;points=[[0.5,0,0],[1,0.5,0],[1,0.75,0],[0.75,1,0],[0.5,1,0],[0.25,1,0],[0,0.75,0],[0,0.5,0]];resizable=0;" vertex="1" parent="1">
            <mxGeometry x="1157.5" y="1970" width="200" height="180" as="geometry" />
          </mxCell>
        </object>
        <mxCell id="oCYfM-phHyXyY9QtCxRj-19" style="edgeStyle=orthogonalEdgeStyle;rounded=0;orthogonalLoop=1;jettySize=auto;html=1;exitX=1;exitY=0.5;exitDx=0;exitDy=0;exitPerimeter=0;entryX=0;entryY=0.5;entryDx=0;entryDy=0;entryPerimeter=0;" edge="1" parent="1" source="oCYfM-phHyXyY9QtCxRj-2" target="oCYfM-phHyXyY9QtCxRj-7">
          <mxGeometry relative="1" as="geometry" />
        </mxCell>
        <mxCell id="oCYfM-phHyXyY9QtCxRj-20" value="10. Выдача депозита и&lt;div&gt;загрузка документов&lt;/div&gt;" style="edgeLabel;html=1;align=center;verticalAlign=middle;resizable=0;points=[];" vertex="1" connectable="0" parent="oCYfM-phHyXyY9QtCxRj-19">
          <mxGeometry x="0.3561" y="2" relative="1" as="geometry">
            <mxPoint x="-43" y="-8" as="offset" />
          </mxGeometry>
        </mxCell>
        <mxCell id="oCYfM-phHyXyY9QtCxRj-21" style="edgeStyle=orthogonalEdgeStyle;rounded=0;orthogonalLoop=1;jettySize=auto;html=1;entryX=0.5;entryY=1;entryDx=0;entryDy=0;entryPerimeter=0;" edge="1" parent="1" source="oCYfM-phHyXyY9QtCxRj-14" target="oCYfM-phHyXyY9QtCxRj-3">
          <mxGeometry relative="1" as="geometry" />
        </mxCell>
        <mxCell id="oCYfM-phHyXyY9QtCxRj-22" value="2. Обработка обращения на открытие депозита" style="edgeLabel;html=1;align=center;verticalAlign=middle;resizable=0;points=[];" vertex="1" connectable="0" parent="oCYfM-phHyXyY9QtCxRj-21">
          <mxGeometry x="-0.1857" y="-4" relative="1" as="geometry">
            <mxPoint x="-4" y="7" as="offset" />
          </mxGeometry>
        </mxCell>
        <mxCell id="oCYfM-phHyXyY9QtCxRj-23" style="edgeStyle=orthogonalEdgeStyle;rounded=0;orthogonalLoop=1;jettySize=auto;html=1;exitX=0.5;exitY=0;exitDx=0;exitDy=0;exitPerimeter=0;entryX=0.75;entryY=1;entryDx=0;entryDy=0;entryPerimeter=0;" edge="1" parent="1" source="oCYfM-phHyXyY9QtCxRj-18" target="oCYfM-phHyXyY9QtCxRj-7">
          <mxGeometry relative="1" as="geometry" />
        </mxCell>
        <mxCell id="oCYfM-phHyXyY9QtCxRj-24" value="5. Анализ специальных ставок" style="edgeLabel;html=1;align=center;verticalAlign=middle;resizable=0;points=[];" vertex="1" connectable="0" parent="oCYfM-phHyXyY9QtCxRj-23">
          <mxGeometry x="0.1887" y="1" relative="1" as="geometry">
            <mxPoint x="73" y="-6" as="offset" />
          </mxGeometry>
        </mxCell>
        <object placeholders="1" c4Name="Почта" c4Type="Software System" c4Description="" label="&lt;font style=&quot;font-size: 16px&quot;&gt;&lt;b&gt;%c4Name%&lt;/b&gt;&lt;/font&gt;&lt;div&gt;[%c4Type%]&lt;/div&gt;&lt;br&gt;&lt;div&gt;&lt;font style=&quot;font-size: 11px&quot;&gt;&lt;font color=&quot;#cccccc&quot;&gt;%c4Description%&lt;/font&gt;&lt;/div&gt;" id="oCYfM-phHyXyY9QtCxRj-25">
          <mxCell style="rounded=1;whiteSpace=wrap;html=1;labelBackgroundColor=none;fillColor=#1061B0;fontColor=#ffffff;align=center;arcSize=10;strokeColor=#0D5091;metaEdit=1;resizable=0;points=[[0.25,0,0],[0.5,0,0],[0.75,0,0],[1,0.25,0],[1,0.5,0],[1,0.75,0],[0.75,1,0],[0.5,1,0],[0.25,1,0],[0,0.75,0],[0,0.5,0],[0,0.25,0]];" vertex="1" parent="1">
            <mxGeometry x="704" y="2000" width="240" height="120" as="geometry" />
          </mxCell>
        </object>
        <mxCell id="oCYfM-phHyXyY9QtCxRj-26" value="6. Передача данных&lt;div&gt;о специальной ставке&lt;/div&gt;" style="edgeStyle=orthogonalEdgeStyle;rounded=0;orthogonalLoop=1;jettySize=auto;html=1;entryX=1;entryY=0.5;entryDx=0;entryDy=0;entryPerimeter=0;" edge="1" parent="1" source="oCYfM-phHyXyY9QtCxRj-18" target="oCYfM-phHyXyY9QtCxRj-25">
          <mxGeometry relative="1" as="geometry">
            <mxPoint as="offset" />
          </mxGeometry>
        </mxCell>
        <mxCell id="oCYfM-phHyXyY9QtCxRj-27" style="edgeStyle=orthogonalEdgeStyle;rounded=0;orthogonalLoop=1;jettySize=auto;html=1;entryX=1;entryY=0.5;entryDx=0;entryDy=0;entryPerimeter=0;" edge="1" parent="1" source="oCYfM-phHyXyY9QtCxRj-25" target="oCYfM-phHyXyY9QtCxRj-6">
          <mxGeometry relative="1" as="geometry" />
        </mxCell>
        <mxCell id="oCYfM-phHyXyY9QtCxRj-28" value="7. Обновление ставки&lt;div&gt;с учетом кредитования&lt;/div&gt;" style="edgeLabel;html=1;align=center;verticalAlign=middle;resizable=0;points=[];" vertex="1" connectable="0" parent="oCYfM-phHyXyY9QtCxRj-27">
          <mxGeometry x="-0.4048" y="-2" relative="1" as="geometry">
            <mxPoint x="-41" y="2" as="offset" />
          </mxGeometry>
        </mxCell>
      </root>
    </mxGraphModel>
  </diagram>
  <diagram id="DevdWy5wDt86INsZCIcN" name="scenario_2">
    <mxGraphModel dx="907" dy="549" grid="1" gridSize="10" guides="1" tooltips="1" connect="1" arrows="1" fold="1" page="1" pageScale="1" pageWidth="850" pageHeight="1100" math="0" shadow="0">
      <root>
        <mxCell id="0" />
        <mxCell id="1" parent="0" />
        <mxCell id="Gt78vfwlWvOZg-MTwjRN-1" value="&lt;span style=&quot;color: rgba(0, 0, 0, 0.85); font-family: &amp;quot;YS Text&amp;quot;, sans-serif; font-size: 18px; font-style: normal; font-variant-ligatures: normal; font-variant-caps: normal; font-weight: 400; letter-spacing: normal; orphans: 2; text-align: left; text-indent: 0px; text-transform: none; widows: 2; word-spacing: 0px; -webkit-text-stroke-width: 0px; white-space: pre-line; background-color: rgb(255, 255, 255); text-decoration-thickness: initial; text-decoration-style: initial; text-decoration-color: initial; display: inline !important; float: none;&quot;&gt;Сценарий 2: Если клиент приходит в отделение без предварительного звонка, то его заявку нельзя обработать заранее&lt;/span&gt;" style="text;whiteSpace=wrap;html=1;fillColor=default;" vertex="1" parent="1">
          <mxGeometry x="2330" y="1240" width="595" height="70" as="geometry" />
        </mxCell>
        <object placeholders="1" c4Name="Клиент банка" c4Type="Person" c4Description="" label="&lt;font style=&quot;font-size: 16px&quot;&gt;&lt;b&gt;%c4Name%&lt;/b&gt;&lt;/font&gt;&lt;div&gt;[%c4Type%]&lt;/div&gt;&lt;br&gt;&lt;div&gt;&lt;font style=&quot;font-size: 11px&quot;&gt;&lt;font color=&quot;#cccccc&quot;&gt;%c4Description%&lt;/font&gt;&lt;/div&gt;" id="Gt78vfwlWvOZg-MTwjRN-2">
          <mxCell style="html=1;fontSize=11;dashed=0;whiteSpace=wrap;fillColor=#6C6477;strokeColor=#4D4D4D;fontColor=#ffffff;shape=mxgraph.c4.person2;align=center;metaEdit=1;points=[[0.5,0,0],[1,0.5,0],[1,0.75,0],[0.75,1,0],[0.5,1,0],[0.25,1,0],[0,0.75,0],[0,0.5,0]];resizable=0;" vertex="1" parent="1">
            <mxGeometry x="2540" y="1340" width="200" height="180" as="geometry" />
          </mxCell>
        </object>
        <object placeholders="1" c4Name="Менеджер фронт-офиса" c4Type="Person" c4Description="" label="&lt;font style=&quot;font-size: 16px&quot;&gt;&lt;b&gt;%c4Name%&lt;/b&gt;&lt;/font&gt;&lt;div&gt;[%c4Type%]&lt;/div&gt;&lt;br&gt;&lt;div&gt;&lt;font style=&quot;font-size: 11px&quot;&gt;&lt;font color=&quot;#cccccc&quot;&gt;%c4Description%&lt;/font&gt;&lt;/div&gt;" id="Gt78vfwlWvOZg-MTwjRN-3">
          <mxCell style="html=1;fontSize=11;dashed=0;whiteSpace=wrap;fillColor=#083F75;strokeColor=#06315C;fontColor=#ffffff;shape=mxgraph.c4.person2;align=center;metaEdit=1;points=[[0.5,0,0],[1,0.5,0],[1,0.75,0],[0.75,1,0],[0.5,1,0],[0.25,1,0],[0,0.75,0],[0,0.5,0]];resizable=0;" vertex="1" parent="1">
            <mxGeometry x="2080" y="1570" width="200" height="180" as="geometry" />
          </mxCell>
        </object>
        <object placeholders="1" c4Name="Менеджеры бэк-офиса&#xa;(депозиты)" c4Type="Person" c4Description="Обрабатывают заявки из кол-центра в АБС заранее. Или напрямую от менеджера фронт-офиса" label="&lt;font style=&quot;font-size: 16px&quot;&gt;&lt;b&gt;%c4Name%&lt;/b&gt;&lt;/font&gt;&lt;div&gt;[%c4Type%]&lt;/div&gt;&lt;br&gt;&lt;div&gt;&lt;font style=&quot;font-size: 11px&quot;&gt;&lt;font color=&quot;#cccccc&quot;&gt;%c4Description%&lt;/font&gt;&lt;/div&gt;" id="Gt78vfwlWvOZg-MTwjRN-4">
          <mxCell style="html=1;fontSize=11;dashed=0;whiteSpace=wrap;fillColor=#083F75;strokeColor=#06315C;fontColor=#ffffff;shape=mxgraph.c4.person2;align=center;metaEdit=1;points=[[0.5,0,0],[1,0.5,0],[1,0.75,0],[0.75,1,0],[0.5,1,0],[0.25,1,0],[0,0.75,0],[0,0.5,0]];resizable=0;" vertex="1" parent="1">
            <mxGeometry x="2230" y="1990" width="200" height="180" as="geometry" />
          </mxCell>
        </object>
        <object placeholders="1" c4Name="АБС" c4Type="Software System" c4Description="" label="&lt;font style=&quot;font-size: 16px&quot;&gt;&lt;b&gt;%c4Name%&lt;/b&gt;&lt;/font&gt;&lt;div&gt;[%c4Type%]&lt;/div&gt;&lt;br&gt;&lt;div&gt;&lt;font style=&quot;font-size: 11px&quot;&gt;&lt;font color=&quot;#cccccc&quot;&gt;%c4Description%&lt;/font&gt;&lt;/div&gt;" id="Gt78vfwlWvOZg-MTwjRN-5">
          <mxCell style="rounded=1;whiteSpace=wrap;html=1;labelBackgroundColor=none;fillColor=#1061B0;fontColor=#ffffff;align=center;arcSize=10;strokeColor=#0D5091;metaEdit=1;resizable=0;points=[[0.25,0,0],[0.5,0,0],[0.75,0,0],[1,0.25,0],[1,0.5,0],[1,0.75,0],[0.75,1,0],[0.5,1,0],[0.25,1,0],[0,0.75,0],[0,0.5,0],[0,0.25,0]];" vertex="1" parent="1">
            <mxGeometry x="2520" y="1600" width="240" height="120" as="geometry" />
          </mxCell>
        </object>
        <mxCell id="Gt78vfwlWvOZg-MTwjRN-6" style="edgeStyle=orthogonalEdgeStyle;rounded=0;orthogonalLoop=1;jettySize=auto;html=1;exitX=0.5;exitY=0;exitDx=0;exitDy=0;exitPerimeter=0;entryX=0.25;entryY=1;entryDx=0;entryDy=0;entryPerimeter=0;" edge="1" parent="1" source="Gt78vfwlWvOZg-MTwjRN-4" target="Gt78vfwlWvOZg-MTwjRN-5">
          <mxGeometry relative="1" as="geometry">
            <Array as="points">
              <mxPoint x="2360" y="1910" />
              <mxPoint x="2580" y="1910" />
            </Array>
          </mxGeometry>
        </mxCell>
        <mxCell id="Gt78vfwlWvOZg-MTwjRN-7" value="4. Добавление заявки&lt;div&gt;на депозит в систему&lt;/div&gt;" style="edgeLabel;html=1;align=center;verticalAlign=middle;resizable=0;points=[];" vertex="1" connectable="0" parent="Gt78vfwlWvOZg-MTwjRN-6">
          <mxGeometry x="0.0096" y="2" relative="1" as="geometry">
            <mxPoint x="-32" as="offset" />
          </mxGeometry>
        </mxCell>
        <mxCell id="Gt78vfwlWvOZg-MTwjRN-8" style="edgeStyle=orthogonalEdgeStyle;rounded=0;orthogonalLoop=1;jettySize=auto;html=1;entryX=0.5;entryY=0;entryDx=0;entryDy=0;entryPerimeter=0;" edge="1" parent="1" source="Gt78vfwlWvOZg-MTwjRN-2" target="Gt78vfwlWvOZg-MTwjRN-3">
          <mxGeometry relative="1" as="geometry" />
        </mxCell>
        <mxCell id="Gt78vfwlWvOZg-MTwjRN-9" value="1. Подача заявки на открытие&lt;div&gt;депозита через отделение банка&lt;/div&gt;" style="edgeLabel;html=1;align=center;verticalAlign=middle;resizable=0;points=[];" vertex="1" connectable="0" parent="Gt78vfwlWvOZg-MTwjRN-8">
          <mxGeometry x="0.2009" y="2" relative="1" as="geometry">
            <mxPoint x="-82" y="48" as="offset" />
          </mxGeometry>
        </mxCell>
        <object placeholders="1" c4Name="Менеджеры бэк-офиса&#xa;(кредиты)" c4Type="Person" c4Description="Анализирует текущий уровень кредитного риска для банка в своём разделе АБС относительно этого клиента и передаёт данные в письме" label="&lt;font style=&quot;font-size: 16px&quot;&gt;&lt;b&gt;%c4Name%&lt;/b&gt;&lt;/font&gt;&lt;div&gt;[%c4Type%]&lt;/div&gt;&lt;br&gt;&lt;div&gt;&lt;font style=&quot;font-size: 11px&quot;&gt;&lt;font color=&quot;#cccccc&quot;&gt;%c4Description%&lt;/font&gt;&lt;/div&gt;" id="Gt78vfwlWvOZg-MTwjRN-10">
          <mxCell style="html=1;fontSize=11;dashed=0;whiteSpace=wrap;fillColor=#083F75;strokeColor=#06315C;fontColor=#ffffff;shape=mxgraph.c4.person2;align=center;metaEdit=1;points=[[0.5,0,0],[1,0.5,0],[1,0.75,0],[0.75,1,0],[0.5,1,0],[0.25,1,0],[0,0.75,0],[0,0.5,0]];resizable=0;" vertex="1" parent="1">
            <mxGeometry x="3000" y="1990" width="200" height="180" as="geometry" />
          </mxCell>
        </object>
        <mxCell id="Gt78vfwlWvOZg-MTwjRN-11" style="edgeStyle=orthogonalEdgeStyle;rounded=0;orthogonalLoop=1;jettySize=auto;html=1;exitX=1;exitY=0.5;exitDx=0;exitDy=0;exitPerimeter=0;entryX=0;entryY=0.5;entryDx=0;entryDy=0;entryPerimeter=0;" edge="1" parent="1" source="Gt78vfwlWvOZg-MTwjRN-3" target="Gt78vfwlWvOZg-MTwjRN-5">
          <mxGeometry relative="1" as="geometry" />
        </mxCell>
        <mxCell id="Gt78vfwlWvOZg-MTwjRN-12" value="9. Выдача депозита и&lt;div&gt;загрузка документов&lt;/div&gt;" style="edgeLabel;html=1;align=center;verticalAlign=middle;resizable=0;points=[];" vertex="1" connectable="0" parent="Gt78vfwlWvOZg-MTwjRN-11">
          <mxGeometry x="0.3561" y="2" relative="1" as="geometry">
            <mxPoint x="-33" y="2" as="offset" />
          </mxGeometry>
        </mxCell>
        <mxCell id="Gt78vfwlWvOZg-MTwjRN-13" style="edgeStyle=orthogonalEdgeStyle;rounded=0;orthogonalLoop=1;jettySize=auto;html=1;exitX=0.5;exitY=0;exitDx=0;exitDy=0;exitPerimeter=0;entryX=0.75;entryY=1;entryDx=0;entryDy=0;entryPerimeter=0;" edge="1" parent="1" source="Gt78vfwlWvOZg-MTwjRN-10" target="Gt78vfwlWvOZg-MTwjRN-5">
          <mxGeometry relative="1" as="geometry">
            <Array as="points">
              <mxPoint x="3100" y="1910" />
              <mxPoint x="2700" y="1910" />
            </Array>
          </mxGeometry>
        </mxCell>
        <mxCell id="Gt78vfwlWvOZg-MTwjRN-14" value="5. Согласование специальных ставок" style="edgeLabel;html=1;align=center;verticalAlign=middle;resizable=0;points=[];" vertex="1" connectable="0" parent="Gt78vfwlWvOZg-MTwjRN-13">
          <mxGeometry x="0.1887" y="1" relative="1" as="geometry">
            <mxPoint x="100" y="4" as="offset" />
          </mxGeometry>
        </mxCell>
        <object placeholders="1" c4Name="Почта" c4Type="Software System" c4Description="" label="&lt;font style=&quot;font-size: 16px&quot;&gt;&lt;b&gt;%c4Name%&lt;/b&gt;&lt;/font&gt;&lt;div&gt;[%c4Type%]&lt;/div&gt;&lt;br&gt;&lt;div&gt;&lt;font style=&quot;font-size: 11px&quot;&gt;&lt;font color=&quot;#cccccc&quot;&gt;%c4Description%&lt;/font&gt;&lt;/div&gt;" id="Gt78vfwlWvOZg-MTwjRN-15">
          <mxCell style="rounded=1;whiteSpace=wrap;html=1;labelBackgroundColor=none;fillColor=#1061B0;fontColor=#ffffff;align=center;arcSize=10;strokeColor=#0D5091;metaEdit=1;resizable=0;points=[[0.25,0,0],[0.5,0,0],[0.75,0,0],[1,0.25,0],[1,0.5,0],[1,0.75,0],[0.75,1,0],[0.5,1,0],[0.25,1,0],[0,0.75,0],[0,0.5,0],[0,0.25,0]];" vertex="1" parent="1">
            <mxGeometry x="2060" y="1840" width="240" height="120" as="geometry" />
          </mxCell>
        </object>
        <mxCell id="Gt78vfwlWvOZg-MTwjRN-16" style="edgeStyle=orthogonalEdgeStyle;rounded=0;orthogonalLoop=1;jettySize=auto;html=1;exitX=0.5;exitY=1;exitDx=0;exitDy=0;exitPerimeter=0;entryX=0.5;entryY=0;entryDx=0;entryDy=0;entryPerimeter=0;" edge="1" parent="1" source="Gt78vfwlWvOZg-MTwjRN-3" target="Gt78vfwlWvOZg-MTwjRN-15">
          <mxGeometry relative="1" as="geometry" />
        </mxCell>
        <mxCell id="Gt78vfwlWvOZg-MTwjRN-17" value="2. Письмо сотруднику бэк-офиса на открытие депозита" style="edgeLabel;html=1;align=center;verticalAlign=middle;resizable=0;points=[];" vertex="1" connectable="0" parent="Gt78vfwlWvOZg-MTwjRN-16">
          <mxGeometry x="-0.0923" relative="1" as="geometry">
            <mxPoint as="offset" />
          </mxGeometry>
        </mxCell>
        <mxCell id="Gt78vfwlWvOZg-MTwjRN-18" style="edgeStyle=orthogonalEdgeStyle;rounded=0;orthogonalLoop=1;jettySize=auto;html=1;exitX=0;exitY=0.75;exitDx=0;exitDy=0;exitPerimeter=0;entryX=0.5;entryY=1;entryDx=0;entryDy=0;entryPerimeter=0;" edge="1" parent="1" source="Gt78vfwlWvOZg-MTwjRN-4" target="Gt78vfwlWvOZg-MTwjRN-15">
          <mxGeometry relative="1" as="geometry" />
        </mxCell>
        <mxCell id="Gt78vfwlWvOZg-MTwjRN-19" value="3. Обработка заявки на&lt;div&gt;открытие депозита&lt;/div&gt;&lt;div&gt;&lt;br&gt;&lt;/div&gt;&lt;div&gt;8. Отправка ответного письма с&lt;/div&gt;&lt;div&gt;информацией о согласованном депозите&lt;/div&gt;" style="edgeLabel;html=1;align=center;verticalAlign=middle;resizable=0;points=[];" vertex="1" connectable="0" parent="Gt78vfwlWvOZg-MTwjRN-18">
          <mxGeometry x="0.1719" y="1" relative="1" as="geometry">
            <mxPoint x="-69" y="-19" as="offset" />
          </mxGeometry>
        </mxCell>
        <object placeholders="1" c4Name="Почта" c4Type="Software System" c4Description="" label="&lt;font style=&quot;font-size: 16px&quot;&gt;&lt;b&gt;%c4Name%&lt;/b&gt;&lt;/font&gt;&lt;div&gt;[%c4Type%]&lt;/div&gt;&lt;br&gt;&lt;div&gt;&lt;font style=&quot;font-size: 11px&quot;&gt;&lt;font color=&quot;#cccccc&quot;&gt;%c4Description%&lt;/font&gt;&lt;/div&gt;" id="Gt78vfwlWvOZg-MTwjRN-20">
          <mxCell style="rounded=1;whiteSpace=wrap;html=1;labelBackgroundColor=none;fillColor=#1061B0;fontColor=#ffffff;align=center;arcSize=10;strokeColor=#0D5091;metaEdit=1;resizable=0;points=[[0.25,0,0],[0.5,0,0],[0.75,0,0],[1,0.25,0],[1,0.5,0],[1,0.75,0],[0.75,1,0],[0.5,1,0],[0.25,1,0],[0,0.75,0],[0,0.5,0],[0,0.25,0]];" vertex="1" parent="1">
            <mxGeometry x="2610" y="2020" width="240" height="120" as="geometry" />
          </mxCell>
        </object>
        <mxCell id="Gt78vfwlWvOZg-MTwjRN-21" value="6. Передача данных&lt;div&gt;о специальной ставке&lt;/div&gt;" style="edgeStyle=orthogonalEdgeStyle;rounded=0;orthogonalLoop=1;jettySize=auto;html=1;entryX=1;entryY=0.5;entryDx=0;entryDy=0;entryPerimeter=0;exitX=0;exitY=0.5;exitDx=0;exitDy=0;exitPerimeter=0;" edge="1" parent="1" source="Gt78vfwlWvOZg-MTwjRN-10" target="Gt78vfwlWvOZg-MTwjRN-20">
          <mxGeometry x="-0.0667" y="-20" relative="1" as="geometry">
            <mxPoint x="2974" y="2100" as="sourcePoint" />
            <mxPoint x="2760" y="2100" as="targetPoint" />
            <mxPoint x="-1" as="offset" />
          </mxGeometry>
        </mxCell>
        <mxCell id="Gt78vfwlWvOZg-MTwjRN-22" style="edgeStyle=orthogonalEdgeStyle;rounded=0;orthogonalLoop=1;jettySize=auto;html=1;entryX=1;entryY=0.5;entryDx=0;entryDy=0;entryPerimeter=0;exitX=0;exitY=0.5;exitDx=0;exitDy=0;exitPerimeter=0;" edge="1" parent="1" source="Gt78vfwlWvOZg-MTwjRN-20" target="Gt78vfwlWvOZg-MTwjRN-4">
          <mxGeometry relative="1" as="geometry">
            <mxPoint x="2004" y="2069.17" as="sourcePoint" />
            <mxPoint x="1790" y="2069.17" as="targetPoint" />
          </mxGeometry>
        </mxCell>
        <mxCell id="Gt78vfwlWvOZg-MTwjRN-23" value="7. Обновление ставки&lt;div&gt;с учетом кредитования&lt;/div&gt;" style="edgeLabel;html=1;align=center;verticalAlign=middle;resizable=0;points=[];" vertex="1" connectable="0" parent="Gt78vfwlWvOZg-MTwjRN-22">
          <mxGeometry x="-0.4048" y="-2" relative="1" as="geometry">
            <mxPoint x="-36" y="-18" as="offset" />
          </mxGeometry>
        </mxCell>
      </root>
    </mxGraphModel>
  </diagram>
</mxfile>
